<mxfile host="app.diagrams.net" modified="2021-01-29T13:22:52.352Z" agent="5.0 (Windows NT 10.0; WOW64) AppleWebKit/537.36 (KHTML, like Gecko) Chrome/88.0.4324.104 Safari/537.36" etag="s7ZUCSQ6IHefrmljsvLF" version="13.3.0" type="github" pages="3">
  <diagram id="Fif-O0z_d05Zxn-7RIB6" name="第 1 页">
    <mxGraphModel dx="1038" dy="568" grid="1" gridSize="5" guides="1" tooltips="1" connect="1" arrows="1" fold="1" page="1" pageScale="1" pageWidth="1169" pageHeight="827" math="0" shadow="0">
      <root>
        <mxCell id="0" />
        <mxCell id="1" parent="0" />
        <mxCell id="PTf-wm_DtpIF8Ow_20YU-3" value="PWM" style="edgeStyle=orthogonalEdgeStyle;rounded=0;orthogonalLoop=1;jettySize=auto;html=1;strokeWidth=3;" parent="1" source="PTf-wm_DtpIF8Ow_20YU-1" target="PTf-wm_DtpIF8Ow_20YU-2" edge="1">
          <mxGeometry x="-0.25" y="-10" relative="1" as="geometry">
            <mxPoint as="offset" />
          </mxGeometry>
        </mxCell>
        <mxCell id="PTf-wm_DtpIF8Ow_20YU-5" value="&lt;font style=&quot;font-size: 12px;&quot;&gt;I/O&lt;/font&gt;" style="edgeStyle=orthogonalEdgeStyle;rounded=0;orthogonalLoop=1;jettySize=auto;html=1;strokeWidth=3;fontSize=12;" parent="1" source="PTf-wm_DtpIF8Ow_20YU-1" edge="1">
          <mxGeometry x="-0.625" y="10" relative="1" as="geometry">
            <mxPoint x="670" y="320" as="targetPoint" />
            <mxPoint as="offset" />
          </mxGeometry>
        </mxCell>
        <mxCell id="PTf-wm_DtpIF8Ow_20YU-70" style="edgeStyle=orthogonalEdgeStyle;rounded=0;orthogonalLoop=1;jettySize=auto;html=1;exitX=0.5;exitY=1;exitDx=0;exitDy=0;entryX=0.471;entryY=0.019;entryDx=0;entryDy=0;entryPerimeter=0;strokeWidth=1;fontSize=12;" parent="1" source="PTf-wm_DtpIF8Ow_20YU-1" target="PTf-wm_DtpIF8Ow_20YU-61" edge="1">
          <mxGeometry relative="1" as="geometry" />
        </mxCell>
        <mxCell id="PTf-wm_DtpIF8Ow_20YU-1" value="&lt;font style=&quot;font-size: 16px&quot;&gt;&lt;b style=&quot;font-size: 19px&quot;&gt;MCU&lt;/b&gt;&lt;br&gt;ESP8266模组&lt;/font&gt;" style="rounded=1;whiteSpace=wrap;html=1;" parent="1" vertex="1">
          <mxGeometry x="470" y="290" width="120" height="60" as="geometry" />
        </mxCell>
        <mxCell id="PTf-wm_DtpIF8Ow_20YU-2" value="&lt;span style=&quot;font-size: 19px&quot;&gt;&lt;b&gt;舵机单元&lt;/b&gt;&lt;/span&gt;" style="rounded=1;whiteSpace=wrap;html=1;" parent="1" vertex="1">
          <mxGeometry x="300" y="290" width="90" height="60" as="geometry" />
        </mxCell>
        <mxCell id="PTf-wm_DtpIF8Ow_20YU-56" value="&lt;span style=&quot;font-size: 19px&quot;&gt;&lt;b style=&quot;line-height: 120%&quot;&gt;电灯开关&lt;br&gt;&lt;br&gt;&lt;/b&gt;&lt;/span&gt;" style="rounded=1;whiteSpace=wrap;html=1;align=left;" parent="1" vertex="1">
          <mxGeometry x="300" y="370" width="105" height="105" as="geometry" />
        </mxCell>
        <mxCell id="PTf-wm_DtpIF8Ow_20YU-7" value="&lt;table border=&quot;1&quot; width=&quot;100%&quot; cellpadding=&quot;4&quot; style=&quot;width: 100% ; height: 100% ; border-collapse: collapse&quot;&gt;&lt;tbody&gt;&lt;tr&gt;&lt;th align=&quot;center&quot;&gt;&lt;b&gt;步进电机驱动模块&lt;/b&gt;&lt;/th&gt;&lt;/tr&gt;&lt;tr&gt;&lt;td align=&quot;center&quot;&gt;&lt;b&gt;声光模块&lt;/b&gt;&lt;br&gt;&lt;/td&gt;&lt;/tr&gt;&lt;tr&gt;&lt;td align=&quot;center&quot;&gt;&lt;b&gt;按键模块&lt;/b&gt;&lt;br&gt;&lt;/td&gt;&lt;/tr&gt;&lt;/tbody&gt;&lt;/table&gt;" style="text;html=1;strokeColor=none;fillColor=none;overflow=fill;fontSize=13;strokeWidth=3;rounded=0;shadow=0;comic=0;arcSize=50;absoluteArcSize=0;autosize=0;" parent="1" vertex="1">
          <mxGeometry x="670" y="290" width="130" height="140" as="geometry" />
        </mxCell>
        <mxCell id="PTf-wm_DtpIF8Ow_20YU-10" value="" style="endArrow=none;html=1;strokeWidth=3;fontSize=13;" parent="1" edge="1">
          <mxGeometry width="50" height="50" relative="1" as="geometry">
            <mxPoint x="560" y="290" as="sourcePoint" />
            <mxPoint x="560" y="220" as="targetPoint" />
          </mxGeometry>
        </mxCell>
        <mxCell id="PTf-wm_DtpIF8Ow_20YU-11" value="" style="endArrow=none;html=1;strokeWidth=3;fontSize=13;" parent="1" edge="1">
          <mxGeometry width="50" height="50" relative="1" as="geometry">
            <mxPoint x="520" y="290" as="sourcePoint" />
            <mxPoint x="520" y="180" as="targetPoint" />
          </mxGeometry>
        </mxCell>
        <mxCell id="PTf-wm_DtpIF8Ow_20YU-12" value="&lt;b&gt;&lt;font style=&quot;font-size: 14px&quot;&gt;IIC&lt;/font&gt;&lt;/b&gt;" style="text;html=1;strokeColor=none;fillColor=none;align=center;verticalAlign=middle;whiteSpace=wrap;rounded=0;shadow=1;comic=0;fontSize=13;" parent="1" vertex="1">
          <mxGeometry x="520" y="230" width="40" height="20" as="geometry" />
        </mxCell>
        <mxCell id="PTf-wm_DtpIF8Ow_20YU-13" value="" style="endArrow=none;html=1;strokeWidth=3;fontSize=13;" parent="1" source="PTf-wm_DtpIF8Ow_20YU-15" edge="1">
          <mxGeometry width="50" height="50" relative="1" as="geometry">
            <mxPoint x="660" y="180" as="sourcePoint" />
            <mxPoint x="300" y="180" as="targetPoint" />
          </mxGeometry>
        </mxCell>
        <mxCell id="PTf-wm_DtpIF8Ow_20YU-14" value="" style="endArrow=none;html=1;strokeWidth=3;fontSize=13;" parent="1" source="PTf-wm_DtpIF8Ow_20YU-34" edge="1">
          <mxGeometry width="50" height="50" relative="1" as="geometry">
            <mxPoint x="400" y="220" as="sourcePoint" />
            <mxPoint x="800" y="220" as="targetPoint" />
          </mxGeometry>
        </mxCell>
        <mxCell id="PTf-wm_DtpIF8Ow_20YU-15" value="" style="ellipse;whiteSpace=wrap;html=1;aspect=fixed;rounded=1;shadow=0;comic=0;strokeWidth=3;fontSize=13;fillColor=#000000;" parent="1" vertex="1">
          <mxGeometry x="515" y="175" width="10" height="10" as="geometry" />
        </mxCell>
        <mxCell id="PTf-wm_DtpIF8Ow_20YU-16" value="" style="endArrow=none;html=1;strokeWidth=3;fontSize=13;" parent="1" source="PTf-wm_DtpIF8Ow_20YU-32" target="PTf-wm_DtpIF8Ow_20YU-15" edge="1">
          <mxGeometry width="50" height="50" relative="1" as="geometry">
            <mxPoint x="660" y="180" as="sourcePoint" />
            <mxPoint x="400" y="180" as="targetPoint" />
          </mxGeometry>
        </mxCell>
        <mxCell id="PTf-wm_DtpIF8Ow_20YU-17" value="" style="ellipse;whiteSpace=wrap;html=1;aspect=fixed;rounded=1;shadow=0;comic=0;strokeWidth=3;fontSize=13;fillColor=#000000;" parent="1" vertex="1">
          <mxGeometry x="555" y="215" width="10" height="10" as="geometry" />
        </mxCell>
        <mxCell id="PTf-wm_DtpIF8Ow_20YU-18" value="" style="endArrow=none;html=1;strokeWidth=3;fontSize=13;" parent="1" source="PTf-wm_DtpIF8Ow_20YU-30" target="PTf-wm_DtpIF8Ow_20YU-17" edge="1">
          <mxGeometry width="50" height="50" relative="1" as="geometry">
            <mxPoint x="400" y="220" as="sourcePoint" />
            <mxPoint x="655" y="220" as="targetPoint" />
          </mxGeometry>
        </mxCell>
        <mxCell id="PTf-wm_DtpIF8Ow_20YU-19" value="SCL" style="text;html=1;strokeColor=none;fillColor=none;align=center;verticalAlign=middle;whiteSpace=wrap;rounded=0;shadow=0;comic=0;fontSize=13;" parent="1" vertex="1">
          <mxGeometry x="300" y="160" width="40" height="20" as="geometry" />
        </mxCell>
        <mxCell id="PTf-wm_DtpIF8Ow_20YU-20" value="SDA" style="text;html=1;strokeColor=none;fillColor=none;align=center;verticalAlign=middle;whiteSpace=wrap;rounded=0;shadow=0;comic=0;fontSize=13;" parent="1" vertex="1">
          <mxGeometry x="300" y="200" width="40" height="20" as="geometry" />
        </mxCell>
        <mxCell id="PTf-wm_DtpIF8Ow_20YU-21" value="超声波测距&lt;br&gt;模块" style="rounded=1;whiteSpace=wrap;html=1;shadow=0;comic=0;strokeWidth=1;fillColor=#FFFFFF;fontSize=13;" parent="1" vertex="1">
          <mxGeometry x="340" y="100" width="100" height="40" as="geometry" />
        </mxCell>
        <mxCell id="PTf-wm_DtpIF8Ow_20YU-22" value="电源管理&lt;br&gt;模块" style="rounded=1;whiteSpace=wrap;html=1;shadow=0;comic=0;strokeWidth=1;fillColor=#FFFFFF;fontSize=13;" parent="1" vertex="1">
          <mxGeometry x="560" y="100" width="100" height="40" as="geometry" />
        </mxCell>
        <mxCell id="PTf-wm_DtpIF8Ow_20YU-23" value="" style="endArrow=none;html=1;strokeWidth=3;fontSize=13;" parent="1" source="PTf-wm_DtpIF8Ow_20YU-28" edge="1">
          <mxGeometry width="50" height="50" relative="1" as="geometry">
            <mxPoint x="380" y="180" as="sourcePoint" />
            <mxPoint x="380" y="140" as="targetPoint" />
          </mxGeometry>
        </mxCell>
        <mxCell id="PTf-wm_DtpIF8Ow_20YU-24" value="" style="endArrow=none;html=1;strokeWidth=3;fontSize=13;" parent="1" edge="1">
          <mxGeometry width="50" height="50" relative="1" as="geometry">
            <mxPoint x="400" y="220" as="sourcePoint" />
            <mxPoint x="400" y="140" as="targetPoint" />
          </mxGeometry>
        </mxCell>
        <mxCell id="PTf-wm_DtpIF8Ow_20YU-25" value="" style="endArrow=none;html=1;strokeWidth=3;fontSize=13;" parent="1" edge="1">
          <mxGeometry width="50" height="50" relative="1" as="geometry">
            <mxPoint x="620" y="220" as="sourcePoint" />
            <mxPoint x="620" y="140" as="targetPoint" />
          </mxGeometry>
        </mxCell>
        <mxCell id="PTf-wm_DtpIF8Ow_20YU-26" value="" style="endArrow=none;html=1;strokeWidth=3;fontSize=13;" parent="1" edge="1">
          <mxGeometry width="50" height="50" relative="1" as="geometry">
            <mxPoint x="600" y="180" as="sourcePoint" />
            <mxPoint x="600" y="140" as="targetPoint" />
          </mxGeometry>
        </mxCell>
        <mxCell id="PTf-wm_DtpIF8Ow_20YU-28" value="" style="ellipse;whiteSpace=wrap;html=1;aspect=fixed;rounded=1;shadow=0;comic=0;strokeWidth=3;fontSize=13;fillColor=#000000;" parent="1" vertex="1">
          <mxGeometry x="375" y="175" width="10" height="10" as="geometry" />
        </mxCell>
        <mxCell id="PTf-wm_DtpIF8Ow_20YU-29" value="" style="endArrow=none;html=1;strokeWidth=3;fontSize=13;" parent="1" target="PTf-wm_DtpIF8Ow_20YU-28" edge="1">
          <mxGeometry width="50" height="50" relative="1" as="geometry">
            <mxPoint x="460" y="180" as="sourcePoint" />
            <mxPoint x="460" y="125" as="targetPoint" />
          </mxGeometry>
        </mxCell>
        <mxCell id="PTf-wm_DtpIF8Ow_20YU-30" value="" style="ellipse;whiteSpace=wrap;html=1;aspect=fixed;rounded=1;shadow=0;comic=0;strokeWidth=3;fontSize=13;fillColor=#000000;" parent="1" vertex="1">
          <mxGeometry x="395" y="215" width="10" height="10" as="geometry" />
        </mxCell>
        <mxCell id="PTf-wm_DtpIF8Ow_20YU-31" value="" style="endArrow=none;html=1;strokeWidth=3;fontSize=13;" parent="1" target="PTf-wm_DtpIF8Ow_20YU-30" edge="1">
          <mxGeometry width="50" height="50" relative="1" as="geometry">
            <mxPoint x="300" y="220" as="sourcePoint" />
            <mxPoint x="555" y="220" as="targetPoint" />
          </mxGeometry>
        </mxCell>
        <mxCell id="PTf-wm_DtpIF8Ow_20YU-32" value="" style="ellipse;whiteSpace=wrap;html=1;aspect=fixed;rounded=1;shadow=0;comic=0;strokeWidth=3;fontSize=13;fillColor=#000000;" parent="1" vertex="1">
          <mxGeometry x="595" y="175" width="10" height="10" as="geometry" />
        </mxCell>
        <mxCell id="PTf-wm_DtpIF8Ow_20YU-33" value="" style="endArrow=none;html=1;strokeWidth=3;fontSize=13;" parent="1" target="PTf-wm_DtpIF8Ow_20YU-32" edge="1">
          <mxGeometry width="50" height="50" relative="1" as="geometry">
            <mxPoint x="800" y="180" as="sourcePoint" />
            <mxPoint x="525" y="180" as="targetPoint" />
          </mxGeometry>
        </mxCell>
        <mxCell id="PTf-wm_DtpIF8Ow_20YU-34" value="" style="ellipse;whiteSpace=wrap;html=1;aspect=fixed;rounded=1;shadow=0;comic=0;strokeWidth=3;fontSize=13;fillColor=#000000;" parent="1" vertex="1">
          <mxGeometry x="615" y="215" width="10" height="10" as="geometry" />
        </mxCell>
        <mxCell id="PTf-wm_DtpIF8Ow_20YU-35" value="" style="endArrow=none;html=1;strokeWidth=3;fontSize=13;" parent="1" source="PTf-wm_DtpIF8Ow_20YU-17" target="PTf-wm_DtpIF8Ow_20YU-34" edge="1">
          <mxGeometry width="50" height="50" relative="1" as="geometry">
            <mxPoint x="565" y="220" as="sourcePoint" />
            <mxPoint x="655" y="220" as="targetPoint" />
          </mxGeometry>
        </mxCell>
        <mxCell id="PTf-wm_DtpIF8Ow_20YU-36" value="OLED显示&lt;br&gt;模块" style="rounded=1;whiteSpace=wrap;html=1;shadow=0;comic=0;strokeWidth=1;fillColor=#FFFFFF;fontSize=13;" parent="1" vertex="1">
          <mxGeometry x="680" y="100" width="100" height="40" as="geometry" />
        </mxCell>
        <mxCell id="PTf-wm_DtpIF8Ow_20YU-40" value="" style="endArrow=none;html=1;strokeWidth=3;fontSize=13;" parent="1" edge="1">
          <mxGeometry width="50" height="50" relative="1" as="geometry">
            <mxPoint x="740" y="220" as="sourcePoint" />
            <mxPoint x="740" y="140" as="targetPoint" />
          </mxGeometry>
        </mxCell>
        <mxCell id="PTf-wm_DtpIF8Ow_20YU-41" value="" style="endArrow=none;html=1;strokeWidth=3;fontSize=13;" parent="1" edge="1">
          <mxGeometry width="50" height="50" relative="1" as="geometry">
            <mxPoint x="720" y="180" as="sourcePoint" />
            <mxPoint x="720" y="140" as="targetPoint" />
          </mxGeometry>
        </mxCell>
        <mxCell id="PTf-wm_DtpIF8Ow_20YU-42" value="" style="ellipse;whiteSpace=wrap;html=1;aspect=fixed;rounded=1;shadow=0;comic=0;strokeWidth=3;fontSize=13;fillColor=#000000;" parent="1" vertex="1">
          <mxGeometry x="715" y="175" width="10" height="10" as="geometry" />
        </mxCell>
        <mxCell id="PTf-wm_DtpIF8Ow_20YU-43" value="" style="ellipse;whiteSpace=wrap;html=1;aspect=fixed;rounded=1;shadow=0;comic=0;strokeWidth=3;fontSize=13;fillColor=#000000;" parent="1" vertex="1">
          <mxGeometry x="735" y="215" width="10" height="10" as="geometry" />
        </mxCell>
        <mxCell id="PTf-wm_DtpIF8Ow_20YU-45" style="edgeStyle=orthogonalEdgeStyle;rounded=0;orthogonalLoop=1;jettySize=auto;html=1;strokeWidth=1;fontSize=13;entryX=0.5;entryY=0;entryDx=0;entryDy=0;dashed=1;" parent="1" source="PTf-wm_DtpIF8Ow_20YU-44" target="PTf-wm_DtpIF8Ow_20YU-2" edge="1">
          <mxGeometry relative="1" as="geometry">
            <mxPoint x="395" y="260" as="targetPoint" />
            <Array as="points">
              <mxPoint x="735" y="260" />
              <mxPoint x="345" y="260" />
            </Array>
          </mxGeometry>
        </mxCell>
        <mxCell id="PTf-wm_DtpIF8Ow_20YU-46" value="机电传动装置" style="edgeLabel;html=1;align=center;verticalAlign=middle;resizable=0;points=[];fontSize=13;" parent="PTf-wm_DtpIF8Ow_20YU-45" vertex="1" connectable="0">
          <mxGeometry x="0.5671" y="-1" relative="1" as="geometry">
            <mxPoint x="40.480000000000004" y="-9" as="offset" />
          </mxGeometry>
        </mxCell>
        <mxCell id="PTf-wm_DtpIF8Ow_20YU-44" value="" style="rounded=1;whiteSpace=wrap;html=1;shadow=0;comic=0;strokeWidth=1;fillColor=none;fontSize=13;dashed=1;" parent="1" vertex="1">
          <mxGeometry x="675" y="300" width="120" height="25" as="geometry" />
        </mxCell>
        <mxCell id="PTf-wm_DtpIF8Ow_20YU-53" value="" style="endArrow=classic;html=1;strokeWidth=3;fontSize=13;entryX=0;entryY=0.5;entryDx=0;entryDy=0;" parent="1" target="PTf-wm_DtpIF8Ow_20YU-7" edge="1">
          <mxGeometry width="50" height="50" relative="1" as="geometry">
            <mxPoint x="620" y="320" as="sourcePoint" />
            <mxPoint x="575" y="280" as="targetPoint" />
            <Array as="points">
              <mxPoint x="620" y="360" />
            </Array>
          </mxGeometry>
        </mxCell>
        <mxCell id="PTf-wm_DtpIF8Ow_20YU-54" value="" style="endArrow=classic;html=1;strokeWidth=3;fontSize=13;entryX=0;entryY=0.5;entryDx=0;entryDy=0;" parent="1" edge="1">
          <mxGeometry width="50" height="50" relative="1" as="geometry">
            <mxPoint x="620" y="345" as="sourcePoint" />
            <mxPoint x="670" y="410" as="targetPoint" />
            <Array as="points">
              <mxPoint x="620" y="410" />
            </Array>
          </mxGeometry>
        </mxCell>
        <mxCell id="PTf-wm_DtpIF8Ow_20YU-55" value="" style="shape=image;html=1;verticalLabelPosition=bottom;labelBackgroundColor=#ffffff;verticalAlign=top;imageAspect=0;image=img/clipart/Gear_128x128.png;rounded=0;shadow=0;dashed=1;comic=0;strokeWidth=1;fillColor=none;fontSize=12;" parent="1" vertex="1">
          <mxGeometry x="395" y="240" width="20" height="20" as="geometry" />
        </mxCell>
        <mxCell id="PTf-wm_DtpIF8Ow_20YU-58" value="" style="shape=mxgraph.signs.tech.rss;html=1;pointerEvents=1;fillColor=#000000;strokeColor=none;verticalLabelPosition=bottom;verticalAlign=top;align=center;rounded=0;shadow=0;dashed=1;comic=0;fontSize=12;rotation=-45;" parent="1" vertex="1">
          <mxGeometry x="545" y="370" width="23" height="24" as="geometry" />
        </mxCell>
        <mxCell id="PTf-wm_DtpIF8Ow_20YU-60" value="AP+STA" style="text;html=1;strokeColor=none;fillColor=none;align=center;verticalAlign=middle;whiteSpace=wrap;rounded=0;shadow=0;dashed=1;comic=0;fontSize=12;" parent="1" vertex="1">
          <mxGeometry x="495" y="379" width="40" height="20" as="geometry" />
        </mxCell>
        <mxCell id="PTf-wm_DtpIF8Ow_20YU-61" value="" style="rounded=1;whiteSpace=wrap;html=1;shadow=0;dashed=1;comic=0;strokeWidth=1;fillColor=none;fontSize=12;" parent="1" vertex="1">
          <mxGeometry x="490" y="370" width="85" height="30" as="geometry" />
        </mxCell>
        <mxCell id="PTf-wm_DtpIF8Ow_20YU-71" value="" style="aspect=fixed;pointerEvents=1;shadow=0;dashed=0;html=1;strokeColor=none;labelPosition=center;verticalLabelPosition=bottom;verticalAlign=top;align=center;fillColor=#000;shape=mxgraph.mscae.enterprise.internet_hollow;rounded=0;comic=0;fontSize=12;" parent="1" vertex="1">
          <mxGeometry x="465.48" y="455" width="129.04" height="80" as="geometry" />
        </mxCell>
        <mxCell id="PTf-wm_DtpIF8Ow_20YU-73" value="" style="endArrow=async;html=1;strokeWidth=2;fontSize=12;endFill=0;dashed=1;" parent="1" edge="1">
          <mxGeometry width="50" height="50" relative="1" as="geometry">
            <mxPoint x="525" y="445" as="sourcePoint" />
            <mxPoint x="525" y="405" as="targetPoint" />
          </mxGeometry>
        </mxCell>
        <mxCell id="PTf-wm_DtpIF8Ow_20YU-74" value="" style="endArrow=async;html=1;strokeWidth=2;fontSize=12;endFill=0;dashed=1;" parent="1" edge="1">
          <mxGeometry width="50" height="50" relative="1" as="geometry">
            <mxPoint x="535" y="405" as="sourcePoint" />
            <mxPoint x="535" y="445" as="targetPoint" />
          </mxGeometry>
        </mxCell>
        <mxCell id="PTf-wm_DtpIF8Ow_20YU-75" value="&#xa;&#xa;&lt;b style=&quot;color: rgb(0, 0, 0); font-family: helvetica; font-size: 13px; font-style: normal; letter-spacing: normal; text-align: center; text-indent: 0px; text-transform: none; word-spacing: 0px; background-color: rgb(248, 249, 250);&quot;&gt;阿里云IoT&lt;/b&gt;&#xa;&#xa;" style="text;html=1;strokeColor=none;fillColor=none;align=center;verticalAlign=middle;whiteSpace=wrap;rounded=0;shadow=0;dashed=1;comic=0;fontSize=12;" parent="1" vertex="1">
          <mxGeometry x="490" y="495" width="85" height="20" as="geometry" />
        </mxCell>
        <mxCell id="PTf-wm_DtpIF8Ow_20YU-77" value="" style="endArrow=async;html=1;strokeWidth=2;fontSize=12;endFill=0;dashed=1;" parent="1" edge="1">
          <mxGeometry width="50" height="50" relative="1" as="geometry">
            <mxPoint x="459.6" y="520" as="sourcePoint" />
            <mxPoint x="425" y="520" as="targetPoint" />
          </mxGeometry>
        </mxCell>
        <mxCell id="PTf-wm_DtpIF8Ow_20YU-78" value="" style="endArrow=async;html=1;strokeWidth=2;fontSize=12;endFill=0;dashed=1;" parent="1" edge="1">
          <mxGeometry width="50" height="50" relative="1" as="geometry">
            <mxPoint x="425" y="510" as="sourcePoint" />
            <mxPoint x="460" y="510" as="targetPoint" />
          </mxGeometry>
        </mxCell>
        <mxCell id="PTf-wm_DtpIF8Ow_20YU-79" value="" style="endArrow=async;html=1;strokeWidth=2;fontSize=12;endFill=0;dashed=1;" parent="1" edge="1">
          <mxGeometry width="50" height="50" relative="1" as="geometry">
            <mxPoint x="639.6" y="514.6" as="sourcePoint" />
            <mxPoint x="605" y="514.6" as="targetPoint" />
          </mxGeometry>
        </mxCell>
        <mxCell id="PTf-wm_DtpIF8Ow_20YU-80" value="" style="endArrow=async;html=1;strokeWidth=2;fontSize=12;endFill=0;dashed=1;" parent="1" edge="1">
          <mxGeometry width="50" height="50" relative="1" as="geometry">
            <mxPoint x="605" y="504.6" as="sourcePoint" />
            <mxPoint x="640" y="504.6" as="targetPoint" />
          </mxGeometry>
        </mxCell>
        <mxCell id="PTf-wm_DtpIF8Ow_20YU-81" value="控制终端&lt;br&gt;微信小程序" style="text;html=1;strokeColor=none;fillColor=none;align=center;verticalAlign=middle;whiteSpace=wrap;rounded=0;shadow=0;dashed=1;comic=0;fontSize=12;" parent="1" vertex="1">
          <mxGeometry x="300" y="478" width="75" height="44" as="geometry" />
        </mxCell>
        <mxCell id="PTf-wm_DtpIF8Ow_20YU-84" value="" style="aspect=fixed;html=1;points=[];align=center;image;fontSize=12;image=img/lib/mscae/Devices_Groups.svg;rounded=0;shadow=0;dashed=1;comic=0;strokeWidth=1;fillColor=#000;" parent="1" vertex="1">
          <mxGeometry x="620" y="690" width="50" height="50" as="geometry" />
        </mxCell>
        <mxCell id="PTf-wm_DtpIF8Ow_20YU-91" value="" style="fillColor=#36B37E;strokeColor=none;rounded=1;arcSize=50;shadow=0;dashed=1;comic=0;fontSize=12;" parent="1" vertex="1">
          <mxGeometry x="325" y="515" width="30" height="16" as="geometry" />
        </mxCell>
        <mxCell id="PTf-wm_DtpIF8Ow_20YU-92" value="" style="shape=ellipse;strokeColor=none;fillColor=#ffffff" parent="PTf-wm_DtpIF8Ow_20YU-91" vertex="1">
          <mxGeometry x="1" y="0.5" width="12" height="12" relative="1" as="geometry">
            <mxPoint x="-14" y="-6" as="offset" />
          </mxGeometry>
        </mxCell>
        <mxCell id="PTf-wm_DtpIF8Ow_20YU-93" value="" style="html=1;shadow=0;dashed=0;shape=mxgraph.atlassian.check;strokeColor=#ffffff" parent="PTf-wm_DtpIF8Ow_20YU-91" vertex="1">
          <mxGeometry y="0.5" width="6" height="5" relative="1" as="geometry">
            <mxPoint x="4" y="-3" as="offset" />
          </mxGeometry>
        </mxCell>
        <mxCell id="PTf-wm_DtpIF8Ow_20YU-95" value="" style="outlineConnect=0;fontColor=#232F3E;gradientColor=none;fillColor=#232F3E;strokeColor=none;dashed=0;verticalLabelPosition=bottom;verticalAlign=top;align=center;html=1;fontSize=12;fontStyle=0;aspect=fixed;pointerEvents=1;shape=mxgraph.aws4.client;rounded=0;shadow=0;comic=0;" parent="1" vertex="1">
          <mxGeometry x="650" y="464.44" width="63" height="61.38" as="geometry" />
        </mxCell>
        <mxCell id="PTf-wm_DtpIF8Ow_20YU-96" value="服务器端&lt;br&gt;账户设备管理" style="text;html=1;strokeColor=none;fillColor=none;align=center;verticalAlign=middle;whiteSpace=wrap;rounded=0;shadow=0;dashed=1;comic=0;fontSize=12;" parent="1" vertex="1">
          <mxGeometry x="720" y="475" width="80" height="40" as="geometry" />
        </mxCell>
        <mxCell id="PTf-wm_DtpIF8Ow_20YU-97" value="sever" style="text;html=1;strokeColor=none;fillColor=none;align=center;verticalAlign=middle;whiteSpace=wrap;rounded=0;shadow=0;dashed=1;comic=0;fontSize=12;" parent="1" vertex="1">
          <mxGeometry x="661.5" y="475" width="40" height="20" as="geometry" />
        </mxCell>
        <mxCell id="PTf-wm_DtpIF8Ow_20YU-98" value="" style="endArrow=async;html=1;strokeWidth=2;fontSize=12;endFill=0;dashed=1;" parent="1" edge="1">
          <mxGeometry width="50" height="50" relative="1" as="geometry">
            <mxPoint x="420" y="480" as="sourcePoint" />
            <mxPoint x="495" y="405" as="targetPoint" />
          </mxGeometry>
        </mxCell>
        <mxCell id="PTf-wm_DtpIF8Ow_20YU-99" value="" style="endArrow=async;html=1;strokeWidth=2;fontSize=12;endFill=0;dashed=1;" parent="1" edge="1">
          <mxGeometry width="50" height="50" relative="1" as="geometry">
            <mxPoint x="500" y="410" as="sourcePoint" />
            <mxPoint x="425" y="485" as="targetPoint" />
          </mxGeometry>
        </mxCell>
        <mxCell id="PTf-wm_DtpIF8Ow_20YU-100" value="" style="outlineConnect=0;gradientColor=none;fontColor=#545B64;strokeColor=none;fillColor=#000000;dashed=0;verticalLabelPosition=bottom;verticalAlign=top;align=center;html=1;fontSize=12;fontStyle=0;aspect=fixed;shape=mxgraph.aws4.illustration_devices;pointerEvents=1;rounded=0;shadow=0;comic=0;" parent="1" vertex="1">
          <mxGeometry x="365" y="490.84999999999997" width="55" height="40.15" as="geometry" />
        </mxCell>
        <mxCell id="PTf-wm_DtpIF8Ow_20YU-102" value="" style="outlineConnect=0;fontColor=#232F3E;gradientColor=none;fillColor=#000000;strokeColor=none;dashed=0;verticalLabelPosition=bottom;verticalAlign=top;align=center;html=1;fontSize=12;fontStyle=0;aspect=fixed;pointerEvents=1;shape=mxgraph.aws4.instance_with_cloudwatch2;rounded=0;shadow=0;comic=0;" parent="1" vertex="1">
          <mxGeometry x="475" y="295" width="25.48" height="25.48" as="geometry" />
        </mxCell>
        <mxCell id="PTf-wm_DtpIF8Ow_20YU-104" value="&lt;br&gt;&lt;span style=&quot;font-size: 10px&quot;&gt;&lt;br&gt;&lt;/span&gt;" style="aspect=fixed;pointerEvents=1;shadow=0;dashed=0;html=1;strokeColor=none;labelPosition=center;verticalLabelPosition=bottom;verticalAlign=top;align=center;fillColor=#000000;shape=mxgraph.mscae.enterprise.router;rounded=0;comic=0;fontSize=12;" parent="1" vertex="1">
          <mxGeometry x="437.5" y="414" width="25" height="19.5" as="geometry" />
        </mxCell>
        <mxCell id="PTf-wm_DtpIF8Ow_20YU-107" value="router" style="text;html=1;strokeColor=none;fillColor=none;align=center;verticalAlign=middle;whiteSpace=wrap;rounded=0;shadow=0;dashed=1;comic=0;fontSize=10;" parent="1" vertex="1">
          <mxGeometry x="430" y="394" width="40" height="20" as="geometry" />
        </mxCell>
        <mxCell id="PTf-wm_DtpIF8Ow_20YU-110" value="AirKiss" style="text;html=1;strokeColor=none;fillColor=none;align=center;verticalAlign=middle;whiteSpace=wrap;rounded=0;shadow=0;dashed=1;comic=0;fontSize=12;rotation=-45;" parent="1" vertex="1">
          <mxGeometry x="450" y="450" width="40" height="20" as="geometry" />
        </mxCell>
      </root>
    </mxGraphModel>
  </diagram>
  <diagram id="V4dczpNtQDgTEgiFYD9D" name="第 2 页">
    <mxGraphModel dx="1038" dy="568" grid="0" gridSize="10" guides="0" tooltips="1" connect="0" arrows="0" fold="1" page="1" pageScale="1" pageWidth="827" pageHeight="1169" math="0" shadow="0">
      <root>
        <mxCell id="K79jzFuccfJX-m8LmFL6-0" />
        <mxCell id="K79jzFuccfJX-m8LmFL6-1" parent="K79jzFuccfJX-m8LmFL6-0" />
        <mxCell id="K79jzFuccfJX-m8LmFL6-2" value="PWM" style="edgeStyle=orthogonalEdgeStyle;rounded=0;orthogonalLoop=1;jettySize=auto;html=1;strokeWidth=3;" edge="1" parent="K79jzFuccfJX-m8LmFL6-1" source="K79jzFuccfJX-m8LmFL6-5" target="K79jzFuccfJX-m8LmFL6-6">
          <mxGeometry x="-0.25" y="-10" relative="1" as="geometry">
            <mxPoint as="offset" />
          </mxGeometry>
        </mxCell>
        <mxCell id="K79jzFuccfJX-m8LmFL6-3" value="&lt;font style=&quot;font-size: 12px;&quot;&gt;I/O&lt;/font&gt;" style="edgeStyle=orthogonalEdgeStyle;rounded=0;orthogonalLoop=1;jettySize=auto;html=1;strokeWidth=3;fontSize=12;" edge="1" parent="K79jzFuccfJX-m8LmFL6-1" source="K79jzFuccfJX-m8LmFL6-5">
          <mxGeometry x="-0.625" y="10" relative="1" as="geometry">
            <mxPoint x="530" y="390" as="targetPoint" />
            <mxPoint as="offset" />
          </mxGeometry>
        </mxCell>
        <mxCell id="K79jzFuccfJX-m8LmFL6-4" style="edgeStyle=orthogonalEdgeStyle;rounded=0;orthogonalLoop=1;jettySize=auto;html=1;exitX=0.5;exitY=1;exitDx=0;exitDy=0;entryX=0.471;entryY=0.019;entryDx=0;entryDy=0;entryPerimeter=0;strokeWidth=1;fontSize=12;" edge="1" parent="K79jzFuccfJX-m8LmFL6-1" source="K79jzFuccfJX-m8LmFL6-5" target="K79jzFuccfJX-m8LmFL6-47">
          <mxGeometry relative="1" as="geometry" />
        </mxCell>
        <mxCell id="K79jzFuccfJX-m8LmFL6-5" value="&lt;font style=&quot;font-size: 16px&quot;&gt;&lt;b style=&quot;font-size: 19px&quot;&gt;MCU&lt;/b&gt;&lt;br&gt;ESP8266模组&lt;/font&gt;" style="rounded=1;whiteSpace=wrap;html=1;" vertex="1" parent="K79jzFuccfJX-m8LmFL6-1">
          <mxGeometry x="330" y="360" width="120" height="60" as="geometry" />
        </mxCell>
        <mxCell id="K79jzFuccfJX-m8LmFL6-6" value="&lt;span style=&quot;font-size: 19px&quot;&gt;&lt;b&gt;舵机单元&lt;/b&gt;&lt;/span&gt;" style="rounded=1;whiteSpace=wrap;html=1;" vertex="1" parent="K79jzFuccfJX-m8LmFL6-1">
          <mxGeometry x="160" y="360" width="90" height="60" as="geometry" />
        </mxCell>
        <mxCell id="K79jzFuccfJX-m8LmFL6-8" value="&lt;table border=&quot;1&quot; width=&quot;100%&quot; cellpadding=&quot;4&quot; style=&quot;width: 100% ; height: 100% ; border-collapse: collapse&quot;&gt;&lt;tbody&gt;&lt;tr&gt;&lt;th align=&quot;center&quot;&gt;&lt;b&gt;步进电机驱动模块&lt;/b&gt;&lt;/th&gt;&lt;/tr&gt;&lt;tr&gt;&lt;td align=&quot;center&quot;&gt;&lt;b&gt;声光模块&lt;/b&gt;&lt;br&gt;&lt;/td&gt;&lt;/tr&gt;&lt;tr&gt;&lt;td align=&quot;center&quot;&gt;&lt;b&gt;按键模块&lt;/b&gt;&lt;br&gt;&lt;/td&gt;&lt;/tr&gt;&lt;/tbody&gt;&lt;/table&gt;" style="text;html=1;strokeColor=none;fillColor=none;overflow=fill;fontSize=13;strokeWidth=3;rounded=0;shadow=0;comic=0;arcSize=50;absoluteArcSize=0;autosize=0;" vertex="1" parent="K79jzFuccfJX-m8LmFL6-1">
          <mxGeometry x="530" y="360" width="130" height="140" as="geometry" />
        </mxCell>
        <mxCell id="K79jzFuccfJX-m8LmFL6-9" value="" style="endArrow=none;html=1;strokeWidth=3;fontSize=13;" edge="1" parent="K79jzFuccfJX-m8LmFL6-1">
          <mxGeometry width="50" height="50" relative="1" as="geometry">
            <mxPoint x="420" y="360" as="sourcePoint" />
            <mxPoint x="420" y="290" as="targetPoint" />
          </mxGeometry>
        </mxCell>
        <mxCell id="K79jzFuccfJX-m8LmFL6-10" value="" style="endArrow=none;html=1;strokeWidth=3;fontSize=13;" edge="1" parent="K79jzFuccfJX-m8LmFL6-1">
          <mxGeometry width="50" height="50" relative="1" as="geometry">
            <mxPoint x="380" y="360" as="sourcePoint" />
            <mxPoint x="380" y="250" as="targetPoint" />
          </mxGeometry>
        </mxCell>
        <mxCell id="K79jzFuccfJX-m8LmFL6-11" value="&lt;b&gt;&lt;font style=&quot;font-size: 14px&quot;&gt;IIC&lt;/font&gt;&lt;/b&gt;" style="text;html=1;strokeColor=none;fillColor=none;align=center;verticalAlign=middle;whiteSpace=wrap;rounded=0;shadow=1;comic=0;fontSize=13;" vertex="1" parent="K79jzFuccfJX-m8LmFL6-1">
          <mxGeometry x="380" y="300" width="40" height="20" as="geometry" />
        </mxCell>
        <mxCell id="K79jzFuccfJX-m8LmFL6-12" value="" style="endArrow=none;html=1;strokeWidth=3;fontSize=13;" edge="1" parent="K79jzFuccfJX-m8LmFL6-1" source="K79jzFuccfJX-m8LmFL6-14">
          <mxGeometry width="50" height="50" relative="1" as="geometry">
            <mxPoint x="520" y="250" as="sourcePoint" />
            <mxPoint x="160" y="250" as="targetPoint" />
          </mxGeometry>
        </mxCell>
        <mxCell id="K79jzFuccfJX-m8LmFL6-13" value="" style="endArrow=none;html=1;strokeWidth=3;fontSize=13;" edge="1" parent="K79jzFuccfJX-m8LmFL6-1" source="K79jzFuccfJX-m8LmFL6-32">
          <mxGeometry width="50" height="50" relative="1" as="geometry">
            <mxPoint x="260" y="290" as="sourcePoint" />
            <mxPoint x="660" y="290" as="targetPoint" />
          </mxGeometry>
        </mxCell>
        <mxCell id="K79jzFuccfJX-m8LmFL6-14" value="" style="ellipse;whiteSpace=wrap;html=1;aspect=fixed;rounded=1;shadow=0;comic=0;strokeWidth=3;fontSize=13;fillColor=#000000;" vertex="1" parent="K79jzFuccfJX-m8LmFL6-1">
          <mxGeometry x="375" y="245" width="10" height="10" as="geometry" />
        </mxCell>
        <mxCell id="K79jzFuccfJX-m8LmFL6-15" value="" style="endArrow=none;html=1;strokeWidth=3;fontSize=13;" edge="1" parent="K79jzFuccfJX-m8LmFL6-1" source="K79jzFuccfJX-m8LmFL6-30" target="K79jzFuccfJX-m8LmFL6-14">
          <mxGeometry width="50" height="50" relative="1" as="geometry">
            <mxPoint x="520" y="250" as="sourcePoint" />
            <mxPoint x="260" y="250" as="targetPoint" />
          </mxGeometry>
        </mxCell>
        <mxCell id="K79jzFuccfJX-m8LmFL6-16" value="" style="ellipse;whiteSpace=wrap;html=1;aspect=fixed;rounded=1;shadow=0;comic=0;strokeWidth=3;fontSize=13;fillColor=#000000;" vertex="1" parent="K79jzFuccfJX-m8LmFL6-1">
          <mxGeometry x="415" y="285" width="10" height="10" as="geometry" />
        </mxCell>
        <mxCell id="K79jzFuccfJX-m8LmFL6-17" value="" style="endArrow=none;html=1;strokeWidth=3;fontSize=13;" edge="1" parent="K79jzFuccfJX-m8LmFL6-1" source="K79jzFuccfJX-m8LmFL6-28" target="K79jzFuccfJX-m8LmFL6-16">
          <mxGeometry width="50" height="50" relative="1" as="geometry">
            <mxPoint x="260" y="290" as="sourcePoint" />
            <mxPoint x="515" y="290" as="targetPoint" />
          </mxGeometry>
        </mxCell>
        <mxCell id="K79jzFuccfJX-m8LmFL6-18" value="SCL" style="text;html=1;strokeColor=none;fillColor=none;align=center;verticalAlign=middle;whiteSpace=wrap;rounded=0;shadow=0;comic=0;fontSize=13;" vertex="1" parent="K79jzFuccfJX-m8LmFL6-1">
          <mxGeometry x="160" y="230" width="40" height="20" as="geometry" />
        </mxCell>
        <mxCell id="K79jzFuccfJX-m8LmFL6-19" value="SDA" style="text;html=1;strokeColor=none;fillColor=none;align=center;verticalAlign=middle;whiteSpace=wrap;rounded=0;shadow=0;comic=0;fontSize=13;" vertex="1" parent="K79jzFuccfJX-m8LmFL6-1">
          <mxGeometry x="160" y="270" width="40" height="20" as="geometry" />
        </mxCell>
        <mxCell id="K79jzFuccfJX-m8LmFL6-20" value="超声波测距&lt;br&gt;模块" style="rounded=1;whiteSpace=wrap;html=1;shadow=0;comic=0;strokeWidth=1;fillColor=#FFFFFF;fontSize=13;" vertex="1" parent="K79jzFuccfJX-m8LmFL6-1">
          <mxGeometry x="200" y="170" width="100" height="40" as="geometry" />
        </mxCell>
        <mxCell id="K79jzFuccfJX-m8LmFL6-21" value="电源管理&lt;br&gt;模块" style="rounded=1;whiteSpace=wrap;html=1;shadow=0;comic=0;strokeWidth=1;fillColor=#FFFFFF;fontSize=13;" vertex="1" parent="K79jzFuccfJX-m8LmFL6-1">
          <mxGeometry x="420" y="170" width="100" height="40" as="geometry" />
        </mxCell>
        <mxCell id="K79jzFuccfJX-m8LmFL6-22" value="" style="endArrow=none;html=1;strokeWidth=3;fontSize=13;" edge="1" parent="K79jzFuccfJX-m8LmFL6-1" source="K79jzFuccfJX-m8LmFL6-26">
          <mxGeometry width="50" height="50" relative="1" as="geometry">
            <mxPoint x="240" y="250" as="sourcePoint" />
            <mxPoint x="240" y="210" as="targetPoint" />
          </mxGeometry>
        </mxCell>
        <mxCell id="K79jzFuccfJX-m8LmFL6-23" value="" style="endArrow=none;html=1;strokeWidth=3;fontSize=13;" edge="1" parent="K79jzFuccfJX-m8LmFL6-1">
          <mxGeometry width="50" height="50" relative="1" as="geometry">
            <mxPoint x="260" y="290" as="sourcePoint" />
            <mxPoint x="260" y="210" as="targetPoint" />
          </mxGeometry>
        </mxCell>
        <mxCell id="K79jzFuccfJX-m8LmFL6-24" value="" style="endArrow=none;html=1;strokeWidth=3;fontSize=13;" edge="1" parent="K79jzFuccfJX-m8LmFL6-1">
          <mxGeometry width="50" height="50" relative="1" as="geometry">
            <mxPoint x="480" y="290" as="sourcePoint" />
            <mxPoint x="480" y="210" as="targetPoint" />
          </mxGeometry>
        </mxCell>
        <mxCell id="K79jzFuccfJX-m8LmFL6-25" value="" style="endArrow=none;html=1;strokeWidth=3;fontSize=13;" edge="1" parent="K79jzFuccfJX-m8LmFL6-1">
          <mxGeometry width="50" height="50" relative="1" as="geometry">
            <mxPoint x="460" y="250" as="sourcePoint" />
            <mxPoint x="460" y="210" as="targetPoint" />
          </mxGeometry>
        </mxCell>
        <mxCell id="K79jzFuccfJX-m8LmFL6-26" value="" style="ellipse;whiteSpace=wrap;html=1;aspect=fixed;rounded=1;shadow=0;comic=0;strokeWidth=3;fontSize=13;fillColor=#000000;" vertex="1" parent="K79jzFuccfJX-m8LmFL6-1">
          <mxGeometry x="235" y="245" width="10" height="10" as="geometry" />
        </mxCell>
        <mxCell id="K79jzFuccfJX-m8LmFL6-27" value="" style="endArrow=none;html=1;strokeWidth=3;fontSize=13;" edge="1" parent="K79jzFuccfJX-m8LmFL6-1" target="K79jzFuccfJX-m8LmFL6-26">
          <mxGeometry width="50" height="50" relative="1" as="geometry">
            <mxPoint x="320" y="250" as="sourcePoint" />
            <mxPoint x="320" y="195" as="targetPoint" />
          </mxGeometry>
        </mxCell>
        <mxCell id="K79jzFuccfJX-m8LmFL6-28" value="" style="ellipse;whiteSpace=wrap;html=1;aspect=fixed;rounded=1;shadow=0;comic=0;strokeWidth=3;fontSize=13;fillColor=#000000;" vertex="1" parent="K79jzFuccfJX-m8LmFL6-1">
          <mxGeometry x="255" y="285" width="10" height="10" as="geometry" />
        </mxCell>
        <mxCell id="K79jzFuccfJX-m8LmFL6-29" value="" style="endArrow=none;html=1;strokeWidth=3;fontSize=13;" edge="1" parent="K79jzFuccfJX-m8LmFL6-1" target="K79jzFuccfJX-m8LmFL6-28">
          <mxGeometry width="50" height="50" relative="1" as="geometry">
            <mxPoint x="160" y="290" as="sourcePoint" />
            <mxPoint x="415" y="290" as="targetPoint" />
          </mxGeometry>
        </mxCell>
        <mxCell id="K79jzFuccfJX-m8LmFL6-30" value="" style="ellipse;whiteSpace=wrap;html=1;aspect=fixed;rounded=1;shadow=0;comic=0;strokeWidth=3;fontSize=13;fillColor=#000000;" vertex="1" parent="K79jzFuccfJX-m8LmFL6-1">
          <mxGeometry x="455" y="245" width="10" height="10" as="geometry" />
        </mxCell>
        <mxCell id="K79jzFuccfJX-m8LmFL6-31" value="" style="endArrow=none;html=1;strokeWidth=3;fontSize=13;" edge="1" parent="K79jzFuccfJX-m8LmFL6-1" target="K79jzFuccfJX-m8LmFL6-30">
          <mxGeometry width="50" height="50" relative="1" as="geometry">
            <mxPoint x="660" y="250" as="sourcePoint" />
            <mxPoint x="385" y="250" as="targetPoint" />
          </mxGeometry>
        </mxCell>
        <mxCell id="K79jzFuccfJX-m8LmFL6-32" value="" style="ellipse;whiteSpace=wrap;html=1;aspect=fixed;rounded=1;shadow=0;comic=0;strokeWidth=3;fontSize=13;fillColor=#000000;" vertex="1" parent="K79jzFuccfJX-m8LmFL6-1">
          <mxGeometry x="475" y="285" width="10" height="10" as="geometry" />
        </mxCell>
        <mxCell id="K79jzFuccfJX-m8LmFL6-33" value="" style="endArrow=none;html=1;strokeWidth=3;fontSize=13;" edge="1" parent="K79jzFuccfJX-m8LmFL6-1" source="K79jzFuccfJX-m8LmFL6-16" target="K79jzFuccfJX-m8LmFL6-32">
          <mxGeometry width="50" height="50" relative="1" as="geometry">
            <mxPoint x="425" y="290" as="sourcePoint" />
            <mxPoint x="515" y="290" as="targetPoint" />
          </mxGeometry>
        </mxCell>
        <mxCell id="K79jzFuccfJX-m8LmFL6-34" value="OLED显示&lt;br&gt;模块" style="rounded=1;whiteSpace=wrap;html=1;shadow=0;comic=0;strokeWidth=1;fillColor=#FFFFFF;fontSize=13;" vertex="1" parent="K79jzFuccfJX-m8LmFL6-1">
          <mxGeometry x="540" y="170" width="100" height="40" as="geometry" />
        </mxCell>
        <mxCell id="K79jzFuccfJX-m8LmFL6-35" value="" style="endArrow=none;html=1;strokeWidth=3;fontSize=13;" edge="1" parent="K79jzFuccfJX-m8LmFL6-1">
          <mxGeometry width="50" height="50" relative="1" as="geometry">
            <mxPoint x="600" y="290" as="sourcePoint" />
            <mxPoint x="600" y="210" as="targetPoint" />
          </mxGeometry>
        </mxCell>
        <mxCell id="K79jzFuccfJX-m8LmFL6-36" value="" style="endArrow=none;html=1;strokeWidth=3;fontSize=13;" edge="1" parent="K79jzFuccfJX-m8LmFL6-1">
          <mxGeometry width="50" height="50" relative="1" as="geometry">
            <mxPoint x="580" y="250" as="sourcePoint" />
            <mxPoint x="580" y="210" as="targetPoint" />
          </mxGeometry>
        </mxCell>
        <mxCell id="K79jzFuccfJX-m8LmFL6-37" value="" style="ellipse;whiteSpace=wrap;html=1;aspect=fixed;rounded=1;shadow=0;comic=0;strokeWidth=3;fontSize=13;fillColor=#000000;" vertex="1" parent="K79jzFuccfJX-m8LmFL6-1">
          <mxGeometry x="575" y="245" width="10" height="10" as="geometry" />
        </mxCell>
        <mxCell id="K79jzFuccfJX-m8LmFL6-38" value="" style="ellipse;whiteSpace=wrap;html=1;aspect=fixed;rounded=1;shadow=0;comic=0;strokeWidth=3;fontSize=13;fillColor=#000000;" vertex="1" parent="K79jzFuccfJX-m8LmFL6-1">
          <mxGeometry x="595" y="285" width="10" height="10" as="geometry" />
        </mxCell>
        <mxCell id="K79jzFuccfJX-m8LmFL6-39" style="edgeStyle=orthogonalEdgeStyle;rounded=0;orthogonalLoop=1;jettySize=auto;html=1;strokeWidth=1;fontSize=13;entryX=0.5;entryY=0;entryDx=0;entryDy=0;dashed=1;" edge="1" parent="K79jzFuccfJX-m8LmFL6-1" source="K79jzFuccfJX-m8LmFL6-41" target="K79jzFuccfJX-m8LmFL6-6">
          <mxGeometry relative="1" as="geometry">
            <mxPoint x="255" y="330" as="targetPoint" />
            <Array as="points">
              <mxPoint x="595" y="330" />
              <mxPoint x="205" y="330" />
            </Array>
          </mxGeometry>
        </mxCell>
        <mxCell id="K79jzFuccfJX-m8LmFL6-40" value="机电传动装置" style="edgeLabel;html=1;align=center;verticalAlign=middle;resizable=0;points=[];fontSize=13;" vertex="1" connectable="0" parent="K79jzFuccfJX-m8LmFL6-39">
          <mxGeometry x="0.5671" y="-1" relative="1" as="geometry">
            <mxPoint x="40.480000000000004" y="-9" as="offset" />
          </mxGeometry>
        </mxCell>
        <mxCell id="K79jzFuccfJX-m8LmFL6-41" value="" style="rounded=1;whiteSpace=wrap;html=1;shadow=0;comic=0;strokeWidth=1;fillColor=none;fontSize=13;dashed=1;" vertex="1" parent="K79jzFuccfJX-m8LmFL6-1">
          <mxGeometry x="535" y="370" width="120" height="25" as="geometry" />
        </mxCell>
        <mxCell id="K79jzFuccfJX-m8LmFL6-42" value="" style="endArrow=classic;html=1;strokeWidth=3;fontSize=13;entryX=0;entryY=0.5;entryDx=0;entryDy=0;" edge="1" parent="K79jzFuccfJX-m8LmFL6-1" target="K79jzFuccfJX-m8LmFL6-8">
          <mxGeometry width="50" height="50" relative="1" as="geometry">
            <mxPoint x="480" y="390" as="sourcePoint" />
            <mxPoint x="435" y="350" as="targetPoint" />
            <Array as="points">
              <mxPoint x="480" y="430" />
            </Array>
          </mxGeometry>
        </mxCell>
        <mxCell id="K79jzFuccfJX-m8LmFL6-43" value="" style="endArrow=classic;html=1;strokeWidth=3;fontSize=13;entryX=0;entryY=0.5;entryDx=0;entryDy=0;" edge="1" parent="K79jzFuccfJX-m8LmFL6-1">
          <mxGeometry width="50" height="50" relative="1" as="geometry">
            <mxPoint x="480" y="415" as="sourcePoint" />
            <mxPoint x="530" y="480" as="targetPoint" />
            <Array as="points">
              <mxPoint x="480" y="480" />
            </Array>
          </mxGeometry>
        </mxCell>
        <mxCell id="K79jzFuccfJX-m8LmFL6-44" value="" style="shape=image;html=1;verticalLabelPosition=bottom;labelBackgroundColor=#ffffff;verticalAlign=top;imageAspect=0;image=img/clipart/Gear_128x128.png;rounded=0;shadow=0;dashed=1;comic=0;strokeWidth=1;fillColor=none;fontSize=12;" vertex="1" parent="K79jzFuccfJX-m8LmFL6-1">
          <mxGeometry x="255" y="310" width="20" height="20" as="geometry" />
        </mxCell>
        <mxCell id="K79jzFuccfJX-m8LmFL6-45" value="" style="shape=mxgraph.signs.tech.rss;html=1;pointerEvents=1;fillColor=#000000;strokeColor=none;verticalLabelPosition=bottom;verticalAlign=top;align=center;rounded=0;shadow=0;dashed=1;comic=0;fontSize=12;rotation=-45;" vertex="1" parent="K79jzFuccfJX-m8LmFL6-1">
          <mxGeometry x="405" y="440" width="23" height="24" as="geometry" />
        </mxCell>
        <mxCell id="K79jzFuccfJX-m8LmFL6-46" value="AP+STA" style="text;html=1;strokeColor=none;fillColor=none;align=center;verticalAlign=middle;whiteSpace=wrap;rounded=0;shadow=0;dashed=1;comic=0;fontSize=12;" vertex="1" parent="K79jzFuccfJX-m8LmFL6-1">
          <mxGeometry x="355" y="449" width="40" height="20" as="geometry" />
        </mxCell>
        <mxCell id="K79jzFuccfJX-m8LmFL6-47" value="" style="rounded=1;whiteSpace=wrap;html=1;shadow=0;dashed=1;comic=0;strokeWidth=1;fillColor=none;fontSize=12;" vertex="1" parent="K79jzFuccfJX-m8LmFL6-1">
          <mxGeometry x="350" y="440" width="85" height="30" as="geometry" />
        </mxCell>
        <mxCell id="K79jzFuccfJX-m8LmFL6-48" value="" style="aspect=fixed;pointerEvents=1;shadow=0;dashed=0;html=1;strokeColor=none;labelPosition=center;verticalLabelPosition=bottom;verticalAlign=top;align=center;fillColor=#000;shape=mxgraph.mscae.enterprise.internet_hollow;rounded=0;comic=0;fontSize=12;" vertex="1" parent="K79jzFuccfJX-m8LmFL6-1">
          <mxGeometry x="325.48" y="525" width="129.04" height="80" as="geometry" />
        </mxCell>
        <mxCell id="K79jzFuccfJX-m8LmFL6-49" value="" style="endArrow=async;html=1;strokeWidth=2;fontSize=12;endFill=0;dashed=1;" edge="1" parent="K79jzFuccfJX-m8LmFL6-1">
          <mxGeometry width="50" height="50" relative="1" as="geometry">
            <mxPoint x="385" y="515" as="sourcePoint" />
            <mxPoint x="385" y="475" as="targetPoint" />
          </mxGeometry>
        </mxCell>
        <mxCell id="K79jzFuccfJX-m8LmFL6-50" value="" style="endArrow=async;html=1;strokeWidth=2;fontSize=12;endFill=0;dashed=1;" edge="1" parent="K79jzFuccfJX-m8LmFL6-1">
          <mxGeometry width="50" height="50" relative="1" as="geometry">
            <mxPoint x="395" y="475" as="sourcePoint" />
            <mxPoint x="395" y="515" as="targetPoint" />
          </mxGeometry>
        </mxCell>
        <mxCell id="K79jzFuccfJX-m8LmFL6-51" value="&#xa;&#xa;&lt;b style=&quot;color: rgb(0, 0, 0); font-family: helvetica; font-size: 13px; font-style: normal; letter-spacing: normal; text-align: center; text-indent: 0px; text-transform: none; word-spacing: 0px; background-color: rgb(248, 249, 250);&quot;&gt;阿里云IoT&lt;/b&gt;&#xa;&#xa;" style="text;html=1;strokeColor=none;fillColor=none;align=center;verticalAlign=middle;whiteSpace=wrap;rounded=0;shadow=0;dashed=1;comic=0;fontSize=12;" vertex="1" parent="K79jzFuccfJX-m8LmFL6-1">
          <mxGeometry x="350" y="565" width="85" height="20" as="geometry" />
        </mxCell>
        <mxCell id="K79jzFuccfJX-m8LmFL6-52" value="" style="endArrow=async;html=1;strokeWidth=2;fontSize=12;endFill=0;dashed=1;" edge="1" parent="K79jzFuccfJX-m8LmFL6-1">
          <mxGeometry width="50" height="50" relative="1" as="geometry">
            <mxPoint x="319.5999999999999" y="590" as="sourcePoint" />
            <mxPoint x="285" y="590" as="targetPoint" />
          </mxGeometry>
        </mxCell>
        <mxCell id="K79jzFuccfJX-m8LmFL6-53" value="" style="endArrow=async;html=1;strokeWidth=2;fontSize=12;endFill=0;dashed=1;" edge="1" parent="K79jzFuccfJX-m8LmFL6-1">
          <mxGeometry width="50" height="50" relative="1" as="geometry">
            <mxPoint x="285" y="580" as="sourcePoint" />
            <mxPoint x="320" y="580" as="targetPoint" />
          </mxGeometry>
        </mxCell>
        <mxCell id="K79jzFuccfJX-m8LmFL6-54" value="" style="endArrow=async;html=1;strokeWidth=2;fontSize=12;endFill=0;dashed=1;" edge="1" parent="K79jzFuccfJX-m8LmFL6-1">
          <mxGeometry width="50" height="50" relative="1" as="geometry">
            <mxPoint x="499.5999999999999" y="584.5999999999999" as="sourcePoint" />
            <mxPoint x="465" y="584.5999999999999" as="targetPoint" />
          </mxGeometry>
        </mxCell>
        <mxCell id="K79jzFuccfJX-m8LmFL6-55" value="" style="endArrow=async;html=1;strokeWidth=2;fontSize=12;endFill=0;dashed=1;" edge="1" parent="K79jzFuccfJX-m8LmFL6-1">
          <mxGeometry width="50" height="50" relative="1" as="geometry">
            <mxPoint x="465" y="574.5999999999999" as="sourcePoint" />
            <mxPoint x="500" y="574.5999999999999" as="targetPoint" />
          </mxGeometry>
        </mxCell>
        <mxCell id="K79jzFuccfJX-m8LmFL6-56" value="控制终端&lt;br&gt;微信小程序" style="text;html=1;strokeColor=none;fillColor=none;align=center;verticalAlign=middle;whiteSpace=wrap;rounded=0;shadow=0;dashed=1;comic=0;fontSize=12;" vertex="1" parent="K79jzFuccfJX-m8LmFL6-1">
          <mxGeometry x="160" y="548" width="75" height="44" as="geometry" />
        </mxCell>
        <mxCell id="K79jzFuccfJX-m8LmFL6-57" value="" style="fillColor=#36B37E;strokeColor=none;rounded=1;arcSize=50;shadow=0;dashed=1;comic=0;fontSize=12;" vertex="1" parent="K79jzFuccfJX-m8LmFL6-1">
          <mxGeometry x="185" y="585" width="30" height="16" as="geometry" />
        </mxCell>
        <mxCell id="K79jzFuccfJX-m8LmFL6-58" value="" style="shape=ellipse;strokeColor=none;fillColor=#ffffff" vertex="1" parent="K79jzFuccfJX-m8LmFL6-57">
          <mxGeometry x="1" y="0.5" width="12" height="12" relative="1" as="geometry">
            <mxPoint x="-14" y="-6" as="offset" />
          </mxGeometry>
        </mxCell>
        <mxCell id="K79jzFuccfJX-m8LmFL6-59" value="" style="html=1;shadow=0;dashed=0;shape=mxgraph.atlassian.check;strokeColor=#ffffff" vertex="1" parent="K79jzFuccfJX-m8LmFL6-57">
          <mxGeometry y="0.5" width="6" height="5" relative="1" as="geometry">
            <mxPoint x="4" y="-3" as="offset" />
          </mxGeometry>
        </mxCell>
        <mxCell id="K79jzFuccfJX-m8LmFL6-60" value="" style="outlineConnect=0;fontColor=#232F3E;gradientColor=none;fillColor=#232F3E;strokeColor=none;dashed=0;verticalLabelPosition=bottom;verticalAlign=top;align=center;html=1;fontSize=12;fontStyle=0;aspect=fixed;pointerEvents=1;shape=mxgraph.aws4.client;rounded=0;shadow=0;comic=0;" vertex="1" parent="K79jzFuccfJX-m8LmFL6-1">
          <mxGeometry x="510" y="534.44" width="63" height="61.38" as="geometry" />
        </mxCell>
        <mxCell id="K79jzFuccfJX-m8LmFL6-61" value="服务器端&lt;br&gt;账户设备管理" style="text;html=1;strokeColor=none;fillColor=none;align=center;verticalAlign=middle;whiteSpace=wrap;rounded=0;shadow=0;dashed=1;comic=0;fontSize=12;" vertex="1" parent="K79jzFuccfJX-m8LmFL6-1">
          <mxGeometry x="580" y="545" width="80" height="40" as="geometry" />
        </mxCell>
        <mxCell id="K79jzFuccfJX-m8LmFL6-62" value="sever" style="text;html=1;strokeColor=none;fillColor=none;align=center;verticalAlign=middle;whiteSpace=wrap;rounded=0;shadow=0;dashed=1;comic=0;fontSize=12;" vertex="1" parent="K79jzFuccfJX-m8LmFL6-1">
          <mxGeometry x="521.5" y="545" width="40" height="20" as="geometry" />
        </mxCell>
        <mxCell id="K79jzFuccfJX-m8LmFL6-63" value="" style="endArrow=async;html=1;strokeWidth=2;fontSize=12;endFill=0;dashed=1;" edge="1" parent="K79jzFuccfJX-m8LmFL6-1">
          <mxGeometry width="50" height="50" relative="1" as="geometry">
            <mxPoint x="280" y="550" as="sourcePoint" />
            <mxPoint x="355" y="475" as="targetPoint" />
          </mxGeometry>
        </mxCell>
        <mxCell id="K79jzFuccfJX-m8LmFL6-64" value="" style="endArrow=async;html=1;strokeWidth=2;fontSize=12;endFill=0;dashed=1;" edge="1" parent="K79jzFuccfJX-m8LmFL6-1">
          <mxGeometry width="50" height="50" relative="1" as="geometry">
            <mxPoint x="360" y="480" as="sourcePoint" />
            <mxPoint x="285" y="555" as="targetPoint" />
          </mxGeometry>
        </mxCell>
        <mxCell id="K79jzFuccfJX-m8LmFL6-65" value="" style="outlineConnect=0;gradientColor=none;fontColor=#545B64;strokeColor=none;fillColor=#000000;dashed=0;verticalLabelPosition=bottom;verticalAlign=top;align=center;html=1;fontSize=12;fontStyle=0;aspect=fixed;shape=mxgraph.aws4.illustration_devices;pointerEvents=1;rounded=0;shadow=0;comic=0;" vertex="1" parent="K79jzFuccfJX-m8LmFL6-1">
          <mxGeometry x="225" y="560.8499999999999" width="55" height="40.15" as="geometry" />
        </mxCell>
        <mxCell id="K79jzFuccfJX-m8LmFL6-66" value="" style="outlineConnect=0;fontColor=#232F3E;gradientColor=none;fillColor=#000000;strokeColor=none;dashed=0;verticalLabelPosition=bottom;verticalAlign=top;align=center;html=1;fontSize=12;fontStyle=0;aspect=fixed;pointerEvents=1;shape=mxgraph.aws4.instance_with_cloudwatch2;rounded=0;shadow=0;comic=0;" vertex="1" parent="K79jzFuccfJX-m8LmFL6-1">
          <mxGeometry x="335" y="365" width="25.48" height="25.48" as="geometry" />
        </mxCell>
        <mxCell id="K79jzFuccfJX-m8LmFL6-67" value="&lt;br&gt;&lt;span style=&quot;font-size: 10px&quot;&gt;&lt;br&gt;&lt;/span&gt;" style="aspect=fixed;pointerEvents=1;shadow=0;dashed=0;html=1;strokeColor=none;labelPosition=center;verticalLabelPosition=bottom;verticalAlign=top;align=center;fillColor=#000000;shape=mxgraph.mscae.enterprise.router;rounded=0;comic=0;fontSize=12;" vertex="1" parent="K79jzFuccfJX-m8LmFL6-1">
          <mxGeometry x="297.5" y="484" width="25" height="19.5" as="geometry" />
        </mxCell>
        <mxCell id="K79jzFuccfJX-m8LmFL6-68" value="router" style="text;html=1;strokeColor=none;fillColor=none;align=center;verticalAlign=middle;whiteSpace=wrap;rounded=0;shadow=0;dashed=1;comic=0;fontSize=10;" vertex="1" parent="K79jzFuccfJX-m8LmFL6-1">
          <mxGeometry x="290" y="464" width="40" height="20" as="geometry" />
        </mxCell>
        <mxCell id="K79jzFuccfJX-m8LmFL6-69" value="AirKiss" style="text;html=1;strokeColor=none;fillColor=none;align=center;verticalAlign=middle;whiteSpace=wrap;rounded=0;shadow=0;dashed=1;comic=0;fontSize=12;rotation=-45;" vertex="1" parent="K79jzFuccfJX-m8LmFL6-1">
          <mxGeometry x="310" y="520" width="40" height="20" as="geometry" />
        </mxCell>
        <mxCell id="K79jzFuccfJX-m8LmFL6-70" value="" style="rounded=1;whiteSpace=wrap;html=1;shadow=0;comic=0;strokeWidth=1;fillColor=none;fontSize=12;" vertex="1" parent="K79jzFuccfJX-m8LmFL6-1">
          <mxGeometry x="160" y="438.75" width="100" height="110" as="geometry" />
        </mxCell>
        <mxCell id="K79jzFuccfJX-m8LmFL6-73" value="" style="shape=image;imageAspect=0;aspect=fixed;verticalLabelPosition=bottom;verticalAlign=top;rounded=0;shadow=0;comic=0;strokeColor=#66FF66;strokeWidth=1;fillColor=#000000;fontSize=12;image=data:image/jpeg,/9j/4AAQSkZJRgABAQEBLAEsAAD/2wBDAAgGBgcGBQgHBwcJCQgKDBQNDAsLDBkSEw8UHRofHh0aHBwgJC4nICIsIxwcKDcpLDAxNDQ0Hyc5PTgyPC4zNDL/wAALCAH0AfQBAREA/8QAHAABAAIDAQEBAAAAAAAAAAAAAAYHAQQFAgMI/8QAXxAAAQMCAwMHBQsHBgoIBQUAAQACAwQFBgcREiExE0FRcYGRoRQiYbHBCBUyQlJTcpKistEWFyMkYoLCJTM0Q6OzJzU3VFVlc3WT0jZEY2SD4fDxGCaEtMNFRlZ00//aAAgBAQAAPwC/0REREREREREREREREREREREREREREREREREREREREREREREREREREREREREREREREREREREREREREREREREREREREREREREREREREREREREREREREREREREREREREREXPut8tVjpvKbpcKajhPB88gYD1a8exR386+Bf/wCS0Xe78F6GauBnHQYloe1xHsWxHmPgyX4GJ7X21LR61vRYww1P/NYgtT9eYVkf4rehu1tqNORr6WTX5EzXeorbD2uGrSCPRvWdVjUdKyiIiIiIiIiIiIiwXADUnQdJXnlY/lt7wsGeIcZGfWCGohA1MrPrBefKqf5+L64XryiH52P6wWRLGeD2969ag8N6zqixqOlNR0rOqIiIiIiIiIiIiIuTia8tw/hm53ZzQ7yOmfMGn4zgNw7ToFD8MZfWu6UlJiPE4dfLxWQMne+s86KHaaHbEcfwQ0a6cFKajDOHmR6nDlvm/ZZRxk+IC5U9hwqNeUwVE76NrY71LRlw3gJ2pmwYGekWaT+Fq5tRhjKl2onsLYunWiqYtPALlzYJyamdoZ6ald0GvkjI+sVlmWmXcmnvdi2qpnHh5PeIz4Fb9PlZWsG1aMx7/GObWcSjwcF9PyKzKo3a0WYonA4Nq6IHx3o6DOWgPmVmG7k0fLY5hPcGo7FmalBoazAdHVtHF1FWAa9mpKHNy50Wnvvl9iGlHO6KPlB6gvvDnpg1zwyrfcKB/O2ppHDT6uq79Fmbgq4ECDEtv1PASycmftaKRUtxoq5u1SVdPUN6YZWvHgVtaoiIiIiIiKDYsxFdJMU2zCFgq4aSvrIn1NTWPj5Q00LeBa07i4nXTXcuFdsB4egmb+U1diq+1Eo2i48vJGPQBE3Zb1LQbg3LJv8A+27+7rpa38F7/I/K88cK3rr8jrV8n4LytJ0OHr43qpK38FrvwTlVz2fEDeqlrf8AlXwkwXlSDoYMRR//AEtZ/wD5r4uwjlM3/r+IoeuCqHriXzdhrKtnwcXX+n63yt074lhtjy8a7SnzTvEB5tqt2dO9oW7BZbCCPIs7K6M8wdcWH+ILpRYfujx/J+dBl6Nt8Un8ZW7DhvMoDWizIoaoc3KUbDr3Ar263Zy0++O9Yeq9PlwFhPc0LAuOc1J/OWPD1aB83KWk97wvP5cZmUjtKzLkTAcTTVYPq2ll2bt3pP8AGWXeIKcc5jYXj7oXpmfGGGaCuobzQu5xPScO4rq0ec2A6sDS/MiPRNDIz+HRd6jxxhav08lxDa5CeAFUwHuJXahqIalm3BLHKz5THBw8F9URERERERFAc56jyfKm9HXQvbHH3yNUxs8XI2Whi4bFPG3uaAt1ETReXMa9uy4AjoI1WhPYbPVHWotVDMTx5SmY71hc2bAWFJ3bTsPW1rvlR04Ye9ui+YwDYY99NHXUrumnuNQzTsD9PBem4Qkh1NNiW/wnm2qtswH/ABGuXr3lxFERyOKTIBzVdvifr2s2EIxjCf8A9Cq2j/bU5P3wtaouF2kBZdMFmqjHE01TDPr2SbBUduFBl9V7RvODJ6HpfLaJGD68QI8VxW5d5U3WYutN68iqNdzaa5Br2n6L9SF0G5W4ktzA6wZjXaJnFrKocs316eC9eTZy2ggx19ivcY5pGck8+DfWs/nFxxadff3Lqsc1vwpbfLyo69AD61sUmeeEnSNiuTLlapjuLaylO76uqltsxzha86Cgv9vmceDOXDXfVOhXfDgQCDqDvBHBNVlEREVU4daLl7oPFVYd7aChipWnoLgwn1OVraIiJomiaIvk+nhl/nIo3/SaCtOaw2io/nrVQyfTpmH1haE2BsJz/wA7hq0O/wDoo/wWlJlhgmU6nDVAw9McZZ90hfJ2VuFAQYKSrpiOenuFQz1PXn829JGdaXEWJ6XoEd2kcPtarycEXuH+h4+vzOjyhkE3rYsGwY+pz+gxvS1A6Kq0MHixwXh8GZcbC17sJ3BnRJHPET94LlVdFf5gRccsMPXEc7qesiBP12D1rg1mHsMyA++eUF5pieLrfsyaf8OQepcGbD+WFO4u8pxZhyTplp5mBvaWH1rdoqGl0Aw9nbIw/FirZdfBzh6lIKenzbp2B1uxPh6+RjhtBoJHW1o9a+rsZZp2sj3xwDBWNHF9DUcewF3qXn8+UFC/Zv2Eb7bNPhOMQcB37K7VtzqwJcdB78eSuPxaqFzPHQjxUwt1+tF3aHW650dWCNRyE7X+AK6GoWURERVnnq//AAd8h/nFdTxfaJ9ismFuxCxnyWgeC9oiIiIiImixoFp11ntlzbs19upKodE8LX+sLhvy8w41xfRUs9ukJ127fVS0+nYxwHgvH5L3ykGlsxjcQ35Fwgiqm9+jXfaWOVx3Qb30djusY+ZmkpJD2OD2+IWtV4mjfFyWJMGXWKMfCcaRlbEO2MuOnYo7Jh3J/FMjo42WuCqJ+BHKaSUH6B2fUhyafbv0uFsZ3q17tWsdJykfcC32rAps5LARyVXZ8RQN+LKBHIR9n1lZbnBcrO4Mxbgq7W0fGngbysfedPWVKrHmdg/EJYyivlMJncIag8i/Xo0dpr2KWhwIBB1B4LKIeCqvKh7a3F+YFx015S68k0+hpfu9StREREREREREREWNB0IQCNDvHpXLrsM2K5gius1vqdeJlpmOPeQo9VZSYJqH8oyyMpZeaSkmkhI6tlwC+Ay0dSHW04vxLQ9DDWCZg/deD61h1izFoWltLiu2XRnNHcrdsa9boz7FwrjbbzJ/0gytst1b8ae2TsD+xrwHeKiNdYMr3y/r1vxHhCqJ3OnhkawH0OO2NO0Lr2vDWKI4xLgbNGnukLd7aeqkEnYfh6dwXUbjXM/Dnm4gwWy5U7fhVFsdqdOnQbXqC71kzjwldpW01VVy2ms4GC4x8lofpfB7yFPIp4p4mywyMkjcNWvY4EHqIX0RFVeeT9qyYepfn71ANOnQO/FWmFlERERERERERFjRaVws1su0RiuNvpKyM/FqIWyDxCjzsuLLAS+0TXGzSHfrbqx8bfqElngvBtGN7bvoMR0VzYOEV1o9h2n+0iI8Wr3DiLElO4RXfB05YTsma21UdQw+nZdsOA7Ctm8ZfYTv20bjYaKR7uMjI+Tf9ZuhUKxPhyryzw9LfsK3m4spqJ7Hz2yrm5eCSMuAIaHDVp38QVa1LO2ppYqhh1ZKxr29RGq+qwSANSqmyEBmsF/rjxqbvK7X91p9pVtIiIiIiIiIiIiIiIiLxJGyVhY9oc07i1w1BUVuuWmEbvIZprLTwVGuonpNYJAenVmniuczBWJrMdcPY1rHRN4Ut3iFUzq29zgF9hT3i5zR0GLcI2q4QvOy6spZWSMaOkxygOA6iVwr/aKPLe/Yfu2HmSUdvrrgyguFGyRxge2QHZfsknZcCOIVqN4LKKp85/0l0wPTfOXph7i0e1WuFlERERERERERERETQdCwVX96qZsTZPYgfOWunENbGdBpvhkeBu6mBd3L+sNwy+sFS7e51BECfSGgexSRa9fJyNBUy/Iie7uBVZ+5+Zs5bF/PLXTO69zR7FaiIiIiIiIiIiIiIiIiIi+VQJDTy8kdJNg7J6DpuVRY8uk1zyLtN8ndtVDXUVVI7TTzw4Bx7yVb8TxJEyRvBwDh2r2iqnNT9LjzLqDpuhf3OjVrIiIiIvjPVQUrQ6omjia46AyPDQT2rMVTDNvimjeP2XA+pfVERERERERYKr/DbTUYTxjQceTuVyh0+lq7+NfXJqo8pypsbtddhkkf1ZHBTxczET+Sw1dJPk0cx7mFQnImPk8q7eflzTO+2R7FZKIiIiIiIiIiIiIiIiIiFUteouW9zlc6cjz6OSWLTo5OrI9StXDVR5Xha0VGuvK0UL+9gK6iKqcxTymbWXcPRUTP7tj8Faw4IiIiIq3xJbqLFWbFrslxpo6uhobVNWSwyDVu297WN19O46LaqMmsDTu247MaZ/yqeplYfB2i+BykpqU7VpxViW3EcGx1xe3uIWPyRzCt5/k7H7apg4R3Cga7vcN68GuzatmomtGH7uwc9NO6Fx+tu8F4OZl/t+nv3l5e6doPnyUhFQ0dwHrU3w7iG34ntEdztr3uhe5zC2RhY9jmnRzXA8CCuqiIiIiweBUIwbHrc8b0nTeHu0+nBGVzMi3/AODeOH5isqI/ta+1WWuJjB2xgu+O6LfP/duUcyWj5PKeyftCV39q9T5ERERYLgNdeZfJlVBK4tjmje4czXglfXUa6LKIiIiIiIiIiIhVS1kBkyszBo9P6PXXDZHo2hIPWphlrP5Tlth6QnU+QxtPYNPYpUiqrGg5XPHAcfHYZUP8D+CtUcEREREVe4Td755q41uPFlL5Nb4z9Fpc/wC0p/JIIonyO10aCToNTuVDt90mxtVIyXDLzCHkNLavR2mu7UFu4qQ2PP8Aw1d7jT0NTR11DJO9sbZJA18YJOg1IOoGvPorZA1G9c253qjtVTbqaoc7lrhUCmgawaku2S4k9AAB1KjGXDgKjF8A4RYiqdO0MPtU6RERERYPBQ3C7eTx3jaLpq6WX61O38Fw8kDsYcvdN8xeqhunR8FWeuBjg7OA7+R/o+f7hXHygGzlTYB/2Lz/AGjlN0RERRXHONYMIW6Hk6d9bdax/I0NDH8KaT2NGo1PYojFlriDFulbjvEdZrJ5wtlufycMI+STv1PZ2lbX5iMGNb+hZcYZBwljrHbQPT0LVmwnjvBDDV4XxBPfKKLe+1XPznub0Mf0+gadvBTLBeM6HGloNZSNfDURO5OqpJd0kEnO0+jcdDz+g6hSZEREWNQs6oiIiIiIeCreOHbt+Z1ARuM8rwPp0jD61vZOTctlTYjrvbG9ndI4KdIqvxG3lc/8IN+RQVD/AAerQREREXlzg1pJOgG8k9CrrJo+V4cut5dqXXW71NSHHnbqGj1FWOo1dMv8JXqd89fh+gmmedXSCLZc49JLdCuJBktgamuMVbFaXtfE8PbGamQs1B1GoJ39Sn4Gigd+Hl+b+FaPi2ho6uuc30kCNp7yV4y3P8tY4b0X+U97WqwERERERQ/D+7MjGQ6W0D/7N49ijuTf6OfGlP8AN36Y9/8A7K0lHseAnAGINP8AR8/3CuVlF/krsH+wd99ymyIiIeCq3C8YxZm5iHENRpJTWQi2UAO8Nfv5Rw9PH6ytIcEQjUaKp8RQtwRm/Zr9S6RUGIHeQ3Bg3NMu7Yf17x3HpVrg6rKInMq1x1jm7Mv8ODsHQRz3+dm3NPJvZRs+UebXTfv4ajcSQFyvzP09WBUYwxldK2tfvJFSIo2noaHa7u7qXsZVXy1N5bCOPrlTtG9kNU7lYj6Nx0+yV5OO8c4He0Y3sTK62AgG6Wwa7Ppc3h3hqs2y3y3YhtcNytdVHU0ko82Rh5+cEcQRzg710UREREUDoo+UxXj+m5pIqZ+n0qdzf4Vo5EyF+VlAw8Y5529Xnk+1WUirG7+f7oewD5uzzO7y9WciIiIuFjS4e9WCr3Xa6GGilc0/tbJA8SFzcraD3tyzsEBbsuNKJSPS8l/8Sl6Iiglp/Xc5MR1XEW+20tED0F5dIfYtbLR+1fsddHv7J90KxERERERQ6ybs0cWDppLefCUKPZSnZxNj+McG3lx7y/8ABWkuBjdu3gS/t6bfP9wrkZRb8q7B/sHffcpsiIi16+qbQ2+pq3/BgidKepoJ9igmS1G6HLqCumH6e5VE1ZIekueQPBoVhoirfPClMuXM1bGP01vqoaqM9BDtn1OU/t9U2tt1NVt+DPEyUdTgD7Vsoi8yPbHG57jo1oJPUFVWS9J750l/xbU+dWXevkAfztiadwB6NSfqjoUp/Nlg5znSTWGnqZXfCkqXPmeT6XPJK1JcsrbRONTherq8PVw3tfSSl0Lj+3E4lrh6Ny+1hxLUVVylwviilhp7y2MubsDWnr4uBfHr9ph3j1QmvozlBj2juVvc5mE73MIaum11ZSzHg4dA5x6NocwV0A6jVZREREUMtbQMzsUxfPW+id/etXCyHOmXskZ/q7hOz7p9qtBFV9w3+6MtOvNZJNPrOVoIiIiKu87at8GWlXTRfztdPDSsHSXPBI7mqdW6kFBbaWjbpswQsiGn7LQPYtpEQ8FBMvj5XecaXPjy17fA13S2JjWD2rRyqcH3THD+m/SjuCslEREREUPs2n50cUaf5lQa/wBsozlSQMcZisHAXQH7UitZcbFrNvB97b00E4/s3KP5Ou2sqLCeiJ47pXqcoiIo3mBO6my8xFKw6OFun0PWwj2r1gGlFFl/h+AfFt8JPWWAn1qRIiiGaUPL5Y4hYRrpRuf9Ug+xbuAqg1WAMPzE6l1vhBPUwD2KRIi1bmCbVVhvHkX6fVKgGRLmuyqt7Wne2acO9B5Qn1EKyUURzCsEt1w66tt5Md5tTvLbfK3iJGby30hwBaR1LhY3lpscZHVdziYNJaJtcwfIezRxHZo4KV4GuL7tgWx10hJkmooi8nncGgE94UgREREUNojsZvXhny7PSO7pZQuBkYdnC94h+bvE7fBqtFFV1x1HujbR6bLJ63q0URERFWGaulwxJgax66ipuwqHtHyYwNfvFWeOCIiw4hoJJ0A3lQTKPWbAjK8jfX1tVVE9O1M7Q9wWhlANqPF0/wA7iGpI7NFZaIiIiIodZN+aOKz0UdvHhKonlO8nMLMYH/SDT9uVW6udfmcrh+5R6fCpZW97CofklJt5UWcfJMzf7VysFERFEszpWw5Z4ic46A0Mje07h4lfKDEr8P2e1UTsPXyta2hh/TUNKJWDzANNztdexfM5nWmP+k2rENLp89aJh6gUbm1gzhNdJac9E9HNH62Ldo8ycGV88cFNiO3ulkcGsYZdkuJ4Aa6b15zHe05c4jZtDa975Tprv00XjK865ZYeJ/zJg9alyIvL2h7C1w1BGhHoVS5GSPoYMTYcmOklsubtGniGu1HrZ4q3EWCNRpzKrMGRaZa4tsZHmW+ruNGxp5maFw+8u5k/LyuVNhPRE9vdI4KcIiIiKGQ7s5Kzf8KwwHuqJPxUfySOlBiiL5F9nHgFaaKsLyNj3ROHXfLtEw7uUVnoiIiHgqvuhF090JZKcDaba7VLUu9Dnkt9rVaCIi5eI6oUOGrpVk6chRyya9TCVyMtqXyPLXDsOmh8ijeR6XDaPrXCyX8/C91n+evNU/xCshEREREUQsO/MnF7uiKgb9iQ+1RPKVoOOsxn/wCswNf35Vba+FXHytJNH8uNze8KvMinf4MKRh4x1E7T6PPP4qykREVX531zzhm22CEnlrzcIqfZHOwOBPjsqzIo2xRtjaNzQGjqG5e9ELQRoRr1rWkt1DI8PfR07ng6hxiaSD08FU1/qnXeDNG5l5dTUlG21wb92rGF0n2nqc5aMMeWuHWn/MYz3jVSpEQ8FVdDT/k77oGtYNG0+ILdy7d/GWMjaH2XHtVpgrOoWHbwodT2Gax0WM53uYYbjPNWRAcQDA0HX94Fc3I+TlMp7T+y6Zv9q5WIiIiIoa3/ACyTf7gj/wDuHKPZNDYqMaRfJv027/11K00VY4m/RZ9YNk+co6mP7LvxVnIiIiweCrDB+tzznxvc9NWUjIKFh6h5w72K0ERFEM0qnyTLHEMmum1Ruj+uQ3+Jd21Qi24do4SNkU1JGzq2WD8FCMjdXZbwzHjNWVD9enz9PYrJRERERFEMO+dmBjNw5paNndAD/EorlD52L8w36cbtp9qVWysFVrkfozBldT/MXWpj8Wqy0REO5VNe4jifP6zUA1dTWCjNZMOYSOOre3+b7lbIGiIuViS9wYcw5X3epI5OkhdJofjH4re06DtVYV1tnw97na6PrtRcK+F1VVE7iZZ5AdD6QCB2KyMGU/kmCLFAeLLfAD17A1XcREUAvrGy50YS0A2oaGteeohrR6ypDdcH2m8Vb6udtVDVOABnpKuWB+4aDexw1XLdgWthO1QY0xJB0NlnjnaPrsJ8Vg2LHFM3WmxlS1Wnxa21N39Zjc31Lp3Z1dDgK5vub6d1ay3zmV1M1wjJDHfBDt64OS8HIZUWUafDbK/vkcp8iIiIoaw65zVA04Yfj/8AuHqP5R7r3jtnRe3nvLlaSKsscs5LNzL6p5nSVUR7WDT1qzRwRERFg8FWWTEbqq24ivTzq65XmeQHpaOHiSrOREUEzbaZ8D+RD/rlfSU+nTtTN/BSq+yinw9cZuHJ0sru5hUPyUh5LKezH5Zmf3yuVgoiIiIsHgofhLz8XY1l6blCz6tNH+Ki+TZ27/j2T5V5cPtSK2UKrLJzWGPF1Gf6i/1Gg9B0/BWaiIsHeFVmVDTcsT44xDKP0lRdDSsJ5mR67u4t7lagOqLBOiri6PGYeL4rNSnlcPWWcTXKYfAqahu9kAPOGne7u6F8c8p9cCQ2tjv01zr4KZjRxPnbXsHerIpYG01LFTs+DExrB1AaexfZERV9Wv5TPe1xfM2KZ/1pQFYKIozmHU+SZd4hm100t8zR1lpHtXyyzpjSZa4eiI0PkTH/AFvO9qlaIiIihVOdrOev/ZsMA755FH8o3a4lx+Oi8E+L1aqKuMydIsW4AqjuDbxyWv02gexWOiIiLRvNQ6ksdfUsBLoaaSQAcSQ0lRLJymjpcrrM1j2vdIx8ry12ujnPLtD6dCFO0RFDMwmCc4WpzvEl/pSR0hu0/wDhXSx3UeTYAxBN8m3zkfUK0craV1Hljh+Fw0JpBJ9cl3tUvRERERYPAqG4G8+6Ywm+VfZG/VijHsUZySG1PjOb5d6k9p9qtlDwVa5bDkMbZg0nDZujZgPphxVlIiLB4Km8P1E2EMd4mwjLVNt77zObhZ6uVm1G57uLCDuPRp6CBvIU6GLK22xNbfcP3CCUbnzUMRq4HekFnngehzR2r4PzMsO9sFPeamb5qG01G14sA8Vo1L8W42Bpo6SfDFlfulnlcDXTt52saNRFr0k69Cl9mstvw9aoLbbKdtPSQjRjG+JJ4kniSVWb6n84+b1GKQ8rYcLuMkk7d7Jqo8ADz6ED6p6QrdRERVw7X/4hY9eH5OnT/jKx0RV7nVWOp8tK6mi/nq6WGljHSXPB07mlTe10Yt9po6JumzTwMiGn7LQPYttERERQq3+fnDe3fItFIzvkkK4GT42rxjqXT4V7kHcXfirURVvnJGY7FZLk3cbfeqWYnoGpHrIVjhZRERYcNQR0qB3DKaxy1clbZqm4WCrkO06S11Bja4+lnDu0Wi/DWZlnBNqxlR3SMb2xXSl2T1bbdSvBxjmNaD/LGA2V0YG+a1VO1r+6dSswZ34cicIrxQ3ezy66FtZSHQHrGvqUkoMyMG3IgU2JLcXHg2SYRnudovreKSG+VtiuFPXUzqS2Vhq5nCQEEck9g0I3cXA71DL9fq/MuSpwvhSPSzE8lcr08fo9nXzmRfKJ6fUN6s+ho4bfQU9FTt2YKeJsUbehrRoPALYRERERCoXl0dulxDOP66/1ju54b/Co5kS3bsWIKn568zHXp3N/FWuirXCjTS5045g5p4qScD9zQ+tWUiIijeMcFWnG1q8iuUZa+M7VPUx7pIXdLT6xwKg9PVZmYDApqqgbi20x7mVFO7Zqmt6CN5PcetbjM9MNRDZudDebdOPhR1FIdx7CsSZ54dnGxaLZernOfgx09Jpqesn2LUngzFzGBpqmAYTsEm6VpdtVczOj0a/u9qsbDmG7ZhWzQ2u1U4hp49513ue7nc485K6yIiHgq3xG42zOrCde5ukVwo6i3udzbQ89o7yFZA4InBVhjYtxLmhhTDEfnxUTzda0A7mhvwAes/eCs4BZREREUIsZMmbOLXc0VHQR94kd7Vw8lhtR4um+cv0/s/FWmi4OM8OjFeE6+z8qIZJ2AxSEahkjSHNJ9GoCiseY1zw5DHBjTDNwo3MGy6vomeUUzyPjat3t146FSWy48wtiDZFtvlFM8j+aMgZJ9V2hUi1CyiIiLGgXzmpoamMxzxMlYeLZGhwPYVGrhlrgy5uLqrDdvLjxdFFyZ72aLjNyTwKyXaZa52sJ86IVkuw70EbXBTqioKS20cVHRU8dPTQt2Y4o27LWj0BbKIiIiIsH2qDZbybGApq4/wBdWV1Rr/48n4LkZBs/wdPn+fr5pPuj2K0UVb0R8l90DcYzu8rsMcg9JbIGqyERERY0C8vijkGj2NcP2hqjIo4xoxjWjoaNF60AWURERRXH2F5sTWFjaCUQXahmbV0Ex3BsrOAPoPBaWFMxqC8Se9d4As+IIfNqKCqOwS7pjJ3OaeI03+tTbUFRXF+PbRhOmLZpRVXKTzaa3QHammeeA0G8DXnPZqufl3hi428V+IsQ6OxBeHiSoaOFPGPgxDq5+oDmU7RERERQjCv6TMXHU3MJ6OL6sGv8S4mRvn4cvc/zt5nd4NVpIiwQCNDwUdu+AsK33U3GxUMrzxkbEGP+s3Qrg/mt97tThvFV9tHRF5Ry8I/cf+K+Jpc1bORyNfYr9EOaeI00p+r5qx+cbEdqH/zBl/doWtPnTW97apnXu4Lcoc4sFVknJS3R1DMOMVdC+IjrJGnipbQXq2XRgfb7jSVbTzwTtf6it7VZRERERERERF855BDBJKeDGl3cNVXeFpve/IOOqedkttU9QT6XB7vatjJSl8lyps+o0MvKyntkcrARV1dW+T574fm4eVWiog69l217VYo4IiIiIiIiIiIuJiDCNhxTAIrzbIKsNGjHuGj2fRcNCO9RX8zGHW+bFcL7DD8zHcXbGnRvGq7uHcvcM4WmNRbLYxtWeNTM4yy/WdqR2aKTgaDRZREREQ8FBsEO1vGOK0895fHr6I4WBcjIUa5fSynjLcZ3/dCtBERERNAtGvs9tukZZcLfSVbSNCJ4Wv8AWFEK/JzBNc/lI7SaGbmkopnREdQB08Fofmxv1sB/J7MC80zQdWw1ulSwejfp6lj/AAv2c7jYL7GOuCQ+oLx+c/Edrb/8wZe3iANPnS0RE7fAe1blDnZgqqk5Kpr6i3y87KymezTtAIUst2K8P3cA2+9W+pJ4NjqGk92uq6+o01TUFZRERERFzMRTeTYZus/zVHM/uYSq7xFKLP7m9jSdHGz00I63hgPrKmeAKI2/L+wUpGhbQxEj0lu0fWpIir/GDORzOwFWDgZquncfpRaj1Kft+CNFlERERERERERERERERERV5gqQswhie4E7p7pcZ9fQHFv8K1siGbGVtE88ZKid329PYrMRERERERFjRaddZ7bc2ltfQUtU0jTSeFr/AFhRK5ZPYFuWpdYoqd5+NSvdFp2A6eC5Byb973beH8Y3+16cGcvyjB2blj8n82bS39RxZa7qxvBlfTbDj2ge1evytzPtenvngWnr2DjJbqoDX90lxWW500NGSy+4av8AaXDi6Wl2mDt3epdi35u4FuIHJ4hponH4tQ10RH1gB4qUUV6tdxANFcqOp14cjO1/qK39UREXExlDPUYJvsNLE+WokoJ2RxsGrnOLCAAOlVvm2TJhbDGCaffXXGogi5Np3hjAASfRtEdx6Fb1NC2np44IxoyNoY0egDQL6oozjjCz8U2NsFLVuo7lSzNqaGqbximbroeo6kHrUFoM2LthWVlszEslRSSg7LblTR7UMvp0G76vcFY1kxdYMRsDrRd6SrJGuxHINsdbT5w7l2kREREREREREREREREXl7gxhc46ADUqtMNv8lyEnqzuMtvrKok/tmR3tC38l4OQyosg53tlf3yvU+RERERERERERFgtDhoRqDzFcW4YQw5dQRXWO3VBPFz6ZmvfpqovXZJ4GrHbcdrko5PlUtQ9mnYSQtD8z1XQOJsWOsQUA5mPl5Ro7AWrz+TObVsB8hxnb7g0cGVtNsk9oafWvPv5nDbW/rOF7Pc2t+NSz7Dj3u9i8nNfE1AP5Xy3vEQHF9OTIPu6eK9RZ+YZYdm4W680D+cTUwIHc7XwW3U52YYnoHe8fld2ub/NgoIaaQPkdzanTcOkr54EwTeZ8Ry43xmWOvMzdmlpGnVtGw83oOhIA5tSTqTus9ERfGppYKyB8FTDFNC8aOjlYHNd1g7iq/vWSeD7rIZ6WlltVVxbLQSbAB6dk6ju0XH/ACPzQwt/0fxZDeKVvCmubfO06ATr94LIzYxJYDsYxwPXUzAdHVVD58fXv1H2lJrLm5gm9hrYb3DTyu3clWAwnvdu8VM4aiGoiEsErJY3cHscHA9oXsHVZRERERERERERERFysTVXkOFrtV66chRTSa9TCVBb4Pej3OrovgltkiiPW9rWn7ykmWdMaTLXD0RGh8iY8j6Xne1StERERERERERERERE0CaBfOWCGdhZLEyRp4h7QR4r5U1voqMk01JBAXcTFGG69wWzoiIiImiwWgjTTco1esvsJ3/aNxsVHJI7jKxnJv8ArN0Khs2R9LQSGfC+JbxZZuIDJdtncCD4lfPyDOXD2nk1ytWIadvBs7QyQjt2fvFY/O5iKy+binANypWj4U9Jq9niNPtLs2vO3A1yIa+6PopPkVcLmado1Hipnbr9abuwOt1zo6sHhyE7X+oro6oiIiIiIiIiIiiGaM5gy1vuz8KWn5BvXI4MH3lG87pfe7Kg0ER3zzU9KwDn036fYVi2aj977HQUX+b00cX1WgexbyIiIiIiIiIiIiIiIiIiIiIiIiIsaLjXPCGHb0D75WWgqSfjSQN2vraaqG3DInBdW8y0kFZbpeZ1LUncep2q0PzW4vs+/D2YlwYwcIa1hkb6yPsr0J857MTylLY77G3nY4RvI+z6l6Ga+IrW0flBl5d6cD4UtKeVb6tPFbtHnpgmoeI6qprKCTnbVUrhp9XVSe34+wldNBSYitr3Hg01DWO7naFd6KoinZtwyMkaedjg4eC+uqIiIiIiIoPmgTNZLTbwNry+80cBHSOU2z4MUbzX0vWN8D4Zbq4TVpq5mj5DSN/cHq2xwWUREREREREREREREREREREREReDJprppoOcnQIJNeOmnSDqF7RERE0WlWWi23FpbXW+kqgeInha/wBYUWuGUeBrjtcrh6micfjU5dF90gKPTZC2CJ23abvebZJzcjUAgeAPivP5tseW3T3ozJrHtb8FlbEXjvJd6l78nzotpGzW4eurR8tuwT4NWTjLNG3u0r8v4apo4uoqob+zVyHOKuozpdsA4hpOksi5QDtIC+sWfGENQ2qbdKN3OJ6Q7u4ldalziwFVNBbiGFhPNLFIz1tXVp8wsH1WnJYltR16alrfWupDiCzVOnIXegl1+RUsd6it1k8Ug1ZIxw/ZcCvevX3LOqarQukdu5OGruRhZHRScuyWdwa2NwBG1qd3Bx71XmFaJ+L8zq7HID/eilg8htb3gjltNz5Gg/F1LgDz6+hWkNwREREREREREREREWC4N4rI3hERERERERYcSGnTjovg7QOO7XRo2Qsa7+AB12Tpz7l92aloJ46L0iIiIiIixoCmi+c1LBUDSeGOQdD2B3rXKqcIYbrNfKLBbJded1Iw+xcmfKvA1Rrt4ZoRr820s+6QubPkjgGfXSyuj1+bqZB/EtT8xGDmnWA3On/2VYR6wVh2SdqZ/RcSYlp/oVw/5V5GTsjDpFjrFDB0eV6oMoJzufjzFLhzgVWi3aDJ3D0UzJrrV3W9uY7aay5VRkjB+iNAe3VWBFDHBG2OJjWRsAa1rRoGgcABzBe0REREREREREREReXSNadOdfF7g54I9HtX1Y4Njbr0I2QOOm/VZLw1BI0rJcGjUrzyrddNCvQII1C8mRoPOUMjQOdZa8O4L0vBlbrwJXze47WoO5emyjTeDr2Ly8N2QdA4cwPMstjaQCToBzBe+VaDzoZWg869NcHDULDnhvFYbI13SF7RERERERERERERERa1dX0lso5ayuqYqamiG1JLK8Na0eklQebNu11LzHh+03m/P102qGjdyf13aepfL8u8ayHahy0rtjm5SujYe4hHY/xhF/PZaXP/AMKrY/1BfF+aV5g31OXOJGD9iLb9i8Nzpo4/6ZhPE9N07VDrp4hfQZ54Qb/SG3Sm6eWonD1Erdp86MBVHC+tjP8A2tPI3+FdSmzJwXVECLE1s1PM+cM+9ouzTX+z1mnk12oZ9fmqhjvUV0GuDgC06g843rOqIiLDjo0noGq+A1LtOfpRzQ14HV7UJ81o9AXprQBt9C+ZOh9Oq9gbXDvSQ+fp0bghaQ0O8Fljzsu06NQvIBcdAsDeQBu9KyDo4L6SHzNPSvDG7ZO/0rDhsvABQjRg1dxHD/0Vl+mw3T0rGukXWfYgGoJ6FgbwSN2g1XqM6P0XnaJ3neSgBcd2/VbAWURERERERERERERFVOPXNxPmdhbBsg5Shj2rjXRanZeGg7Ad6PNP1lO7nWXO2Nhhs9hFezZ0cG1McDI9OAAPsC5hv+MGjdghh9Au8X/Kvk7FOKoj+ly/rSOmG4U7/wCIJ+XNwj3VOB8Ss9MUUUv3ZFg5j0Mf9JsWJqYdMlplIHa3VeH5oYMcNKusmgPOKq3zM0+sxfH8q8sLluluGHZdeaobGPvALwcOZW3bfHSYbm1+YkjB+yQvhUZL5fVw2obWY/2qeqf+JC0ZMi7PCdq13+/293NydSCB4A+K+bstMbW/T3pzLryBwZVxl479o+pPIM6LYRyV2sV1YOAlZsOP2W+texjPM+2u0ueX8VY0cX0NSN/UNXL6NzqpqN2ze8KYhthHFz6baaO3cutQZyYEuGgF8jp38NmpifHp2kaeKlNFiCzXVn6jdaKqDh/U1DHHwK29C07+9Bq49LlmRuhAHMB7V9GDWMBfJw0Oh4rIc5o01PcjgSA/pWNogac2oRgOw7UcyzGPP7/YvLPhjsWdPP7faslxdx7l7iaQCV5lbo7a5l4O/d6NAvUjdGjp3rGh5Pt9iy3Xk3buhGg6O+iUZ/OLy5mydNN3MVlhLXDidelYkleJCAdNPFbDTq0E9CyiIiIiIiIiIiIiHgqkwQTfc7cZ3o+dFQsZQRO5hvAOn/DPerb0RE0HQixoCNCtWe10FUCKihppQeIkha71hcqpwLhOs/n8NWh56fI4we8BcyTKrBbztMsccDummmki+64Lz+bW3wn9RvWI6HoEF2lIHY8uC8/kZiSm08gx/dmgcBWU0FQO3VoKx5FmTRfzN4w9cgOapo5IHHtY4jwT8oMdUX9NwVBVtHGS3XNhPY2QNPihzIpqYaXfDuI7aB8J81vdKz60ZcFrnEeV+JCYqipsM0jtxbWxNjfr/wCIAdV8p8osvbzGJ6W3Rx67xLQVLmjs0JC0DlBWW4l2Hsc3236fBjlk5VndqF4Nuzismnk13s18iHxaiPknnwHrXk5nYuswIxNl9XtY0+dPQO5Vo7N4+0uras68E3J3Jy3GS3zcDHWwlmn7w1HipxQ3O33WATUFZTVcXyoJGyDwW1ss+SO5eljZaOYdyAAcAAgAHAAJoNddAmyNddBr0pst110GvUsosBrRwAHUEIB4jVNBppoNE0AGgCaAcAEDQOAAWSARoRqsBrRwaB2IWtJ1IGvUsoiIiIiIiIiIiIi+VTOymppZ3/AjYXu6gNVVuQsDpsK3S8SfztyuUspPSBp7S5WuiIiIiIiIsaBaVfZbXdGFtwt1JVtPETwNf6woxU5UYPlkM1Na3W+fmloJ5KcjsadPBa5wJfrfvsmPLxCB8GO4NZWM6vOAOnavPLZn2o+fS2C+xDgYpH0sp7Dq1Y/OZNbvNxFhC/Wv5U0cIqYR++z8F6F8y0xw3k5qiy1sj/iVTGsl19AeA7XqXNrskMMSS+V2SpuNlqDvbJRVBLe46nuK1veDNfDXnWvEdFiCmad0FxZsyEfSP/MvozN64WRwixng+5WvmNVTt5aHr16OolTSw44w3iYN96bxS1Eh/qdvZkH7jtD4KQoiIiIvnPPHTQPmmkZHExpc973aNaBxJJ4BQWozfww2R7Lc25XdzTofe6ifK3X0O3A9i03ZvAbxgjFhZ8ryADw2l8jnjYIN1dZsQUXTy9Fpp9pblJndgOqOjrw6A9E9NI31AruUmYmDq4gQYlthJ5nVAYe52i7lNc6Ct08lraafX5qVrvUVt6oiIiIiIiIiIiIiKNZgVxtuX9/qgdHNoZQ09Bc3ZHiVzcoqEW/K2xR7OhkhMx/fcXeohTdEREREREREREWNFxbvg/Dt+B987LQ1Tj8d8I2/rDf4qMHKikt528M3+9WJw+DHBUmWHtY/XXvXgjNGw8H2fEtO0cCDSVB/gWBmtb6JxpsVWK7WF7vNc6qpzLAdeh7dQR2LE2CcuMeRmroI6F8p87yi1yiORp6SG7tesLVGD8f4WG1hnFTbrSM4UN5btHToEg3+pfekzSntVQykxvh6ssUhOyKsAzUrj9McPFWFR19JcKWOqoqiKop5BqyWJ4c1w9BC2EREVdZkvddr1hbCBc4U12rHSVjWnTbghG0WH0E6dym00E9Fa+Ss9LSiSNobDA95iiA6NWtOncuK+5Yzi44btk2nzV1cNfrRBa7sUYkgB8swLXOZzmjrYJ/AlpXNq8UYXlJ9+8JXOmB4urbEXt+s0OHiuWYsl7xIWvZYIpDxbIDSu7jslexk5lzdf0tt22HiH0NeXadWpcvP5mp6El1lxziGh0+CHS7bR2AtWPySzWtupt2O6WtaODK6m017dl3rXkXnOS1D9Zw7Z7qwcXU0uw4/aHqT8795tmgxBl/eqQD4UkAMjfFoHiulb88cD1jxHNX1FDJztq6dzdOst1Cl1uxbh27tBt97t9RrwbHUNJ7tdV2NQsg6oiIiIiIiIirnPGsNJlXcmg6GokhhHa8E+DSplhuj978MWqj005Cjhj06mALqIiIiIiIiIiIiIiaLxLDHNG6OWNr2OGha4ag9ihd2yowncp/KoKF9srQSW1NtkNO8Hp0G7wWpBYcf4ckHvbiCnv8ARN/6rdmGOXToEzddT1jRTSkdLX22M3Cg8nklZ+lpZHNkDTzgkbnBV9TUtPgbN2loKCMU9oxJTPPkzd0cdVHv1aODdW8w6VZ6IiKu7lpWZ8WSHj5DZp6g+gvfsKxOZE0HQsaBa9Vb6OtYWVdJBO080sbXjxCj9Vlvg2rftvw5QRv47cEfIu72aFahy3oqf/Fd9xDbdODYLk97B+7JtBeThzG1GNaDGzalo4R3K2sf9qMtPgvJrsx6D+kWOxXVo56OsfTuPZICPFefzhVlF/jnBeIaIDjJDA2qjHbGdfBfB2NctsQPMNwqbZyp3GO503JOH/EaPWvnPlVlziCLlaS3Uo13iW31JaB9UkeC5/5nJ7a4uw5jW+2z5Mb5eUZ3AtT3szhsoHkt6s98ibwZVRcm89oA9a8nMrGtmB/KLLysLG/Cnt0nKt69Br61vW/PLBlXIIqupqrbNzsrKdw0PW3UKaWvEtkvTQ62Xeiq9eAhna492uq6uoRERERERVPns8z2OwWsca27xMI6QAR/EFazGhrQ0DQDcAvSIiIiIiIiIiIiIiIi418ustqqrO1rWGOsr20sm0N4DmPI09O00KGZru8kueCLoBvp75HGT0NeN/3VZiIiKurQRU584hk4+SWing6tpwerFRERERFjRa1ZbKG4x8nW0dPUs+TPE148QovVZV4OqJTNFZ2UU/NLQyvp3D6hA8Fr/kJebeP5ExzeYAOEdeGVjOrzgDp2rPK5kWv4dNYL3EPmpH0krux201Z/OFNQbr/hO+2zT4UscAqoR+/ESfBfaO/4AxiDA+rs1e87uRqmtEg/deA4Lk3TJDBNxJlp6Oe3S8RJRzloHYdR3LkfmyxxYTtYXx9Uujb8GnuILmj0a+cPALycWZsYa/x1hKnvNO3jNb3ecR1N1+6FvWzPnC88wprvT19nqddHNqYS5oPW3f3gKf2nEllvsQktV0pKwaa6QyhxHWOI7V0wdVlEREVT5pbNXmHl5bjvDrg6dw9DXM/Aq2AiIsEgcUDgRqDqPQmoTULKIiIiIiIiIiIonmARBZaCtP8A1S7UUvUOWa0+Dio/nd+jwbQVPPT3ank6t7grLHBZREPBVpgb9ZzXzBqzv2ZqaAfusI9istERERERERE0XJuuGLHfGlt0tFFWa/Gmga5w6jpqFHfzZ0NFq7D93vNjcODKWsc+Ltjk2h6lg0+Y9nH6Gts2IIW/FqI3Ucx/ebqzwC8nMZ1sOzibDN5tGnwp2xeVQD/xI9fUunFX4Mx1TcmyW03dpGnJv2Hvb+6fOCjF2yLwlWyGotvlloqRva+kmOgP0Xa6dhC5owvmvhTfZMS09+pW8Ke4DR5HRq4/xBfaLOOuskjYMbYTuNpdroamBhkhPf7CVYVgxXYsT03L2a509W0DVzWO0e36TTvHaF2QdURFU+LR5V7oDBdPx5Gllm07H/8AKrYHBERQXNiR/wCRgomSPZ5fXUtI4sdoS18o2hr6QCF4OUGFGEmjZcaE8xpbhK3TvcV8jlnWUx/kvHeJ6YczJaoTtHY4BfM4bzKoSfIscUVc0cGV9va3vczUrHvtmrbm/rOG7JdQ3i6irDCXdj1n86FfQEC+YFxDRDnkgiFQwdo0W3RZw4Iq38lJePI5hxjrIXxEdZI08VKrbfrTeBrbbnR1g01/V52v0HUCuiiIiIiIiIiiOZ+oy4vMjfhRRNmH7j2u9i4OeQEmVdXK3eGzwSA/vj8VYlFJytDTya/Dia7vAWwiIq1ywPK4nx9U/LvTma/RB/FWUiIiIiIiIiIiLGyFHLzgHC1+eZK+zUzp+IqIm8lKD07bNCuK7BOI7NvwzjGsbE3hR3ZgqouoO3PaO9efyvxdYhpiTCD6mAfCrLJJy7esxO0eAuxZcb4XxSHUtHcaeSZ3mvo6gcnL6QY36E+K0rnlZhW4VQraaifaq9p1bVWyQ072np0G7wXwtF4u2G8WU+F7/Wm4QV0bn2u4vYGPe5vwoZNNxcBvDudTwbwiKpqw8v7pe3t4+T2ZzurXb/5lbKIigGZpM1Tg6iHCfENM53UwOcp8EdwX57xLi7OGxYhrn+QzOoBM7kRHQiaHY183RzRrw04nVaVJ7ojEdG4RXWxUUrm8dkvgd46+pW/l5j6DH9pqa2Ghlo308wiexzw8EloOocNFJ6210FxZs1tDTVLeiaJr/WFXl6w1ZMPZjYLqLPbKagmqauoZM6mZsbbRC46EDdxVnDgo3inHNkwm2KOvmkkrZx+r0VMwyTzcw2Wj0850C4FNPmZf2OrGMtOHaZ38zTVUTqicjpeQQG9Sy+HNmn86KtwpVgcz4poye5eDfc0qTfPhGz1oH+aXDY1+uhzExHRjW5Zc3yMD4RpHsqB4LLc58NQ6e+VLebYecVlA9undquzQZm4KuRAp8SUG0eDZZOSPc/RSSmrqStZt0tTDO3jtRSB48F99VlERRvMGLlcvMRM/1dOe5hPsUVzUd5TkbVTcdqnpZNetzPxU9sD+Uw9bX/KpIj3sC6KIhVaZPAvixbUn+txBU6dQ2VZaIiIiIiIiIiIiIi4t6wjYMRD+VrRSVTxwkfHo8dTxo4d66VNDDQUsNLFq2KNojjD3lx0A0A1cdSd3PvUCziaaTClFe49RPaLlT1THjiBtbJ7NCrDY4PY1w4EahekVT0Q5b3TFxPzNmaO/Y/FWwiIq9xy4S5h4ApOmtqJyPoRf+asIcEI1GixoAtartlBcGbFZRU1S3omia8eIShttDa6fye30dPSQ6l3JwRhjdTxOg51tKB4zP+EHAI/77U/3BU85lWOMC2w5uYRvrmtEFcyS1zPPxS7ezf1nwU2rcN0NdO+odJXQTvOpkpq2WLf1Ndp4LnnC1xg/oOLb3CeiYw1Dfts18V48gxrS68hfbTW/s1VudGe+OT2LBuONaUfpsPWqt056S5Ojcf3ZI9PtLw7F1dC0tuWDL7GOcwxxVTfsPJ8Fxa285ZXN2xebfR00ruIuVrfTuH7zmD1r4Q5Z5bXp4nskkcUhGoltVyOo6gHEeC17zhG44Qtr6+jzIvVHBGQGR1rBV7bj8FjWne4ngAASt/KPGN9xTRXenv7W+WW6pbCXcjyTzqDqHtG4EFvMrJRFxcYM5TBV+Z8q3VA/s3KEY3PK+54e/ptdI7xjU6ws7awjZncdaCA/2bV10RCq2yW87C12m55bzVO17QrJRERERNdFGcUY9w9g9jRdq9rJ3jVlNENuV/U0c3pOgUWZmpe7gDJZsvL7VQH4Ms+kIcOngfWsuzZrrXo/EWB75bab41QxgmY3rIAU2w9iizYpofLLNcIauIabQadHMPQ5p3g9YXYREREREUUxxMYWYfIPwr5SMPa4hambcAnyrv7CNdmAP+q9p9ikthn8qw7bKjXXlaSJ+vWwFdFFVNi/Se6OxQ/5u2RN8IlayIirzEDTPnZhBhGop6Ksm7wG/grDRERFAcaE/nGwAObyuq/uVPuZQHOG0SXPLutnp9fKrc5ldC4DeDGdSR+6XKU4avEd/wAM227RkaVdOyU6cziPOHYdQuqq4zVw9jK9UVJJhK7S0zoS7lqWKfkXTa6aEP3cN+4kDeqiN1zpwyQZRe3sb87AKlvfo71q0MqMfYlxXVVNDf7O6LkYeUbWsgdE1x1A2XA7td+u7oO5Wi6Nr2lrwHNPEEahcKvwPhe5uL6uw298h/rGwNY/6zdD4r3Y4LXGya20kDg21VPJtbO8yuY4tDw4OcSd4f0+hQTJx3KXrHUvyry71vVsIi5OKf8Aolef/wCjP/duUBxSdr3N4PTZ6X/8anWDzrguxH/V8H921dpEWCdASq2yN87AD5PnLhUO+0FZSIiIiKJZi4tOD8LSVlPHytxqHimoYdNduZ3Ddzgbz6eHOovZ8P2LLizvxTjKrZVX6oO3PVz/AKR/KHfycQ6Rw3dHMF9mZhYyu7BUWHL2rkonDVktdVNhc8cxDT+JX0izVdbqmKkxlhqvw+JTsNqX/pqcnoLwN3ivjivAhpZBjLARZR3iJnLOhp9ORro+JaWjcSRw049ehUywbiilxdhmlu9K3k+UBbLEeMUg+E09R8CF30RERERRDHvwcNDpv9J63L7ZkMD8tcRg/wCj5T3N1W1geTlcB2B/Tb4PuBd9YPBVRhU7fug8ZuPxaOFvhGrYREUDmAqs86YA6ijsD3O9BfMAPAFTOa40VPUNp5qynjmcNoRvla1xHToTqthr2uGrSCDzjes6hNURV9jU/wCEvL4f95q/7kKwRwXxqqeKrpJqaZu1FMx0b29LSNCO4qtsl6mWjtN4wrUuPL2O4SQgH5txJae8O71Z6JoiIojanmmzNxFSHhVUdHWM6xtxO+61RHI48p+V83y7w/2/ircRFyMVHZwhej0UE5/s3KA4nGnubWg/6Hpf/wAanWDv+hVi/wB3wf3YXbRF8at/J0kz/kxuPgq6yIH+C+kd8qonP21ZaIiIiKr8UtF9zuwraHHbgtlNJcpWc21rozXta3vXxstIzMDMy6XyuaJ7RYJfIrdC7ex043ySEcCQfW3oVqgblq3K3Ul1oJqGupo6ilmaWyRSDUOH/rnVeZZvqcPYhxBgSomfNBbHNqLe+Q6kU8m/Z7CR2krGBWe8maeNcPxANpZXRXGFg4NLx52na4dys9EREREUQx58PC46b/TeAeVtZhf5OcR/7tn+4VnL7/J5h3/d8P3ApIh4Kp8HjXPzHB6IIR4MVsIiwToFAMGu99Mxca3jXWOKeG2wno5Jmr/tOUzrbPbbl/TrfSVW7T9PC1+7o3hceTL/AAs921HaIqc9NK98H3CF4/IiGI/qd+xBSDmDLi6QDsk2gvBsGKKc/qmMZJGjg2ut8UuvWWbBWOVx7SfCgw/cWDjsSTUrj2EPHiuzZq251sEjrpafe6VrtGsFS2YPGnEEAeIUQxmdc0svW6a/pq0/2IVgjgsneFV5hOHM/wBkjQG0uI7eQeYGaL26NH1laCIiIobW/qmblqmO5tZZ6iHrMcsbx4OKiWQW0+y4imPwX3Z+h9OyPxCt9EXExi7ZwRf3dFuqP7tyg2MiIPc5aH/RVI3v5NTrB40wXYh/q+D+7au0iLRvL+Tsle/5NNIfslQXIpumVVu9Msx/tCrIREREQ8FT8FyEGZOY2Ij8G0W1lPG48xDNojvapLk9bzQZZWpz9TNVh9XI48XF7iQe7RTtFWkZMHuiJ2jcKjD7XH06S6exebO7X3QmIQGnQWeEE68N7FZqIiIiIohjo/rWFG9N+g8GSFffMV2zltiM/wCrph9kr7YBbsZf4eb0W+D7gUiQ8FU+DBpnvjr/AGUB8Gq2ERa1wrIrfbqmtmOkVPE6V5PQ0En1KF5QUsseX9PX1AHlN0qJq+X0mR508AFPUREWrcayO3W2qrpTpFTQvmefQ1pJ9SqiKGoixRlQyqe51S+nrJ5S86nafDtkd7tFcI4IoDmKGQXnBNcN00d9igaf2ZGuDh4BSu61F1pmMfbLfT1vHbZJU8i70aHZIPbouG/GF1oj/KOCr2wfLozFVN+y8O8F825p4VY8R11XU22Q/EuFFLBp2ubp4rv2/EtjuwBt14oKvXmhqGOPcDqunqFlRjENFM/FGG7hFE5zKZ9UyZ4G5jHwOOp6BtMaOshRH3P8YGX1RPpvnuMz/Bo9itVEUex6/Yy+xE7/AFbUf3ZUGzNd5PkDHFw1pqOPxZ+CsfDsfI4atcXyKOFvcwLpoi0L23asdwb000g+wVCMjP8AJTbP9pN/eFWMiIiIh4L891lTKcvcyrixpMlyvppI9Occo1unc4hXtZ6Ftrs1DQNADaanjhAH7LQPYt5FWUINR7omqcN4prA1p9GsgPtWMLEVOeWNpxv5CmpYdetoPsVnIiIiIiiGOP8AGOEG9N8j8IpSs5oP2MscQn/uTx36BdTB7OTwVYmdFvg/u2rtLBVUYRGzn9jZvTTQnwYrYRFA84Li+iy5r6eD+k3B8dDENeJkdoR9UOUvs9vZabLQ26MDYpYGQjT9loHsW6iIiieY8rjg6ehjcRNcpoaBmn/ayNafsly4uJWMbnDgKFo0ZHDXbIHMBEAFYwRQHMNonxFgan6b22XT6DHFT7mWNAsPjZIwskY17TxDhqFHrjgHCV1JdWYdt0jzxe2AMd9ZuhXMGWdupDrZ7vfrTpwbS3F7mD9yTaC+jbPji3EGkxPRXJg4R3Og2XfXiI+6uw+ouLcNVk11p6enqmQylzaaYyM0DToQS1p39Gm5RHIqDkcq7e7nklmf9sj2KyERRbMh+xltiM/6vmHe3RQzOkGDJ6mg+VLSx6dQ19itShj5Khp4/kxNb3ALYRFq3Ju3a6tvTC8fZKgORbtcqrd6JZx/aFWQiIiIsHgvz3hWojxJRWTCVG4PmlvM93ubhvEMUcp2Wn0uIb4dKuC93rEFordqlw0+624tBL6SpaJ2HnBjfoCOjRy0IM0cNcsKe5TVVmqT/VXWlfTn6xGz4qWUddSXCnFRRVUNTCeEkMge09oVeYaPleeOM6kcKWkpaYHraD/CvOXOlRmBmFW8dbjHAD9AOCs1EREREUOxsdb3g1nTege6CVfLNt/J5VX8/wDd2jve0KR4cbsYYtTPk0cI+wF00VVYeHJe6JxYz5y3QvHdErVRFWWNj7+ZpYNw6NHRUr33Spb0Bm5mvaD3qzRwRERFDMUO8vx1hG066sjmnuUregRR7LPtSDuXMxC7azwwYzX4FHWO72kexWMir/GrtvMjAEHTVVUn1Yf/ADVgDgiIiLjYtm8nwde5ddNignP9mVwsooeQyrsDdNNqBz/rPcfapsiKIZpE/mzvrRxfThg/ec0e1RbPYbOC7RSD+tusEenTo1ytcDQaLKIvjVjapJm9Mbh4KusiDrlfSN+TUzj7f/mrLREREXKxHfKXDmHq671jtIKWIvI53HgGj0kkDtUAyOwmbPhaS+VcWzX3h3LbxvZDrqwdupd2hWoRqvjUUsFXE6KohjmidxZI0OaewrTt9rtGH4jBb6SkoI6iXa5OFgjD5COYDidB4KDZYOFdiLHV2aNWz3gwNd0tjGntXjJlpnocUXI7/K77UOB6QNPxKs5EREREUNxlvxPgpn+tnnup5Vo50ycnlPed/wAIRN/tGqa2tnJ2mjZw2YGDuaFtoqpoTyHulbm3/OLK13cWfgrWRFUHv3b8MZ1X254plfQx1NLFTWyeWJxifGAC7zwCAdR61aFtvVsu8IlttwpathGusErX+ore1CzqiIoPaz755vX2pG9lqt1PQtPNtyEyu8A1c68NMmfuGwOENpqHn0alw/BWSirvE55XOjA8PNHBWyd7APYrERERFFcy5vJ8tcQya6fqMjR2jT2r65e05pcu8PRHiLfCT1loPtUlRFDszjrgWph+fqaSL61RGFF87v0rcI0vzt7i3eH8StkIiLzINpjh0ghVlkMf8HbmfIr52+IKs9ERERVNnA6S+3jCuCoXFrbnWctU6fNM/wDdx/dCtWCKOCBkMTAyONoaxoG4AbgO5fRYJVfVd19+Md1dY12townTSvlf8V9Y5h1Hp2I9eouWvlKx1syobc6jc+qdUV8h6yd/c0L7ZJU74ssaGeQaPq5pqg9ryPYrERERERFDcW+djPBDP9YTu7qaRcnPE65Y1UXztTTs/tAfYrEhbsQRtHM0DwX0RVTcG+S+6StL+Hldnezr02z/AAq1kRa9XQ0tfTup6ymiqIXfCjmYHtPYVC7jk/g2tl5ent0ltqBvE1vmdC4dQG7wXP8AyCxnZ9Pyfx/Vvjb8GC6wicdW1x8F59/c1LLuuGGLZeomnfLbqnk3kfRd+C9szntlG/k8Q2K92SQHQmppS5n1hv8ABSa1Zg4SvWgoMQUEjjwY+URv+q7QqRhwewOaQQRuI3gqBzXG1ZaU19vF9r4zNc7hJVRxR75Xt0DWMa07yQG7zwGvFamCaS94lxdNjm90HvbE6j8kt1E4kyCIu2i9/pPN18OmyUVb3sOdn1hjUeY211LgfT5wPsVkaoiIigectSKbKm+EnQvZHGP3pGhSrD0Pk2G7XBppyVJEzTqYF0kRQ7MXz7ZZ6f8Azi90LNOnSUO/hUZzZAmxdl9S8eUu21p1Oj/FWuiIiq7Ig6YLuMfzd1nHg1WiiIiIqrxQ9tFn5g+qqd0E9HNTxOPASefu+0B2q0mOa7XQg6HQ6cxR7wxpc4gADUk8AoPd8WVV+mlsmCnsqasnYqbqBtU1COc7XB8nQ0a7+K4uO6WkwTlHJYLZtOqK9zaKIvdrJUSynz3uPO4ja17F1MauiwbkxWUkTg3kLeyhi053OAj9pKkeC7X7y4Ls1uI0fBRxtf8AS2QXeJK7qIiIiIoZig65g4IZ/wBvVv7oCPauRnYdrCFtp+eou9NGB2k+xWSOCyiqvHANHnVgKu00bNy9MT2bh9tWoOCIiIi8SRslYWPa1zXDQtcNQexRq6Zc4QvOprcPUDnHi+OPknd7NCo1LkraoBpZb9frQ35umrCWdx3+K3cO5Q2Cx3Nt1qpau8XJp1ZUXGTlNg9IHDX0nXRWAiKP4nwbaMWxQNucUnK07i6CogkMcsRPHZcOno4KMjL/ABPat9gzAubWN+DDcom1TerU7x3J5fmpaNRUWeyX2JvxqOd1PIR1P3a9SfnXZb3bOIsK3+0EcZXU3LRfXb+C7lqzKwbedkUeIaHbdwjlk5J3c/RSeOaOaMSRPa9h4OadQe0L3rqqzzvJlwTS0DT51dc6eADp1JPsCsqNjY42saNGtGgHoC9IihmOTyt3wdS/LvbJNPoRSO/BRrMI8tm3l5TcdmeWXTq2T7FbA4IiIqtyOBjsWIYDuMV7naR2NVpIiIiKIZh4LbjOwNhgn8mudJIKihqddOTkHMSN+h3dWgPMoDRYwtjLn5Bj2Cuw1iRrRHJX0s0kMVWBuDyWHQ9ZBHpHASttpwJc4mz1t/bd4eIFbeXSx9rNsNPaFsXDMnAmFaEU8FzonCMbMVHbWiQ9QDNw7SFwsP2u949xdS4uxHRPt9ot+rrTbpvhucf6147iOocw34x7UDGWPbFgijdykFNOLhdXN3hjG/BY70nX7TVa44LKIiIiIoViF23mng2MfEhr5T9RjfauNm8DUVOC6Ef11+hOnV/7qzgiKrs4iaKTCF6HChvcW0ehrt5+6rQBWURERERERERY0BTQLh3XBmGr1r742OgqHHi90DQ76w3+Ki8mTlhp3ulsVfeLJJrqPIa1wb9V2q+T8N5l2YH3pxhSXWMbxDdaXZd9dupK0qqyY7xfesPx4jtVsoaG2VwrZZqaq2+VLR5oDd5G/wBPOrWCyiKE4lcJsy8E03HYNbUkfRhDR99R/FLfKPdBYNh48jRzTadYk/BWsiIirXKaLyasxrTaabGIJzp1gKykREREXLvuHrViS3voLtQxVVO4bg9u9p6Wni0+kKjrlkJcLPczW2NtBeqTXUUVyLo3AdG00gHr1HUutaJMTYck0o8m6COobwnp6hnH6R1Piu3JPm3iNnIR0NrwzTv3PqHS8tM0fsgEjXsHWpVgrA1BgyjmbBJLV19U7bq66ffJO72D0d+pUqREREREUIuJ5bOSyxfMWeql+tJG32LlZhnl8xsvKMcfLpZz+41p9isscFlFAs4rLUXvLe4spGl9TTFlVG1o1J2DqdPTs7SkOEL9T4lwrbrrTyB4ngaX6H4LwNHNPpB1XcREREREREREREREREUErHGozutkPEUtjnm6i+Vrf4VwZ3Gr90tSjiKSyk9Wu1/zq2UREVfYmy/r33qXEmEbzJabzJoZ43edT1RA3bbeY7uOh6udcygzXqbFWstWYNnls9UdzK2JpfTTekEa6dmvp0VlUNxo7lSMqqGphqad41bLC8Pae0LaRERERNAiIiIiIiIoPCeXztqnaaimsEbNegvnJ9TVy8SgVOeuDoDv8no6qfq1BHsVljgFlFgjUEKvpsE3fDNzqLpgaqp4Y6l3KVNnq9fJ5Xc7oyN8bvDs3L0zNKltc7KXF1or8PVDjoJJmcrTvP7MrNx7QplbbxbbxTiottfTVcR+PBIHjw4Ld1HSsoiIiIiIiIiIiIiKAWo+U524im4+R2mlp+rbc564mHCK33RGK6jiKSgjgHoJEf4FW0iIiLUuNsobtRSUdwpIaqmeNHRTMDmnsKrGuyfqrLWPuWAL/U2Wocdp1JK8vgf6Oc94cvizMzF2EXCDHeF5TTg6e+VtG0wjpI4eI6lPMOY6w1ipgNpu1PNKRryDjsSj9w6FSLULKIiIiIiIiIiIeCg2Hf1jNbGU/EQQ0NMOvYc8/eXLkJq/dFwt+LR2EnqLpD/zKzUREXynpYKqF8NRCyaJ40dHI0Oa7rB3Kv7vk1hyrqTW2Z9XYa/i2a3SljdfocO7Rcs0ebWE99LW0OKaJv8AV1A5OfTr3antK+1LnZQUc7aTFdjulgqddCZoS+M9RAB8FO7NimxYgjD7TdqSs137MUoLh1t4juXY1REREREREREREQ8FAMEDyjHePa/jtV8NKD/s4tNO8riZWAVuYWYN14h1wEDD6Guf7AFbSIiIiLy6Nr2lrhq07iDwKgmIsoMI3+R1Q2hNurddRUUB5Ig9Oz8E9yj3vBmlgvfZbxBiW3s4UtcNmUDoBJ/i7Ft0GddBS1LaHF1muGH6zgTNEXxH0g6a6dh61YdrvdsvdMKi119NWRH40Egfp16cO1dBEREREREREWDwKhGBBy9+xrXafDvToAekRRMb7SuZYD5Tn3iuYbxTW6ng16NrZd7FZaIiIiL4VdHTV0DoKuninhdxjlYHtPYVA7xkvg26SctT0MlrqeImoJTHoenZ3t7guT+Q+Y+GwThzGguFO0ebS3Vm1u6No7XsT84uOcPjTE+BJ5Ym/CqrW/lG9ennDxC69qzpwTcn8lLcX26fgYq6IxkH0u3t8VN6K6UFzi5Wgraeqj+VBK148CtrVZRERERERERYKgOVuj7ViC5O41t8rJtelocGj7q5mRlPtYVut0dvfcLrPLr0gaD16q0kREREREWpX22iulM6mr6SCqgdxjnjD29xVe3TJLD8tSa2wVdbYK4b2yUUp2Nfok69xC0NnN3CG5rqHFdCzmd+jqNPAk/WW5b87rKypFHiW23HD9ZroW1cJczvA18FYFqvtqvkAntdxpayPTXWCUP069OC3wQeCyiIiIiIiFQfK08rhmurhv8ALbtW1GvTrM5v8K5eXjfKcx8wq87/ANeipwfoNcPYFZiIiIiIiLGgXKuuGLFfGFt0tFFV6/GlhaXd/FQiuyOwrJMZ7VJcbPUcQ+iqSND1O18Ctb8isyrGdbHjplfEBugukOvZtecfUvQxdmfZdBeMEQXKMcZbZPvP7vnHwC+kGeOH4niK9228WabXQiqpSWjtG/wUqteYeEbwQKPENvc48GPmEbu52hUjjljmYHxPa9h4OadQe5e9QiIiIiIvEzxHE954NaT3BVxgeoZaMj2XGd/J/qlTWOc487nPcPWF2MqbabXljYYHN2Xvp+XcCN+shL/UQpkiIiIiIiImgWpX2ugutOae4UdPVQniyeMPHcVX90ySwvVTmqtLq2yVfFslBMQAfonh2ELR94s2MLnW136ixFSNO6G4M2JdPpH/AJl6ZnDX2Vwixjg66WsjjUQN5WI+nXd4EqWWTMjCN/2RQ36kMjuEUzuSf9V2mvYpUHNc0OBBB4HpWUREREXwrJxTUU854RRueewEqK5WQOp8srCHDzpKflj6dtxf/EuVlFCX0GJLk46muvlS8Hpa0ho9qsZEREREREREQjVfKemhqYzHPFHKw8WyNDgewqMXPLLBd2LjVYdoQ53F0LOSPezRRyTJGy0zuUsl5vdok4jyarJaOw7/ABXn8jMyLU7W04/bWMA3R3KlB+15xT32zetTT5Th6y3djfjUlQY3HscR6kObN1t2nv5gC/UY+M+BvLNHboFtUmeOCJ3iOorKqhkPxaqle3T6uoUgosxMHV5Ap8S2wk8A+oDD3O0Xcp7pQVY1pq2mmHTHM13qK2tfQVlNR0pqvhVwippJoC8sEsbmbQ4jUaaqocS05uZseU1jnfJFTxRG8VTBpyUEYG49DnHQ6elo51cNPDHT08cELAyKNoYxo5gBoB3L6IiIiIiIiIiIvLo2vaWuALTxBGoKid6yxwdftp1bYqVsrv62nHIv69Waa9qi7soK+zEyYSxpdrZpvbBO7lourTd6iseWZwYf1E9BacRQN+PA/kpSOrzfUV9I86qe3PEWJ8MXqyv53PhMkffuPgpRasy8G3ktFHiGi23DcyZ/JO7n6KURzRzMD4ntew8HNOoPaF7B1REWpdKL3ytNZQcq6LymB8PKNGpZtNI1HVqteJtFhnDscb5GxUNupQ0vduDWMbpqewKOZS05hy1tMjmOa+pEtS7a4nlJHOB7iFNkRERERERERERERFq1Vtoa4aVdHT1APESxNf6wuBWZb4MrnF0+GbbqeJZAGH7Oi4lRkjgWd+3HapaZ3M6Cqkbp4lazslbTFvt+IMR0J5uSrtw8F7bljfqcaUmY+IWAcBM4S+srJwNj6L+YzLqCOiW3Ru8dV7bhLMcccxo9P90xn2r6jB+PXDSTMd+/5FqiHtXdwfg2iwhQzRwySVVZUyGWrrZ98s7+kno3nQKSIiIiIiIiIiIiIiLzJGyVhY9rXNO4tcNQexRe65b4PvRc6tw9Ql7uMkTOSd3s0UXkyRttG/lcPYgvdmkB1AgqS5g7Nx8Vj8ms17MD73Yvt91jHCO4U+y49oBPisnF+Z9qcBc8BwV7Bxkt1Vx7NXHwWPzz+SO2btgvEdERxPk+20dp0X1Zntg4nSb3zpz0S0Z1HcSsy55YWe3ZtsF1uNQfgw09G7Uno36LXitGKsy6pkuJ6V9jwyxwe21B/wCnqyOHKnmb6N3Vzq0ooo4ImRRMayNjQ1rWjQNA3AAL2iIiIiIiIiIiIiIiIiIiIiIiIiIiIiIiIiIiIiLGgKada8vijk+GxrusAoyGOMaRsaz6I0XsDRERERERERERERERERERERERERERERERERERERERERERERERERERERERERERERERERERERERERERERERERERERERERERERERERERERERERERERERERERERERERERERERERf/2Q==;" vertex="1" parent="K79jzFuccfJX-m8LmFL6-1">
          <mxGeometry x="167.5" y="460" width="85" height="85" as="geometry" />
        </mxCell>
        <mxCell id="K79jzFuccfJX-m8LmFL6-74" value="电灯开关" style="text;html=1;strokeColor=none;fillColor=none;align=center;verticalAlign=middle;whiteSpace=wrap;rounded=0;shadow=0;comic=0;fontSize=12;" vertex="1" parent="K79jzFuccfJX-m8LmFL6-1">
          <mxGeometry x="180" y="442" width="60" height="20" as="geometry" />
        </mxCell>
        <mxCell id="K79jzFuccfJX-m8LmFL6-75" value="&lt;span style=&quot;background-color: rgb(248 , 249 , 250)&quot;&gt;&lt;font style=&quot;font-size: 11px&quot;&gt;舵机臂拨动&lt;/font&gt;&lt;/span&gt;" style="endArrow=classic;html=1;strokeWidth=2;fontSize=12;entryX=0.5;entryY=0;entryDx=0;entryDy=0;exitX=0.552;exitY=1.028;exitDx=0;exitDy=0;exitPerimeter=0;" edge="1" parent="K79jzFuccfJX-m8LmFL6-1" source="K79jzFuccfJX-m8LmFL6-6" target="K79jzFuccfJX-m8LmFL6-70">
          <mxGeometry x="0.063" y="40" width="50" height="50" relative="1" as="geometry">
            <mxPoint x="240" y="510" as="sourcePoint" />
            <mxPoint x="290" y="460" as="targetPoint" />
            <mxPoint as="offset" />
          </mxGeometry>
        </mxCell>
      </root>
    </mxGraphModel>
  </diagram>
  <diagram id="Axs9De884FTNatR_fvFL" name="第 3 页">
    <mxGraphModel dx="1038" dy="568" grid="1" gridSize="10" guides="1" tooltips="1" connect="1" arrows="1" fold="1" page="1" pageScale="1" pageWidth="1169" pageHeight="827" math="0" shadow="0">
      <root>
        <mxCell id="_2Ivy49HuG6Gi5U8kJDF-0" />
        <mxCell id="_2Ivy49HuG6Gi5U8kJDF-1" parent="_2Ivy49HuG6Gi5U8kJDF-0" />
        <mxCell id="_2Ivy49HuG6Gi5U8kJDF-2" value="PWM" style="edgeStyle=orthogonalEdgeStyle;rounded=0;orthogonalLoop=1;jettySize=auto;html=1;strokeWidth=3;" parent="_2Ivy49HuG6Gi5U8kJDF-1" source="_2Ivy49HuG6Gi5U8kJDF-5" target="_2Ivy49HuG6Gi5U8kJDF-6" edge="1">
          <mxGeometry x="-0.25" y="-10" relative="1" as="geometry">
            <mxPoint as="offset" />
          </mxGeometry>
        </mxCell>
        <mxCell id="_2Ivy49HuG6Gi5U8kJDF-4" style="edgeStyle=orthogonalEdgeStyle;rounded=0;orthogonalLoop=1;jettySize=auto;html=1;exitX=0.477;exitY=1.001;exitDx=0;exitDy=0;entryX=0.471;entryY=0.019;entryDx=0;entryDy=0;entryPerimeter=0;strokeWidth=1;fontSize=12;exitPerimeter=0;" parent="_2Ivy49HuG6Gi5U8kJDF-1" source="_2Ivy49HuG6Gi5U8kJDF-5" target="_2Ivy49HuG6Gi5U8kJDF-46" edge="1">
          <mxGeometry relative="1" as="geometry">
            <mxPoint x="385" y="469" as="sourcePoint" />
          </mxGeometry>
        </mxCell>
        <mxCell id="_2Ivy49HuG6Gi5U8kJDF-5" value="&lt;font&gt;&lt;b&gt;&lt;font style=&quot;font-size: 25px&quot;&gt;MCU&lt;/font&gt;&lt;/b&gt;&lt;br&gt;&lt;font style=&quot;font-size: 23px&quot;&gt;ESP8266模组&lt;/font&gt;&lt;/font&gt;" style="rounded=1;whiteSpace=wrap;html=1;" parent="_2Ivy49HuG6Gi5U8kJDF-1" vertex="1">
          <mxGeometry x="310" y="360" width="160" height="90" as="geometry" />
        </mxCell>
        <mxCell id="_2Ivy49HuG6Gi5U8kJDF-6" value="&lt;span style=&quot;font-size: 19px&quot;&gt;&lt;b&gt;舵机单元&lt;/b&gt;&lt;/span&gt;" style="rounded=1;whiteSpace=wrap;html=1;" parent="_2Ivy49HuG6Gi5U8kJDF-1" vertex="1">
          <mxGeometry x="88.98" y="370" width="100" height="70" as="geometry" />
        </mxCell>
        <mxCell id="_2Ivy49HuG6Gi5U8kJDF-7" value="&lt;table border=&quot;1&quot; width=&quot;100%&quot; cellpadding=&quot;4&quot; style=&quot;width: 100% ; height: 100% ; border-collapse: collapse ; font-size: 24px&quot;&gt;&lt;tbody&gt;&lt;tr&gt;&lt;th align=&quot;center&quot;&gt;&lt;b&gt;&lt;font style=&quot;font-size: 24px&quot;&gt;步进电机驱动模块&lt;/font&gt;&lt;/b&gt;&lt;/th&gt;&lt;/tr&gt;&lt;tr&gt;&lt;td align=&quot;center&quot;&gt;&lt;font style=&quot;font-size: 24px&quot;&gt;&lt;b&gt;声光模块&lt;/b&gt;&lt;br&gt;&lt;/font&gt;&lt;/td&gt;&lt;/tr&gt;&lt;tr&gt;&lt;td align=&quot;center&quot;&gt;&lt;font style=&quot;font-size: 24px&quot;&gt;&lt;b&gt;按键模块&lt;/b&gt;&lt;br&gt;&lt;/font&gt;&lt;/td&gt;&lt;/tr&gt;&lt;/tbody&gt;&lt;/table&gt;" style="text;html=1;strokeColor=none;fillColor=none;overflow=fill;fontSize=13;strokeWidth=3;rounded=0;shadow=0;comic=0;arcSize=50;absoluteArcSize=0;autosize=0;" parent="_2Ivy49HuG6Gi5U8kJDF-1" vertex="1">
          <mxGeometry x="552.5" y="360" width="220" height="190" as="geometry" />
        </mxCell>
        <mxCell id="_2Ivy49HuG6Gi5U8kJDF-8" value="" style="endArrow=none;html=1;strokeWidth=3;fontSize=13;" parent="_2Ivy49HuG6Gi5U8kJDF-1" edge="1">
          <mxGeometry width="50" height="50" relative="1" as="geometry">
            <mxPoint x="420" y="360" as="sourcePoint" />
            <mxPoint x="420" y="290" as="targetPoint" />
          </mxGeometry>
        </mxCell>
        <mxCell id="_2Ivy49HuG6Gi5U8kJDF-9" value="" style="endArrow=none;html=1;strokeWidth=3;fontSize=13;" parent="_2Ivy49HuG6Gi5U8kJDF-1" edge="1">
          <mxGeometry width="50" height="50" relative="1" as="geometry">
            <mxPoint x="380" y="360" as="sourcePoint" />
            <mxPoint x="380" y="250" as="targetPoint" />
          </mxGeometry>
        </mxCell>
        <mxCell id="_2Ivy49HuG6Gi5U8kJDF-10" value="&lt;b&gt;&lt;font style=&quot;font-size: 16px&quot;&gt;IIC&lt;/font&gt;&lt;/b&gt;" style="text;html=1;strokeColor=none;fillColor=none;align=center;verticalAlign=middle;whiteSpace=wrap;rounded=0;shadow=1;comic=0;fontSize=13;" parent="_2Ivy49HuG6Gi5U8kJDF-1" vertex="1">
          <mxGeometry x="380" y="300" width="40" height="20" as="geometry" />
        </mxCell>
        <mxCell id="_2Ivy49HuG6Gi5U8kJDF-11" value="" style="endArrow=none;html=1;strokeWidth=3;fontSize=13;" parent="_2Ivy49HuG6Gi5U8kJDF-1" source="_2Ivy49HuG6Gi5U8kJDF-13" edge="1">
          <mxGeometry width="50" height="50" relative="1" as="geometry">
            <mxPoint x="520" y="250" as="sourcePoint" />
            <mxPoint x="90" y="250" as="targetPoint" />
          </mxGeometry>
        </mxCell>
        <mxCell id="_2Ivy49HuG6Gi5U8kJDF-12" value="" style="endArrow=none;html=1;strokeWidth=3;fontSize=13;" parent="_2Ivy49HuG6Gi5U8kJDF-1" source="_2Ivy49HuG6Gi5U8kJDF-31" edge="1">
          <mxGeometry width="50" height="50" relative="1" as="geometry">
            <mxPoint x="260" y="290" as="sourcePoint" />
            <mxPoint x="760" y="290" as="targetPoint" />
          </mxGeometry>
        </mxCell>
        <mxCell id="_2Ivy49HuG6Gi5U8kJDF-13" value="" style="ellipse;whiteSpace=wrap;html=1;aspect=fixed;rounded=1;shadow=0;comic=0;strokeWidth=3;fontSize=13;fillColor=#000000;" parent="_2Ivy49HuG6Gi5U8kJDF-1" vertex="1">
          <mxGeometry x="375" y="245" width="10" height="10" as="geometry" />
        </mxCell>
        <mxCell id="_2Ivy49HuG6Gi5U8kJDF-14" value="" style="endArrow=none;html=1;strokeWidth=3;fontSize=13;" parent="_2Ivy49HuG6Gi5U8kJDF-1" source="_2Ivy49HuG6Gi5U8kJDF-29" target="_2Ivy49HuG6Gi5U8kJDF-13" edge="1">
          <mxGeometry width="50" height="50" relative="1" as="geometry">
            <mxPoint x="520" y="250" as="sourcePoint" />
            <mxPoint x="260" y="250" as="targetPoint" />
          </mxGeometry>
        </mxCell>
        <mxCell id="_2Ivy49HuG6Gi5U8kJDF-15" value="" style="ellipse;whiteSpace=wrap;html=1;aspect=fixed;rounded=1;shadow=0;comic=0;strokeWidth=3;fontSize=13;fillColor=#000000;" parent="_2Ivy49HuG6Gi5U8kJDF-1" vertex="1">
          <mxGeometry x="415" y="285" width="10" height="10" as="geometry" />
        </mxCell>
        <mxCell id="_2Ivy49HuG6Gi5U8kJDF-16" value="" style="endArrow=none;html=1;strokeWidth=3;fontSize=13;" parent="_2Ivy49HuG6Gi5U8kJDF-1" source="_2Ivy49HuG6Gi5U8kJDF-27" target="_2Ivy49HuG6Gi5U8kJDF-15" edge="1">
          <mxGeometry width="50" height="50" relative="1" as="geometry">
            <mxPoint x="260" y="290" as="sourcePoint" />
            <mxPoint x="515" y="290" as="targetPoint" />
          </mxGeometry>
        </mxCell>
        <mxCell id="_2Ivy49HuG6Gi5U8kJDF-17" value="SCL" style="text;html=1;strokeColor=none;fillColor=none;align=center;verticalAlign=middle;whiteSpace=wrap;rounded=0;shadow=0;comic=0;fontSize=16;" parent="_2Ivy49HuG6Gi5U8kJDF-1" vertex="1">
          <mxGeometry x="100" y="225" width="40" height="20" as="geometry" />
        </mxCell>
        <mxCell id="_2Ivy49HuG6Gi5U8kJDF-18" value="SDA" style="text;html=1;strokeColor=none;fillColor=none;align=center;verticalAlign=middle;whiteSpace=wrap;rounded=0;shadow=0;comic=0;fontSize=16;" parent="_2Ivy49HuG6Gi5U8kJDF-1" vertex="1">
          <mxGeometry x="100" y="265" width="40" height="20" as="geometry" />
        </mxCell>
        <mxCell id="_2Ivy49HuG6Gi5U8kJDF-19" value="&lt;font style=&quot;font-size: 24px&quot;&gt;超声波测距&lt;br&gt;模块&lt;/font&gt;" style="rounded=1;whiteSpace=wrap;html=1;shadow=0;comic=0;strokeWidth=1;fillColor=#FFFFFF;fontSize=13;" parent="_2Ivy49HuG6Gi5U8kJDF-1" vertex="1">
          <mxGeometry x="160" y="120" width="150" height="90" as="geometry" />
        </mxCell>
        <mxCell id="_2Ivy49HuG6Gi5U8kJDF-20" value="&lt;font style=&quot;font-size: 24px&quot;&gt;电源管理&lt;br&gt;模块&lt;/font&gt;" style="rounded=1;whiteSpace=wrap;html=1;shadow=0;comic=0;strokeWidth=1;fillColor=#FFFFFF;fontSize=13;" parent="_2Ivy49HuG6Gi5U8kJDF-1" vertex="1">
          <mxGeometry x="430" y="120" width="150" height="90" as="geometry" />
        </mxCell>
        <mxCell id="_2Ivy49HuG6Gi5U8kJDF-21" value="" style="endArrow=none;html=1;strokeWidth=3;fontSize=13;" parent="_2Ivy49HuG6Gi5U8kJDF-1" source="_2Ivy49HuG6Gi5U8kJDF-25" edge="1">
          <mxGeometry width="50" height="50" relative="1" as="geometry">
            <mxPoint x="225" y="250" as="sourcePoint" />
            <mxPoint x="225" y="210" as="targetPoint" />
          </mxGeometry>
        </mxCell>
        <mxCell id="_2Ivy49HuG6Gi5U8kJDF-22" value="" style="endArrow=none;html=1;strokeWidth=3;fontSize=13;" parent="_2Ivy49HuG6Gi5U8kJDF-1" edge="1">
          <mxGeometry width="50" height="50" relative="1" as="geometry">
            <mxPoint x="245" y="290" as="sourcePoint" />
            <mxPoint x="245" y="210" as="targetPoint" />
          </mxGeometry>
        </mxCell>
        <mxCell id="_2Ivy49HuG6Gi5U8kJDF-23" value="" style="endArrow=none;html=1;strokeWidth=3;fontSize=13;" parent="_2Ivy49HuG6Gi5U8kJDF-1" edge="1">
          <mxGeometry width="50" height="50" relative="1" as="geometry">
            <mxPoint x="516.5" y="290" as="sourcePoint" />
            <mxPoint x="516.5" y="210" as="targetPoint" />
          </mxGeometry>
        </mxCell>
        <mxCell id="_2Ivy49HuG6Gi5U8kJDF-24" value="" style="endArrow=none;html=1;strokeWidth=3;fontSize=13;" parent="_2Ivy49HuG6Gi5U8kJDF-1" edge="1">
          <mxGeometry width="50" height="50" relative="1" as="geometry">
            <mxPoint x="496.5" y="250" as="sourcePoint" />
            <mxPoint x="496.5" y="210" as="targetPoint" />
          </mxGeometry>
        </mxCell>
        <mxCell id="_2Ivy49HuG6Gi5U8kJDF-25" value="" style="ellipse;whiteSpace=wrap;html=1;aspect=fixed;rounded=1;shadow=0;comic=0;strokeWidth=3;fontSize=13;fillColor=#000000;" parent="_2Ivy49HuG6Gi5U8kJDF-1" vertex="1">
          <mxGeometry x="220" y="245" width="10" height="10" as="geometry" />
        </mxCell>
        <mxCell id="_2Ivy49HuG6Gi5U8kJDF-26" value="" style="endArrow=none;html=1;strokeWidth=3;fontSize=13;" parent="_2Ivy49HuG6Gi5U8kJDF-1" target="_2Ivy49HuG6Gi5U8kJDF-25" edge="1">
          <mxGeometry width="50" height="50" relative="1" as="geometry">
            <mxPoint x="305" y="250" as="sourcePoint" />
            <mxPoint x="305" y="195" as="targetPoint" />
          </mxGeometry>
        </mxCell>
        <mxCell id="_2Ivy49HuG6Gi5U8kJDF-27" value="" style="ellipse;whiteSpace=wrap;html=1;aspect=fixed;rounded=1;shadow=0;comic=0;strokeWidth=3;fontSize=13;fillColor=#000000;" parent="_2Ivy49HuG6Gi5U8kJDF-1" vertex="1">
          <mxGeometry x="240" y="285" width="10" height="10" as="geometry" />
        </mxCell>
        <mxCell id="_2Ivy49HuG6Gi5U8kJDF-28" value="" style="endArrow=none;html=1;strokeWidth=3;fontSize=13;" parent="_2Ivy49HuG6Gi5U8kJDF-1" target="_2Ivy49HuG6Gi5U8kJDF-27" edge="1">
          <mxGeometry width="50" height="50" relative="1" as="geometry">
            <mxPoint x="90" y="290" as="sourcePoint" />
            <mxPoint x="415" y="290" as="targetPoint" />
          </mxGeometry>
        </mxCell>
        <mxCell id="_2Ivy49HuG6Gi5U8kJDF-29" value="" style="ellipse;whiteSpace=wrap;html=1;aspect=fixed;rounded=1;shadow=0;comic=0;strokeWidth=3;fontSize=13;fillColor=#000000;" parent="_2Ivy49HuG6Gi5U8kJDF-1" vertex="1">
          <mxGeometry x="491.5" y="245" width="10" height="10" as="geometry" />
        </mxCell>
        <mxCell id="_2Ivy49HuG6Gi5U8kJDF-30" value="" style="endArrow=none;html=1;strokeWidth=3;fontSize=13;" parent="_2Ivy49HuG6Gi5U8kJDF-1" target="_2Ivy49HuG6Gi5U8kJDF-29" edge="1">
          <mxGeometry width="50" height="50" relative="1" as="geometry">
            <mxPoint x="760" y="250" as="sourcePoint" />
            <mxPoint x="385" y="250" as="targetPoint" />
          </mxGeometry>
        </mxCell>
        <mxCell id="_2Ivy49HuG6Gi5U8kJDF-31" value="" style="ellipse;whiteSpace=wrap;html=1;aspect=fixed;rounded=1;shadow=0;comic=0;strokeWidth=3;fontSize=13;fillColor=#000000;" parent="_2Ivy49HuG6Gi5U8kJDF-1" vertex="1">
          <mxGeometry x="511.5" y="285" width="10" height="10" as="geometry" />
        </mxCell>
        <mxCell id="_2Ivy49HuG6Gi5U8kJDF-32" value="" style="endArrow=none;html=1;strokeWidth=3;fontSize=13;" parent="_2Ivy49HuG6Gi5U8kJDF-1" source="_2Ivy49HuG6Gi5U8kJDF-15" target="_2Ivy49HuG6Gi5U8kJDF-31" edge="1">
          <mxGeometry width="50" height="50" relative="1" as="geometry">
            <mxPoint x="425" y="290" as="sourcePoint" />
            <mxPoint x="515" y="290" as="targetPoint" />
          </mxGeometry>
        </mxCell>
        <mxCell id="_2Ivy49HuG6Gi5U8kJDF-33" value="&lt;font style=&quot;font-size: 24px&quot;&gt;OLED显示&lt;br&gt;模块&lt;/font&gt;" style="rounded=1;whiteSpace=wrap;html=1;shadow=0;comic=0;strokeWidth=1;fillColor=#FFFFFF;fontSize=13;" parent="_2Ivy49HuG6Gi5U8kJDF-1" vertex="1">
          <mxGeometry x="605" y="120" width="150" height="90" as="geometry" />
        </mxCell>
        <mxCell id="_2Ivy49HuG6Gi5U8kJDF-34" value="" style="endArrow=none;html=1;strokeWidth=3;fontSize=13;" parent="_2Ivy49HuG6Gi5U8kJDF-1" edge="1">
          <mxGeometry width="50" height="50" relative="1" as="geometry">
            <mxPoint x="680" y="290" as="sourcePoint" />
            <mxPoint x="680" y="210" as="targetPoint" />
          </mxGeometry>
        </mxCell>
        <mxCell id="_2Ivy49HuG6Gi5U8kJDF-35" value="" style="endArrow=none;html=1;strokeWidth=3;fontSize=13;" parent="_2Ivy49HuG6Gi5U8kJDF-1" edge="1">
          <mxGeometry width="50" height="50" relative="1" as="geometry">
            <mxPoint x="660" y="250" as="sourcePoint" />
            <mxPoint x="660" y="210" as="targetPoint" />
          </mxGeometry>
        </mxCell>
        <mxCell id="_2Ivy49HuG6Gi5U8kJDF-36" value="" style="ellipse;whiteSpace=wrap;html=1;aspect=fixed;rounded=1;shadow=0;comic=0;strokeWidth=3;fontSize=13;fillColor=#000000;" parent="_2Ivy49HuG6Gi5U8kJDF-1" vertex="1">
          <mxGeometry x="655" y="245" width="10" height="10" as="geometry" />
        </mxCell>
        <mxCell id="_2Ivy49HuG6Gi5U8kJDF-37" value="" style="ellipse;whiteSpace=wrap;html=1;aspect=fixed;rounded=1;shadow=0;comic=0;strokeWidth=3;fontSize=13;fillColor=#000000;" parent="_2Ivy49HuG6Gi5U8kJDF-1" vertex="1">
          <mxGeometry x="675" y="285" width="10" height="10" as="geometry" />
        </mxCell>
        <mxCell id="_2Ivy49HuG6Gi5U8kJDF-38" style="edgeStyle=orthogonalEdgeStyle;rounded=0;orthogonalLoop=1;jettySize=auto;html=1;strokeWidth=3;fontSize=13;entryX=0.5;entryY=0;entryDx=0;entryDy=0;dashed=1;" parent="_2Ivy49HuG6Gi5U8kJDF-1" source="_2Ivy49HuG6Gi5U8kJDF-40" target="_2Ivy49HuG6Gi5U8kJDF-6" edge="1">
          <mxGeometry relative="1" as="geometry">
            <mxPoint x="255" y="330" as="targetPoint" />
            <Array as="points">
              <mxPoint x="663" y="330" />
              <mxPoint x="139" y="330" />
            </Array>
          </mxGeometry>
        </mxCell>
        <mxCell id="_2Ivy49HuG6Gi5U8kJDF-39" value="&lt;font style=&quot;font-size: 16px&quot;&gt;机电传动装置&lt;/font&gt;" style="edgeLabel;html=1;align=center;verticalAlign=middle;resizable=0;points=[];fontSize=13;" parent="_2Ivy49HuG6Gi5U8kJDF-38" vertex="1" connectable="0">
          <mxGeometry x="0.5671" y="-1" relative="1" as="geometry">
            <mxPoint x="40.290000000000006" y="-9" as="offset" />
          </mxGeometry>
        </mxCell>
        <mxCell id="_2Ivy49HuG6Gi5U8kJDF-40" value="" style="rounded=1;whiteSpace=wrap;html=1;shadow=0;comic=0;strokeWidth=1;fillColor=none;fontSize=13;dashed=1;" parent="_2Ivy49HuG6Gi5U8kJDF-1" vertex="1">
          <mxGeometry x="559.38" y="370.75" width="206.25" height="38.5" as="geometry" />
        </mxCell>
        <mxCell id="_2Ivy49HuG6Gi5U8kJDF-42" value="" style="endArrow=classic;html=1;strokeWidth=3;fontSize=13;entryX=0;entryY=0.5;entryDx=0;entryDy=0;" parent="_2Ivy49HuG6Gi5U8kJDF-1" edge="1">
          <mxGeometry width="50" height="50" relative="1" as="geometry">
            <mxPoint x="503" y="450" as="sourcePoint" />
            <mxPoint x="552.5" y="525" as="targetPoint" />
            <Array as="points">
              <mxPoint x="502.5" y="525" />
            </Array>
          </mxGeometry>
        </mxCell>
        <mxCell id="_2Ivy49HuG6Gi5U8kJDF-43" value="" style="shape=image;html=1;verticalLabelPosition=bottom;labelBackgroundColor=#ffffff;verticalAlign=top;imageAspect=0;image=img/clipart/Gear_128x128.png;rounded=0;shadow=0;dashed=1;comic=0;strokeWidth=1;fillColor=none;fontSize=12;" parent="_2Ivy49HuG6Gi5U8kJDF-1" vertex="1">
          <mxGeometry x="188.98000000000002" y="310" width="20" height="20" as="geometry" />
        </mxCell>
        <mxCell id="_2Ivy49HuG6Gi5U8kJDF-44" value="" style="shape=mxgraph.signs.tech.rss;html=1;pointerEvents=1;fillColor=#000000;strokeColor=none;verticalLabelPosition=bottom;verticalAlign=top;align=center;rounded=0;shadow=0;dashed=1;comic=0;fontSize=12;rotation=-45;" parent="_2Ivy49HuG6Gi5U8kJDF-1" vertex="1">
          <mxGeometry x="420" y="484" width="30" height="30" as="geometry" />
        </mxCell>
        <mxCell id="_2Ivy49HuG6Gi5U8kJDF-45" value="&lt;font style=&quot;font-size: 20px&quot;&gt;AP+STA&lt;/font&gt;" style="text;html=1;strokeColor=none;fillColor=none;align=center;verticalAlign=middle;whiteSpace=wrap;rounded=0;shadow=0;dashed=1;comic=0;fontSize=12;" parent="_2Ivy49HuG6Gi5U8kJDF-1" vertex="1">
          <mxGeometry x="327.5" y="486.5" width="85" height="31" as="geometry" />
        </mxCell>
        <mxCell id="_2Ivy49HuG6Gi5U8kJDF-46" value="" style="rounded=1;whiteSpace=wrap;html=1;shadow=0;dashed=1;comic=0;strokeWidth=1;fillColor=none;fontSize=12;" parent="_2Ivy49HuG6Gi5U8kJDF-1" vertex="1">
          <mxGeometry x="322.26" y="484" width="139.52" height="36" as="geometry" />
        </mxCell>
        <mxCell id="_2Ivy49HuG6Gi5U8kJDF-47" value="" style="aspect=fixed;pointerEvents=1;shadow=0;dashed=0;html=1;strokeColor=none;labelPosition=center;verticalLabelPosition=bottom;verticalAlign=top;align=center;fillColor=#000;shape=mxgraph.mscae.enterprise.internet_hollow;rounded=0;comic=0;fontSize=12;" parent="_2Ivy49HuG6Gi5U8kJDF-1" vertex="1">
          <mxGeometry x="316.29" y="600" width="191.95" height="119" as="geometry" />
        </mxCell>
        <mxCell id="_2Ivy49HuG6Gi5U8kJDF-48" value="" style="endArrow=async;html=1;strokeWidth=2;fontSize=12;endFill=0;dashed=1;" parent="_2Ivy49HuG6Gi5U8kJDF-1" edge="1">
          <mxGeometry width="50" height="50" relative="1" as="geometry">
            <mxPoint x="400" y="600" as="sourcePoint" />
            <mxPoint x="400" y="530" as="targetPoint" />
          </mxGeometry>
        </mxCell>
        <mxCell id="_2Ivy49HuG6Gi5U8kJDF-49" value="" style="endArrow=async;html=1;strokeWidth=2;fontSize=12;endFill=0;dashed=1;" parent="_2Ivy49HuG6Gi5U8kJDF-1" edge="1">
          <mxGeometry width="50" height="50" relative="1" as="geometry">
            <mxPoint x="415" y="531" as="sourcePoint" />
            <mxPoint x="415" y="600" as="targetPoint" />
          </mxGeometry>
        </mxCell>
        <mxCell id="_2Ivy49HuG6Gi5U8kJDF-50" value="&lt;font style=&quot;font-size: 22px&quot;&gt;&lt;b style=&quot;color: rgb(0 , 0 , 0) ; font-family: &amp;#34;helvetica&amp;#34; ; font-style: normal ; letter-spacing: normal ; text-align: center ; text-indent: 0px ; text-transform: none ; word-spacing: 0px ; background-color: rgb(248 , 249 , 250)&quot;&gt;阿里云IoT&lt;/b&gt;&lt;br&gt;&lt;/font&gt;" style="text;html=1;strokeColor=none;fillColor=none;align=center;verticalAlign=middle;whiteSpace=wrap;rounded=0;shadow=0;dashed=1;comic=0;fontSize=12;" parent="_2Ivy49HuG6Gi5U8kJDF-1" vertex="1">
          <mxGeometry x="352.26" y="658.7699999999999" width="120" height="30" as="geometry" />
        </mxCell>
        <mxCell id="_2Ivy49HuG6Gi5U8kJDF-51" value="" style="endArrow=async;html=1;strokeWidth=2;fontSize=12;endFill=0;dashed=1;" parent="_2Ivy49HuG6Gi5U8kJDF-1" edge="1">
          <mxGeometry width="50" height="50" relative="1" as="geometry">
            <mxPoint x="315.88999999999993" y="688.4399999999999" as="sourcePoint" />
            <mxPoint x="281.29" y="688.4399999999999" as="targetPoint" />
          </mxGeometry>
        </mxCell>
        <mxCell id="_2Ivy49HuG6Gi5U8kJDF-52" value="" style="endArrow=async;html=1;strokeWidth=2;fontSize=12;endFill=0;dashed=1;" parent="_2Ivy49HuG6Gi5U8kJDF-1" edge="1">
          <mxGeometry width="50" height="50" relative="1" as="geometry">
            <mxPoint x="281.29" y="678.4399999999999" as="sourcePoint" />
            <mxPoint x="316.29" y="678.4399999999999" as="targetPoint" />
          </mxGeometry>
        </mxCell>
        <mxCell id="_2Ivy49HuG6Gi5U8kJDF-53" value="" style="endArrow=async;html=1;strokeWidth=2;fontSize=12;endFill=0;dashed=1;" parent="_2Ivy49HuG6Gi5U8kJDF-1" edge="1">
          <mxGeometry width="50" height="50" relative="1" as="geometry">
            <mxPoint x="546.0999999999999" y="685.8699999999998" as="sourcePoint" />
            <mxPoint x="511.5" y="685.8699999999998" as="targetPoint" />
          </mxGeometry>
        </mxCell>
        <mxCell id="_2Ivy49HuG6Gi5U8kJDF-54" value="" style="endArrow=async;html=1;strokeWidth=2;fontSize=12;endFill=0;dashed=1;" parent="_2Ivy49HuG6Gi5U8kJDF-1" edge="1">
          <mxGeometry width="50" height="50" relative="1" as="geometry">
            <mxPoint x="511.5" y="675.8699999999998" as="sourcePoint" />
            <mxPoint x="546.5" y="675.8699999999998" as="targetPoint" />
          </mxGeometry>
        </mxCell>
        <mxCell id="_2Ivy49HuG6Gi5U8kJDF-55" value="&lt;font style=&quot;font-size: 18px&quot;&gt;控制终端&lt;br&gt;微信小程序&lt;/font&gt;" style="text;html=1;strokeColor=none;fillColor=none;align=center;verticalAlign=middle;whiteSpace=wrap;rounded=0;shadow=0;dashed=1;comic=0;fontSize=12;" parent="_2Ivy49HuG6Gi5U8kJDF-1" vertex="1">
          <mxGeometry x="86.48" y="633.5899999999999" width="95" height="47.28" as="geometry" />
        </mxCell>
        <mxCell id="_2Ivy49HuG6Gi5U8kJDF-56" value="" style="fillColor=#36B37E;strokeColor=none;rounded=1;arcSize=50;shadow=0;dashed=1;comic=0;fontSize=12;" parent="_2Ivy49HuG6Gi5U8kJDF-1" vertex="1">
          <mxGeometry x="113.98" y="680.87" width="40" height="20" as="geometry" />
        </mxCell>
        <mxCell id="_2Ivy49HuG6Gi5U8kJDF-57" value="" style="shape=ellipse;strokeColor=none;fillColor=#ffffff" parent="_2Ivy49HuG6Gi5U8kJDF-56" vertex="1">
          <mxGeometry x="1" y="0.5" width="12" height="12" relative="1" as="geometry">
            <mxPoint x="-14" y="-6" as="offset" />
          </mxGeometry>
        </mxCell>
        <mxCell id="_2Ivy49HuG6Gi5U8kJDF-58" value="" style="html=1;shadow=0;dashed=0;shape=mxgraph.atlassian.check;strokeColor=#ffffff" parent="_2Ivy49HuG6Gi5U8kJDF-56" vertex="1">
          <mxGeometry y="0.5" width="6" height="5" relative="1" as="geometry">
            <mxPoint x="4" y="-3" as="offset" />
          </mxGeometry>
        </mxCell>
        <mxCell id="_2Ivy49HuG6Gi5U8kJDF-59" value="" style="outlineConnect=0;fontColor=#232F3E;gradientColor=none;fillColor=#232F3E;strokeColor=none;dashed=0;verticalLabelPosition=bottom;verticalAlign=top;align=center;html=1;fontSize=12;fontStyle=0;aspect=fixed;pointerEvents=1;shape=mxgraph.aws4.client;rounded=0;shadow=0;comic=0;" parent="_2Ivy49HuG6Gi5U8kJDF-1" vertex="1">
          <mxGeometry x="552.5" y="633.5899999999999" width="82.48" height="80.36" as="geometry" />
        </mxCell>
        <mxCell id="_2Ivy49HuG6Gi5U8kJDF-60" value="&lt;font style=&quot;font-size: 22px&quot;&gt;服务器端&lt;br&gt;账户设备管理&lt;/font&gt;" style="text;html=1;strokeColor=none;fillColor=none;align=center;verticalAlign=middle;whiteSpace=wrap;rounded=0;shadow=0;dashed=1;comic=0;fontSize=12;" parent="_2Ivy49HuG6Gi5U8kJDF-1" vertex="1">
          <mxGeometry x="637.5" y="649.56" width="135" height="69.44" as="geometry" />
        </mxCell>
        <mxCell id="_2Ivy49HuG6Gi5U8kJDF-61" value="sever" style="text;html=1;strokeColor=none;fillColor=none;align=center;verticalAlign=middle;whiteSpace=wrap;rounded=0;shadow=0;dashed=1;comic=0;fontSize=12;" parent="_2Ivy49HuG6Gi5U8kJDF-1" vertex="1">
          <mxGeometry x="800" y="793" width="40" height="20" as="geometry" />
        </mxCell>
        <mxCell id="_2Ivy49HuG6Gi5U8kJDF-62" value="" style="endArrow=async;html=1;strokeWidth=2;fontSize=12;endFill=0;dashed=1;" parent="_2Ivy49HuG6Gi5U8kJDF-1" edge="1">
          <mxGeometry width="50" height="50" relative="1" as="geometry">
            <mxPoint x="300" y="606" as="sourcePoint" />
            <mxPoint x="375" y="531" as="targetPoint" />
          </mxGeometry>
        </mxCell>
        <mxCell id="_2Ivy49HuG6Gi5U8kJDF-63" value="" style="endArrow=async;html=1;strokeWidth=2;fontSize=12;endFill=0;dashed=1;" parent="_2Ivy49HuG6Gi5U8kJDF-1" edge="1">
          <mxGeometry width="50" height="50" relative="1" as="geometry">
            <mxPoint x="380" y="536" as="sourcePoint" />
            <mxPoint x="305" y="611" as="targetPoint" />
          </mxGeometry>
        </mxCell>
        <mxCell id="_2Ivy49HuG6Gi5U8kJDF-64" value="" style="outlineConnect=0;gradientColor=none;fontColor=#545B64;strokeColor=none;fillColor=#000000;dashed=0;verticalLabelPosition=bottom;verticalAlign=top;align=center;html=1;fontSize=12;fontStyle=0;aspect=fixed;shape=mxgraph.aws4.illustration_devices;pointerEvents=1;rounded=0;shadow=0;comic=0;" parent="_2Ivy49HuG6Gi5U8kJDF-1" vertex="1">
          <mxGeometry x="181.48" y="633.59" width="93.52" height="68.28" as="geometry" />
        </mxCell>
        <mxCell id="_2Ivy49HuG6Gi5U8kJDF-65" value="" style="outlineConnect=0;fontColor=#232F3E;gradientColor=none;fillColor=#000000;strokeColor=none;dashed=0;verticalLabelPosition=bottom;verticalAlign=top;align=center;html=1;fontSize=12;fontStyle=0;aspect=fixed;pointerEvents=1;shape=mxgraph.aws4.instance_with_cloudwatch2;rounded=0;shadow=0;comic=0;" parent="_2Ivy49HuG6Gi5U8kJDF-1" vertex="1">
          <mxGeometry x="322.26" y="370" width="30" height="30" as="geometry" />
        </mxCell>
        <mxCell id="_2Ivy49HuG6Gi5U8kJDF-66" value="&lt;br&gt;&lt;span style=&quot;font-size: 10px&quot;&gt;&lt;br&gt;&lt;/span&gt;" style="aspect=fixed;pointerEvents=1;shadow=0;dashed=0;html=1;strokeColor=none;labelPosition=center;verticalLabelPosition=bottom;verticalAlign=top;align=center;fillColor=#000000;shape=mxgraph.mscae.enterprise.router;rounded=0;comic=0;fontSize=12;" parent="_2Ivy49HuG6Gi5U8kJDF-1" vertex="1">
          <mxGeometry x="317.5" y="540" width="25" height="19.5" as="geometry" />
        </mxCell>
        <mxCell id="_2Ivy49HuG6Gi5U8kJDF-67" value="router" style="text;html=1;strokeColor=none;fillColor=none;align=center;verticalAlign=middle;whiteSpace=wrap;rounded=0;shadow=0;dashed=1;comic=0;fontSize=10;" parent="_2Ivy49HuG6Gi5U8kJDF-1" vertex="1">
          <mxGeometry x="310" y="520" width="40" height="20" as="geometry" />
        </mxCell>
        <mxCell id="_2Ivy49HuG6Gi5U8kJDF-68" value="AirKiss" style="text;html=1;strokeColor=none;fillColor=none;align=center;verticalAlign=middle;whiteSpace=wrap;rounded=0;shadow=0;dashed=1;comic=0;fontSize=12;rotation=-45;" parent="_2Ivy49HuG6Gi5U8kJDF-1" vertex="1">
          <mxGeometry x="316.92" y="613.5899999999999" width="40" height="20" as="geometry" />
        </mxCell>
        <mxCell id="_2Ivy49HuG6Gi5U8kJDF-69" value="" style="rounded=1;whiteSpace=wrap;html=1;shadow=0;comic=0;strokeWidth=1;fillColor=none;fontSize=12;" parent="_2Ivy49HuG6Gi5U8kJDF-1" vertex="1">
          <mxGeometry x="86.48" y="484" width="123.52" height="146" as="geometry" />
        </mxCell>
        <mxCell id="_2Ivy49HuG6Gi5U8kJDF-70" value="" style="shape=image;imageAspect=0;aspect=fixed;verticalLabelPosition=bottom;verticalAlign=top;rounded=0;shadow=0;comic=0;strokeColor=#66FF66;strokeWidth=1;fillColor=#000000;fontSize=12;image=data:image/jpeg,/9j/4AAQSkZJRgABAQEBLAEsAAD/2wBDAAgGBgcGBQgHBwcJCQgKDBQNDAsLDBkSEw8UHRofHh0aHBwgJC4nICIsIxwcKDcpLDAxNDQ0Hyc5PTgyPC4zNDL/wAALCAH0AfQBAREA/8QAHAABAAIDAQEBAAAAAAAAAAAAAAYHAQQFAgMI/8QAXxAAAQMCAwMHBQsHBgoIBQUAAQACAwQFBgcREiExE0FRcYGRoRQiYbHBCBUyQlJTcpKistEWFyMkYoLCJTM0Q6OzJzU3VFVlc3WT0jZEY2SD4fDxGCaEtMNFRlZ00//aAAgBAQAAPwC/0REREREREREREREREREREREREREREREREREREREREREREREREREREREREREREREREREREREREREREREREREREREREREREREREREREREREREREREREREREREREREREREXPut8tVjpvKbpcKajhPB88gYD1a8exR386+Bf/wCS0Xe78F6GauBnHQYloe1xHsWxHmPgyX4GJ7X21LR61vRYww1P/NYgtT9eYVkf4rehu1tqNORr6WTX5EzXeorbD2uGrSCPRvWdVjUdKyiIiIiIiIiIiIiwXADUnQdJXnlY/lt7wsGeIcZGfWCGohA1MrPrBefKqf5+L64XryiH52P6wWRLGeD2969ag8N6zqixqOlNR0rOqIiIiIiIiIiIiIuTia8tw/hm53ZzQ7yOmfMGn4zgNw7ToFD8MZfWu6UlJiPE4dfLxWQMne+s86KHaaHbEcfwQ0a6cFKajDOHmR6nDlvm/ZZRxk+IC5U9hwqNeUwVE76NrY71LRlw3gJ2pmwYGekWaT+Fq5tRhjKl2onsLYunWiqYtPALlzYJyamdoZ6ald0GvkjI+sVlmWmXcmnvdi2qpnHh5PeIz4Fb9PlZWsG1aMx7/GObWcSjwcF9PyKzKo3a0WYonA4Nq6IHx3o6DOWgPmVmG7k0fLY5hPcGo7FmalBoazAdHVtHF1FWAa9mpKHNy50Wnvvl9iGlHO6KPlB6gvvDnpg1zwyrfcKB/O2ppHDT6uq79Fmbgq4ECDEtv1PASycmftaKRUtxoq5u1SVdPUN6YZWvHgVtaoiIiIiIiKDYsxFdJMU2zCFgq4aSvrIn1NTWPj5Q00LeBa07i4nXTXcuFdsB4egmb+U1diq+1Eo2i48vJGPQBE3Zb1LQbg3LJv8A+27+7rpa38F7/I/K88cK3rr8jrV8n4LytJ0OHr43qpK38FrvwTlVz2fEDeqlrf8AlXwkwXlSDoYMRR//AEtZ/wD5r4uwjlM3/r+IoeuCqHriXzdhrKtnwcXX+n63yt074lhtjy8a7SnzTvEB5tqt2dO9oW7BZbCCPIs7K6M8wdcWH+ILpRYfujx/J+dBl6Nt8Un8ZW7DhvMoDWizIoaoc3KUbDr3Ar263Zy0++O9Yeq9PlwFhPc0LAuOc1J/OWPD1aB83KWk97wvP5cZmUjtKzLkTAcTTVYPq2ll2bt3pP8AGWXeIKcc5jYXj7oXpmfGGGaCuobzQu5xPScO4rq0ec2A6sDS/MiPRNDIz+HRd6jxxhav08lxDa5CeAFUwHuJXahqIalm3BLHKz5THBw8F9URERERERFAc56jyfKm9HXQvbHH3yNUxs8XI2Whi4bFPG3uaAt1ETReXMa9uy4AjoI1WhPYbPVHWotVDMTx5SmY71hc2bAWFJ3bTsPW1rvlR04Ye9ui+YwDYY99NHXUrumnuNQzTsD9PBem4Qkh1NNiW/wnm2qtswH/ABGuXr3lxFERyOKTIBzVdvifr2s2EIxjCf8A9Cq2j/bU5P3wtaouF2kBZdMFmqjHE01TDPr2SbBUduFBl9V7RvODJ6HpfLaJGD68QI8VxW5d5U3WYutN68iqNdzaa5Br2n6L9SF0G5W4ktzA6wZjXaJnFrKocs316eC9eTZy2ggx19ivcY5pGck8+DfWs/nFxxadff3Lqsc1vwpbfLyo69AD61sUmeeEnSNiuTLlapjuLaylO76uqltsxzha86Cgv9vmceDOXDXfVOhXfDgQCDqDvBHBNVlEREVU4daLl7oPFVYd7aChipWnoLgwn1OVraIiJomiaIvk+nhl/nIo3/SaCtOaw2io/nrVQyfTpmH1haE2BsJz/wA7hq0O/wDoo/wWlJlhgmU6nDVAw9McZZ90hfJ2VuFAQYKSrpiOenuFQz1PXn829JGdaXEWJ6XoEd2kcPtarycEXuH+h4+vzOjyhkE3rYsGwY+pz+gxvS1A6Kq0MHixwXh8GZcbC17sJ3BnRJHPET94LlVdFf5gRccsMPXEc7qesiBP12D1rg1mHsMyA++eUF5pieLrfsyaf8OQepcGbD+WFO4u8pxZhyTplp5mBvaWH1rdoqGl0Aw9nbIw/FirZdfBzh6lIKenzbp2B1uxPh6+RjhtBoJHW1o9a+rsZZp2sj3xwDBWNHF9DUcewF3qXn8+UFC/Zv2Eb7bNPhOMQcB37K7VtzqwJcdB78eSuPxaqFzPHQjxUwt1+tF3aHW650dWCNRyE7X+AK6GoWURERVnnq//AAd8h/nFdTxfaJ9ismFuxCxnyWgeC9oiIiIiImixoFp11ntlzbs19upKodE8LX+sLhvy8w41xfRUs9ukJ127fVS0+nYxwHgvH5L3ykGlsxjcQ35Fwgiqm9+jXfaWOVx3Qb30djusY+ZmkpJD2OD2+IWtV4mjfFyWJMGXWKMfCcaRlbEO2MuOnYo7Jh3J/FMjo42WuCqJ+BHKaSUH6B2fUhyafbv0uFsZ3q17tWsdJykfcC32rAps5LARyVXZ8RQN+LKBHIR9n1lZbnBcrO4Mxbgq7W0fGngbysfedPWVKrHmdg/EJYyivlMJncIag8i/Xo0dpr2KWhwIBB1B4LKIeCqvKh7a3F+YFx015S68k0+hpfu9StREREREREREREWNB0IQCNDvHpXLrsM2K5gius1vqdeJlpmOPeQo9VZSYJqH8oyyMpZeaSkmkhI6tlwC+Ay0dSHW04vxLQ9DDWCZg/deD61h1izFoWltLiu2XRnNHcrdsa9boz7FwrjbbzJ/0gytst1b8ae2TsD+xrwHeKiNdYMr3y/r1vxHhCqJ3OnhkawH0OO2NO0Lr2vDWKI4xLgbNGnukLd7aeqkEnYfh6dwXUbjXM/Dnm4gwWy5U7fhVFsdqdOnQbXqC71kzjwldpW01VVy2ms4GC4x8lofpfB7yFPIp4p4mywyMkjcNWvY4EHqIX0RFVeeT9qyYepfn71ANOnQO/FWmFlERERERERERFjRaVws1su0RiuNvpKyM/FqIWyDxCjzsuLLAS+0TXGzSHfrbqx8bfqElngvBtGN7bvoMR0VzYOEV1o9h2n+0iI8Wr3DiLElO4RXfB05YTsma21UdQw+nZdsOA7Ctm8ZfYTv20bjYaKR7uMjI+Tf9ZuhUKxPhyryzw9LfsK3m4spqJ7Hz2yrm5eCSMuAIaHDVp38QVa1LO2ppYqhh1ZKxr29RGq+qwSANSqmyEBmsF/rjxqbvK7X91p9pVtIiIiIiIiIiIiIiIiLxJGyVhY9oc07i1w1BUVuuWmEbvIZprLTwVGuonpNYJAenVmniuczBWJrMdcPY1rHRN4Ut3iFUzq29zgF9hT3i5zR0GLcI2q4QvOy6spZWSMaOkxygOA6iVwr/aKPLe/Yfu2HmSUdvrrgyguFGyRxge2QHZfsknZcCOIVqN4LKKp85/0l0wPTfOXph7i0e1WuFlERERERERERERETQdCwVX96qZsTZPYgfOWunENbGdBpvhkeBu6mBd3L+sNwy+sFS7e51BECfSGgexSRa9fJyNBUy/Iie7uBVZ+5+Zs5bF/PLXTO69zR7FaiIiIiIiIiIiIiIiIiIi+VQJDTy8kdJNg7J6DpuVRY8uk1zyLtN8ndtVDXUVVI7TTzw4Bx7yVb8TxJEyRvBwDh2r2iqnNT9LjzLqDpuhf3OjVrIiIiIvjPVQUrQ6omjia46AyPDQT2rMVTDNvimjeP2XA+pfVERERERERYKr/DbTUYTxjQceTuVyh0+lq7+NfXJqo8pypsbtddhkkf1ZHBTxczET+Sw1dJPk0cx7mFQnImPk8q7eflzTO+2R7FZKIiIiIiIiIiIiIiIiIiFUteouW9zlc6cjz6OSWLTo5OrI9StXDVR5Xha0VGuvK0UL+9gK6iKqcxTymbWXcPRUTP7tj8Faw4IiIiIq3xJbqLFWbFrslxpo6uhobVNWSwyDVu297WN19O46LaqMmsDTu247MaZ/yqeplYfB2i+BykpqU7VpxViW3EcGx1xe3uIWPyRzCt5/k7H7apg4R3Cga7vcN68GuzatmomtGH7uwc9NO6Fx+tu8F4OZl/t+nv3l5e6doPnyUhFQ0dwHrU3w7iG34ntEdztr3uhe5zC2RhY9jmnRzXA8CCuqiIiIiweBUIwbHrc8b0nTeHu0+nBGVzMi3/AODeOH5isqI/ta+1WWuJjB2xgu+O6LfP/duUcyWj5PKeyftCV39q9T5ERERYLgNdeZfJlVBK4tjmje4czXglfXUa6LKIiIiIiIiIiIhVS1kBkyszBo9P6PXXDZHo2hIPWphlrP5Tlth6QnU+QxtPYNPYpUiqrGg5XPHAcfHYZUP8D+CtUcEREREVe4Td755q41uPFlL5Nb4z9Fpc/wC0p/JIIonyO10aCToNTuVDt90mxtVIyXDLzCHkNLavR2mu7UFu4qQ2PP8Aw1d7jT0NTR11DJO9sbZJA18YJOg1IOoGvPorZA1G9c253qjtVTbqaoc7lrhUCmgawaku2S4k9AAB1KjGXDgKjF8A4RYiqdO0MPtU6RERERYPBQ3C7eTx3jaLpq6WX61O38Fw8kDsYcvdN8xeqhunR8FWeuBjg7OA7+R/o+f7hXHygGzlTYB/2Lz/AGjlN0RERRXHONYMIW6Hk6d9bdax/I0NDH8KaT2NGo1PYojFlriDFulbjvEdZrJ5wtlufycMI+STv1PZ2lbX5iMGNb+hZcYZBwljrHbQPT0LVmwnjvBDDV4XxBPfKKLe+1XPznub0Mf0+gadvBTLBeM6HGloNZSNfDURO5OqpJd0kEnO0+jcdDz+g6hSZEREWNQs6oiIiIiIeCreOHbt+Z1ARuM8rwPp0jD61vZOTctlTYjrvbG9ndI4KdIqvxG3lc/8IN+RQVD/AAerQREREXlzg1pJOgG8k9CrrJo+V4cut5dqXXW71NSHHnbqGj1FWOo1dMv8JXqd89fh+gmmedXSCLZc49JLdCuJBktgamuMVbFaXtfE8PbGamQs1B1GoJ39Sn4Gigd+Hl+b+FaPi2ho6uuc30kCNp7yV4y3P8tY4b0X+U97WqwERERERQ/D+7MjGQ6W0D/7N49ijuTf6OfGlP8AN36Y9/8A7K0lHseAnAGINP8AR8/3CuVlF/krsH+wd99ymyIiIeCq3C8YxZm5iHENRpJTWQi2UAO8Nfv5Rw9PH6ytIcEQjUaKp8RQtwRm/Zr9S6RUGIHeQ3Bg3NMu7Yf17x3HpVrg6rKInMq1x1jm7Mv8ODsHQRz3+dm3NPJvZRs+UebXTfv4ajcSQFyvzP09WBUYwxldK2tfvJFSIo2noaHa7u7qXsZVXy1N5bCOPrlTtG9kNU7lYj6Nx0+yV5OO8c4He0Y3sTK62AgG6Wwa7Ppc3h3hqs2y3y3YhtcNytdVHU0ko82Rh5+cEcQRzg710UREREUDoo+UxXj+m5pIqZ+n0qdzf4Vo5EyF+VlAw8Y5529Xnk+1WUirG7+f7oewD5uzzO7y9WciIiIuFjS4e9WCr3Xa6GGilc0/tbJA8SFzcraD3tyzsEBbsuNKJSPS8l/8Sl6Iiglp/Xc5MR1XEW+20tED0F5dIfYtbLR+1fsddHv7J90KxERERERQ6ybs0cWDppLefCUKPZSnZxNj+McG3lx7y/8ABWkuBjdu3gS/t6bfP9wrkZRb8q7B/sHffcpsiIi16+qbQ2+pq3/BgidKepoJ9igmS1G6HLqCumH6e5VE1ZIekueQPBoVhoirfPClMuXM1bGP01vqoaqM9BDtn1OU/t9U2tt1NVt+DPEyUdTgD7Vsoi8yPbHG57jo1oJPUFVWS9J750l/xbU+dWXevkAfztiadwB6NSfqjoUp/Nlg5znSTWGnqZXfCkqXPmeT6XPJK1JcsrbRONTherq8PVw3tfSSl0Lj+3E4lrh6Ny+1hxLUVVylwviilhp7y2MubsDWnr4uBfHr9ph3j1QmvozlBj2juVvc5mE73MIaum11ZSzHg4dA5x6NocwV0A6jVZREREUMtbQMzsUxfPW+id/etXCyHOmXskZ/q7hOz7p9qtBFV9w3+6MtOvNZJNPrOVoIiIiKu87at8GWlXTRfztdPDSsHSXPBI7mqdW6kFBbaWjbpswQsiGn7LQPYtpEQ8FBMvj5XecaXPjy17fA13S2JjWD2rRyqcH3THD+m/SjuCslEREREUPs2n50cUaf5lQa/wBsozlSQMcZisHAXQH7UitZcbFrNvB97b00E4/s3KP5Ou2sqLCeiJ47pXqcoiIo3mBO6my8xFKw6OFun0PWwj2r1gGlFFl/h+AfFt8JPWWAn1qRIiiGaUPL5Y4hYRrpRuf9Ug+xbuAqg1WAMPzE6l1vhBPUwD2KRIi1bmCbVVhvHkX6fVKgGRLmuyqt7Wne2acO9B5Qn1EKyUURzCsEt1w66tt5Md5tTvLbfK3iJGby30hwBaR1LhY3lpscZHVdziYNJaJtcwfIezRxHZo4KV4GuL7tgWx10hJkmooi8nncGgE94UgREREUNojsZvXhny7PSO7pZQuBkYdnC94h+bvE7fBqtFFV1x1HujbR6bLJ63q0URERFWGaulwxJgax66ipuwqHtHyYwNfvFWeOCIiw4hoJJ0A3lQTKPWbAjK8jfX1tVVE9O1M7Q9wWhlANqPF0/wA7iGpI7NFZaIiIiIodZN+aOKz0UdvHhKonlO8nMLMYH/SDT9uVW6udfmcrh+5R6fCpZW97CofklJt5UWcfJMzf7VysFERFEszpWw5Z4ic46A0Mje07h4lfKDEr8P2e1UTsPXyta2hh/TUNKJWDzANNztdexfM5nWmP+k2rENLp89aJh6gUbm1gzhNdJac9E9HNH62Ldo8ycGV88cFNiO3ulkcGsYZdkuJ4Aa6b15zHe05c4jZtDa975Tprv00XjK865ZYeJ/zJg9alyIvL2h7C1w1BGhHoVS5GSPoYMTYcmOklsubtGniGu1HrZ4q3EWCNRpzKrMGRaZa4tsZHmW+ruNGxp5maFw+8u5k/LyuVNhPRE9vdI4KcIiIiKGQ7s5Kzf8KwwHuqJPxUfySOlBiiL5F9nHgFaaKsLyNj3ROHXfLtEw7uUVnoiIiHgqvuhF090JZKcDaba7VLUu9Dnkt9rVaCIi5eI6oUOGrpVk6chRyya9TCVyMtqXyPLXDsOmh8ijeR6XDaPrXCyX8/C91n+evNU/xCshEREREUQsO/MnF7uiKgb9iQ+1RPKVoOOsxn/wCswNf35Vba+FXHytJNH8uNze8KvMinf4MKRh4x1E7T6PPP4qykREVX531zzhm22CEnlrzcIqfZHOwOBPjsqzIo2xRtjaNzQGjqG5e9ELQRoRr1rWkt1DI8PfR07ng6hxiaSD08FU1/qnXeDNG5l5dTUlG21wb92rGF0n2nqc5aMMeWuHWn/MYz3jVSpEQ8FVdDT/k77oGtYNG0+ILdy7d/GWMjaH2XHtVpgrOoWHbwodT2Gax0WM53uYYbjPNWRAcQDA0HX94Fc3I+TlMp7T+y6Zv9q5WIiIiIoa3/ACyTf7gj/wDuHKPZNDYqMaRfJv027/11K00VY4m/RZ9YNk+co6mP7LvxVnIiIiweCrDB+tzznxvc9NWUjIKFh6h5w72K0ERFEM0qnyTLHEMmum1Ruj+uQ3+Jd21Qi24do4SNkU1JGzq2WD8FCMjdXZbwzHjNWVD9enz9PYrJRERERFEMO+dmBjNw5paNndAD/EorlD52L8w36cbtp9qVWysFVrkfozBldT/MXWpj8Wqy0REO5VNe4jifP6zUA1dTWCjNZMOYSOOre3+b7lbIGiIuViS9wYcw5X3epI5OkhdJofjH4re06DtVYV1tnw97na6PrtRcK+F1VVE7iZZ5AdD6QCB2KyMGU/kmCLFAeLLfAD17A1XcREUAvrGy50YS0A2oaGteeohrR6ypDdcH2m8Vb6udtVDVOABnpKuWB+4aDexw1XLdgWthO1QY0xJB0NlnjnaPrsJ8Vg2LHFM3WmxlS1Wnxa21N39Zjc31Lp3Z1dDgK5vub6d1ay3zmV1M1wjJDHfBDt64OS8HIZUWUafDbK/vkcp8iIiIoaw65zVA04Yfj/8AuHqP5R7r3jtnRe3nvLlaSKsscs5LNzL6p5nSVUR7WDT1qzRwRERFg8FWWTEbqq24ivTzq65XmeQHpaOHiSrOREUEzbaZ8D+RD/rlfSU+nTtTN/BSq+yinw9cZuHJ0sru5hUPyUh5LKezH5Zmf3yuVgoiIiIsHgofhLz8XY1l6blCz6tNH+Ki+TZ27/j2T5V5cPtSK2UKrLJzWGPF1Gf6i/1Gg9B0/BWaiIsHeFVmVDTcsT44xDKP0lRdDSsJ5mR67u4t7lagOqLBOiri6PGYeL4rNSnlcPWWcTXKYfAqahu9kAPOGne7u6F8c8p9cCQ2tjv01zr4KZjRxPnbXsHerIpYG01LFTs+DExrB1AaexfZERV9Wv5TPe1xfM2KZ/1pQFYKIozmHU+SZd4hm100t8zR1lpHtXyyzpjSZa4eiI0PkTH/AFvO9qlaIiIihVOdrOev/ZsMA755FH8o3a4lx+Oi8E+L1aqKuMydIsW4AqjuDbxyWv02gexWOiIiLRvNQ6ksdfUsBLoaaSQAcSQ0lRLJymjpcrrM1j2vdIx8ry12ujnPLtD6dCFO0RFDMwmCc4WpzvEl/pSR0hu0/wDhXSx3UeTYAxBN8m3zkfUK0craV1Hljh+Fw0JpBJ9cl3tUvRERERYPAqG4G8+6Ywm+VfZG/VijHsUZySG1PjOb5d6k9p9qtlDwVa5bDkMbZg0nDZujZgPphxVlIiLB4Km8P1E2EMd4mwjLVNt77zObhZ6uVm1G57uLCDuPRp6CBvIU6GLK22xNbfcP3CCUbnzUMRq4HekFnngehzR2r4PzMsO9sFPeamb5qG01G14sA8Vo1L8W42Bpo6SfDFlfulnlcDXTt52saNRFr0k69Cl9mstvw9aoLbbKdtPSQjRjG+JJ4kniSVWb6n84+b1GKQ8rYcLuMkk7d7Jqo8ADz6ED6p6QrdRERVw7X/4hY9eH5OnT/jKx0RV7nVWOp8tK6mi/nq6WGljHSXPB07mlTe10Yt9po6JumzTwMiGn7LQPYttERERQq3+fnDe3fItFIzvkkK4GT42rxjqXT4V7kHcXfirURVvnJGY7FZLk3cbfeqWYnoGpHrIVjhZRERYcNQR0qB3DKaxy1clbZqm4WCrkO06S11Bja4+lnDu0Wi/DWZlnBNqxlR3SMb2xXSl2T1bbdSvBxjmNaD/LGA2V0YG+a1VO1r+6dSswZ34cicIrxQ3ezy66FtZSHQHrGvqUkoMyMG3IgU2JLcXHg2SYRnudovreKSG+VtiuFPXUzqS2Vhq5nCQEEck9g0I3cXA71DL9fq/MuSpwvhSPSzE8lcr08fo9nXzmRfKJ6fUN6s+ho4bfQU9FTt2YKeJsUbehrRoPALYRERERCoXl0dulxDOP66/1ju54b/Co5kS3bsWIKn568zHXp3N/FWuirXCjTS5045g5p4qScD9zQ+tWUiIijeMcFWnG1q8iuUZa+M7VPUx7pIXdLT6xwKg9PVZmYDApqqgbi20x7mVFO7Zqmt6CN5PcetbjM9MNRDZudDebdOPhR1FIdx7CsSZ54dnGxaLZernOfgx09Jpqesn2LUngzFzGBpqmAYTsEm6VpdtVczOj0a/u9qsbDmG7ZhWzQ2u1U4hp49513ue7nc485K6yIiHgq3xG42zOrCde5ukVwo6i3udzbQ89o7yFZA4InBVhjYtxLmhhTDEfnxUTzda0A7mhvwAes/eCs4BZREREUIsZMmbOLXc0VHQR94kd7Vw8lhtR4um+cv0/s/FWmi4OM8OjFeE6+z8qIZJ2AxSEahkjSHNJ9GoCiseY1zw5DHBjTDNwo3MGy6vomeUUzyPjat3t146FSWy48wtiDZFtvlFM8j+aMgZJ9V2hUi1CyiIiLGgXzmpoamMxzxMlYeLZGhwPYVGrhlrgy5uLqrDdvLjxdFFyZ72aLjNyTwKyXaZa52sJ86IVkuw70EbXBTqioKS20cVHRU8dPTQt2Y4o27LWj0BbKIiIiIsH2qDZbybGApq4/wBdWV1Rr/48n4LkZBs/wdPn+fr5pPuj2K0UVb0R8l90DcYzu8rsMcg9JbIGqyERERY0C8vijkGj2NcP2hqjIo4xoxjWjoaNF60AWURERRXH2F5sTWFjaCUQXahmbV0Ex3BsrOAPoPBaWFMxqC8Se9d4As+IIfNqKCqOwS7pjJ3OaeI03+tTbUFRXF+PbRhOmLZpRVXKTzaa3QHammeeA0G8DXnPZqufl3hi428V+IsQ6OxBeHiSoaOFPGPgxDq5+oDmU7RERERQjCv6TMXHU3MJ6OL6sGv8S4mRvn4cvc/zt5nd4NVpIiwQCNDwUdu+AsK33U3GxUMrzxkbEGP+s3Qrg/mt97tThvFV9tHRF5Ry8I/cf+K+Jpc1bORyNfYr9EOaeI00p+r5qx+cbEdqH/zBl/doWtPnTW97apnXu4Lcoc4sFVknJS3R1DMOMVdC+IjrJGnipbQXq2XRgfb7jSVbTzwTtf6it7VZRERERERERF855BDBJKeDGl3cNVXeFpve/IOOqedkttU9QT6XB7vatjJSl8lyps+o0MvKyntkcrARV1dW+T574fm4eVWiog69l217VYo4IiIiIiIiIiIuJiDCNhxTAIrzbIKsNGjHuGj2fRcNCO9RX8zGHW+bFcL7DD8zHcXbGnRvGq7uHcvcM4WmNRbLYxtWeNTM4yy/WdqR2aKTgaDRZREREQ8FBsEO1vGOK0895fHr6I4WBcjIUa5fSynjLcZ3/dCtBERERNAtGvs9tukZZcLfSVbSNCJ4Wv8AWFEK/JzBNc/lI7SaGbmkopnREdQB08Fofmxv1sB/J7MC80zQdWw1ulSwejfp6lj/AAv2c7jYL7GOuCQ+oLx+c/Edrb/8wZe3iANPnS0RE7fAe1blDnZgqqk5Kpr6i3y87KymezTtAIUst2K8P3cA2+9W+pJ4NjqGk92uq6+o01TUFZRERERFzMRTeTYZus/zVHM/uYSq7xFKLP7m9jSdHGz00I63hgPrKmeAKI2/L+wUpGhbQxEj0lu0fWpIir/GDORzOwFWDgZquncfpRaj1Kft+CNFlERERERERERERERERERV5gqQswhie4E7p7pcZ9fQHFv8K1siGbGVtE88ZKid329PYrMRERERERFjRaddZ7bc2ltfQUtU0jTSeFr/AFhRK5ZPYFuWpdYoqd5+NSvdFp2A6eC5Byb973beH8Y3+16cGcvyjB2blj8n82bS39RxZa7qxvBlfTbDj2ge1evytzPtenvngWnr2DjJbqoDX90lxWW500NGSy+4av8AaXDi6Wl2mDt3epdi35u4FuIHJ4hponH4tQ10RH1gB4qUUV6tdxANFcqOp14cjO1/qK39UREXExlDPUYJvsNLE+WokoJ2RxsGrnOLCAAOlVvm2TJhbDGCaffXXGogi5Np3hjAASfRtEdx6Fb1NC2np44IxoyNoY0egDQL6oozjjCz8U2NsFLVuo7lSzNqaGqbximbroeo6kHrUFoM2LthWVlszEslRSSg7LblTR7UMvp0G76vcFY1kxdYMRsDrRd6SrJGuxHINsdbT5w7l2kREREREREREREREREXl7gxhc46ADUqtMNv8lyEnqzuMtvrKok/tmR3tC38l4OQyosg53tlf3yvU+RERERERERERFgtDhoRqDzFcW4YQw5dQRXWO3VBPFz6ZmvfpqovXZJ4GrHbcdrko5PlUtQ9mnYSQtD8z1XQOJsWOsQUA5mPl5Ro7AWrz+TObVsB8hxnb7g0cGVtNsk9oafWvPv5nDbW/rOF7Pc2t+NSz7Dj3u9i8nNfE1AP5Xy3vEQHF9OTIPu6eK9RZ+YZYdm4W680D+cTUwIHc7XwW3U52YYnoHe8fld2ub/NgoIaaQPkdzanTcOkr54EwTeZ8Ry43xmWOvMzdmlpGnVtGw83oOhIA5tSTqTus9ERfGppYKyB8FTDFNC8aOjlYHNd1g7iq/vWSeD7rIZ6WlltVVxbLQSbAB6dk6ju0XH/ACPzQwt/0fxZDeKVvCmubfO06ATr94LIzYxJYDsYxwPXUzAdHVVD58fXv1H2lJrLm5gm9hrYb3DTyu3clWAwnvdu8VM4aiGoiEsErJY3cHscHA9oXsHVZRERERERERERERFysTVXkOFrtV66chRTSa9TCVBb4Pej3OrovgltkiiPW9rWn7ykmWdMaTLXD0RGh8iY8j6Xne1StERERERERERERERE0CaBfOWCGdhZLEyRp4h7QR4r5U1voqMk01JBAXcTFGG69wWzoiIiImiwWgjTTco1esvsJ3/aNxsVHJI7jKxnJv8ArN0Khs2R9LQSGfC+JbxZZuIDJdtncCD4lfPyDOXD2nk1ytWIadvBs7QyQjt2fvFY/O5iKy+binANypWj4U9Jq9niNPtLs2vO3A1yIa+6PopPkVcLmado1Hipnbr9abuwOt1zo6sHhyE7X+oro6oiIiIiIiIiIiiGaM5gy1vuz8KWn5BvXI4MH3lG87pfe7Kg0ER3zzU9KwDn036fYVi2aj977HQUX+b00cX1WgexbyIiIiIiIiIiIiIiIiIiIiIiIiIsaLjXPCGHb0D75WWgqSfjSQN2vraaqG3DInBdW8y0kFZbpeZ1LUncep2q0PzW4vs+/D2YlwYwcIa1hkb6yPsr0J857MTylLY77G3nY4RvI+z6l6Ga+IrW0flBl5d6cD4UtKeVb6tPFbtHnpgmoeI6qprKCTnbVUrhp9XVSe34+wldNBSYitr3Hg01DWO7naFd6KoinZtwyMkaedjg4eC+uqIiIiIiIoPmgTNZLTbwNry+80cBHSOU2z4MUbzX0vWN8D4Zbq4TVpq5mj5DSN/cHq2xwWUREREREREREREREREREREREReDJprppoOcnQIJNeOmnSDqF7RERE0WlWWi23FpbXW+kqgeInha/wBYUWuGUeBrjtcrh6micfjU5dF90gKPTZC2CJ23abvebZJzcjUAgeAPivP5tseW3T3ozJrHtb8FlbEXjvJd6l78nzotpGzW4eurR8tuwT4NWTjLNG3u0r8v4apo4uoqob+zVyHOKuozpdsA4hpOksi5QDtIC+sWfGENQ2qbdKN3OJ6Q7u4ldalziwFVNBbiGFhPNLFIz1tXVp8wsH1WnJYltR16alrfWupDiCzVOnIXegl1+RUsd6it1k8Ug1ZIxw/ZcCvevX3LOqarQukdu5OGruRhZHRScuyWdwa2NwBG1qd3Bx71XmFaJ+L8zq7HID/eilg8htb3gjltNz5Gg/F1LgDz6+hWkNwREREREREREREREWC4N4rI3hERERERERYcSGnTjovg7QOO7XRo2Qsa7+AB12Tpz7l92aloJ46L0iIiIiIixoCmi+c1LBUDSeGOQdD2B3rXKqcIYbrNfKLBbJded1Iw+xcmfKvA1Rrt4ZoRr820s+6QubPkjgGfXSyuj1+bqZB/EtT8xGDmnWA3On/2VYR6wVh2SdqZ/RcSYlp/oVw/5V5GTsjDpFjrFDB0eV6oMoJzufjzFLhzgVWi3aDJ3D0UzJrrV3W9uY7aay5VRkjB+iNAe3VWBFDHBG2OJjWRsAa1rRoGgcABzBe0REREREREREREReXSNadOdfF7g54I9HtX1Y4Njbr0I2QOOm/VZLw1BI0rJcGjUrzyrddNCvQII1C8mRoPOUMjQOdZa8O4L0vBlbrwJXze47WoO5emyjTeDr2Ly8N2QdA4cwPMstjaQCToBzBe+VaDzoZWg869NcHDULDnhvFYbI13SF7RERERERERERERERa1dX0lso5ayuqYqamiG1JLK8Na0eklQebNu11LzHh+03m/P102qGjdyf13aepfL8u8ayHahy0rtjm5SujYe4hHY/xhF/PZaXP/AMKrY/1BfF+aV5g31OXOJGD9iLb9i8Nzpo4/6ZhPE9N07VDrp4hfQZ54Qb/SG3Sm6eWonD1Erdp86MBVHC+tjP8A2tPI3+FdSmzJwXVECLE1s1PM+cM+9ouzTX+z1mnk12oZ9fmqhjvUV0GuDgC06g843rOqIiLDjo0noGq+A1LtOfpRzQ14HV7UJ81o9AXprQBt9C+ZOh9Oq9gbXDvSQ+fp0bghaQ0O8Fljzsu06NQvIBcdAsDeQBu9KyDo4L6SHzNPSvDG7ZO/0rDhsvABQjRg1dxHD/0Vl+mw3T0rGukXWfYgGoJ6FgbwSN2g1XqM6P0XnaJ3neSgBcd2/VbAWURERERERERERERFVOPXNxPmdhbBsg5Shj2rjXRanZeGg7Ad6PNP1lO7nWXO2Nhhs9hFezZ0cG1McDI9OAAPsC5hv+MGjdghh9Au8X/Kvk7FOKoj+ly/rSOmG4U7/wCIJ+XNwj3VOB8Ss9MUUUv3ZFg5j0Mf9JsWJqYdMlplIHa3VeH5oYMcNKusmgPOKq3zM0+sxfH8q8sLluluGHZdeaobGPvALwcOZW3bfHSYbm1+YkjB+yQvhUZL5fVw2obWY/2qeqf+JC0ZMi7PCdq13+/293NydSCB4A+K+bstMbW/T3pzLryBwZVxl479o+pPIM6LYRyV2sV1YOAlZsOP2W+texjPM+2u0ueX8VY0cX0NSN/UNXL6NzqpqN2ze8KYhthHFz6baaO3cutQZyYEuGgF8jp38NmpifHp2kaeKlNFiCzXVn6jdaKqDh/U1DHHwK29C07+9Bq49LlmRuhAHMB7V9GDWMBfJw0Oh4rIc5o01PcjgSA/pWNogac2oRgOw7UcyzGPP7/YvLPhjsWdPP7faslxdx7l7iaQCV5lbo7a5l4O/d6NAvUjdGjp3rGh5Pt9iy3Xk3buhGg6O+iUZ/OLy5mydNN3MVlhLXDidelYkleJCAdNPFbDTq0E9CyiIiIiIiIiIiIiHgqkwQTfc7cZ3o+dFQsZQRO5hvAOn/DPerb0RE0HQixoCNCtWe10FUCKihppQeIkha71hcqpwLhOs/n8NWh56fI4we8BcyTKrBbztMsccDummmki+64Lz+bW3wn9RvWI6HoEF2lIHY8uC8/kZiSm08gx/dmgcBWU0FQO3VoKx5FmTRfzN4w9cgOapo5IHHtY4jwT8oMdUX9NwVBVtHGS3XNhPY2QNPihzIpqYaXfDuI7aB8J81vdKz60ZcFrnEeV+JCYqipsM0jtxbWxNjfr/wCIAdV8p8osvbzGJ6W3Rx67xLQVLmjs0JC0DlBWW4l2Hsc3236fBjlk5VndqF4Nuzismnk13s18iHxaiPknnwHrXk5nYuswIxNl9XtY0+dPQO5Vo7N4+0uras68E3J3Jy3GS3zcDHWwlmn7w1HipxQ3O33WATUFZTVcXyoJGyDwW1ss+SO5eljZaOYdyAAcAAgAHAAJoNddAmyNddBr0pst110GvUsosBrRwAHUEIB4jVNBppoNE0AGgCaAcAEDQOAAWSARoRqsBrRwaB2IWtJ1IGvUsoiIiIiIiIiIiIi+VTOymppZ3/AjYXu6gNVVuQsDpsK3S8SfztyuUspPSBp7S5WuiIiIiIiIsaBaVfZbXdGFtwt1JVtPETwNf6woxU5UYPlkM1Na3W+fmloJ5KcjsadPBa5wJfrfvsmPLxCB8GO4NZWM6vOAOnavPLZn2o+fS2C+xDgYpH0sp7Dq1Y/OZNbvNxFhC/Wv5U0cIqYR++z8F6F8y0xw3k5qiy1sj/iVTGsl19AeA7XqXNrskMMSS+V2SpuNlqDvbJRVBLe46nuK1veDNfDXnWvEdFiCmad0FxZsyEfSP/MvozN64WRwixng+5WvmNVTt5aHr16OolTSw44w3iYN96bxS1Eh/qdvZkH7jtD4KQoiIiIvnPPHTQPmmkZHExpc973aNaBxJJ4BQWozfww2R7Lc25XdzTofe6ifK3X0O3A9i03ZvAbxgjFhZ8ryADw2l8jnjYIN1dZsQUXTy9Fpp9pblJndgOqOjrw6A9E9NI31AruUmYmDq4gQYlthJ5nVAYe52i7lNc6Ct08lraafX5qVrvUVt6oiIiIiIiIiIiIiKNZgVxtuX9/qgdHNoZQ09Bc3ZHiVzcoqEW/K2xR7OhkhMx/fcXeohTdEREREREREREWNFxbvg/Dt+B987LQ1Tj8d8I2/rDf4qMHKikt528M3+9WJw+DHBUmWHtY/XXvXgjNGw8H2fEtO0cCDSVB/gWBmtb6JxpsVWK7WF7vNc6qpzLAdeh7dQR2LE2CcuMeRmroI6F8p87yi1yiORp6SG7tesLVGD8f4WG1hnFTbrSM4UN5btHToEg3+pfekzSntVQykxvh6ssUhOyKsAzUrj9McPFWFR19JcKWOqoqiKop5BqyWJ4c1w9BC2EREVdZkvddr1hbCBc4U12rHSVjWnTbghG0WH0E6dym00E9Fa+Ss9LSiSNobDA95iiA6NWtOncuK+5Yzi44btk2nzV1cNfrRBa7sUYkgB8swLXOZzmjrYJ/AlpXNq8UYXlJ9+8JXOmB4urbEXt+s0OHiuWYsl7xIWvZYIpDxbIDSu7jslexk5lzdf0tt22HiH0NeXadWpcvP5mp6El1lxziGh0+CHS7bR2AtWPySzWtupt2O6WtaODK6m017dl3rXkXnOS1D9Zw7Z7qwcXU0uw4/aHqT8795tmgxBl/eqQD4UkAMjfFoHiulb88cD1jxHNX1FDJztq6dzdOst1Cl1uxbh27tBt97t9RrwbHUNJ7tdV2NQsg6oiIiIiIiIirnPGsNJlXcmg6GokhhHa8E+DSplhuj978MWqj005Cjhj06mALqIiIiIiIiIiIiIiaLxLDHNG6OWNr2OGha4ag9ihd2yowncp/KoKF9srQSW1NtkNO8Hp0G7wWpBYcf4ckHvbiCnv8ARN/6rdmGOXToEzddT1jRTSkdLX22M3Cg8nklZ+lpZHNkDTzgkbnBV9TUtPgbN2loKCMU9oxJTPPkzd0cdVHv1aODdW8w6VZ6IiKu7lpWZ8WSHj5DZp6g+gvfsKxOZE0HQsaBa9Vb6OtYWVdJBO080sbXjxCj9Vlvg2rftvw5QRv47cEfIu72aFahy3oqf/Fd9xDbdODYLk97B+7JtBeThzG1GNaDGzalo4R3K2sf9qMtPgvJrsx6D+kWOxXVo56OsfTuPZICPFefzhVlF/jnBeIaIDjJDA2qjHbGdfBfB2NctsQPMNwqbZyp3GO503JOH/EaPWvnPlVlziCLlaS3Uo13iW31JaB9UkeC5/5nJ7a4uw5jW+2z5Mb5eUZ3AtT3szhsoHkt6s98ibwZVRcm89oA9a8nMrGtmB/KLLysLG/Cnt0nKt69Br61vW/PLBlXIIqupqrbNzsrKdw0PW3UKaWvEtkvTQ62Xeiq9eAhna492uq6uoRERERERVPns8z2OwWsca27xMI6QAR/EFazGhrQ0DQDcAvSIiIiIiIiIiIiIiIi418ustqqrO1rWGOsr20sm0N4DmPI09O00KGZru8kueCLoBvp75HGT0NeN/3VZiIiKurQRU584hk4+SWing6tpwerFRERERFjRa1ZbKG4x8nW0dPUs+TPE148QovVZV4OqJTNFZ2UU/NLQyvp3D6hA8Fr/kJebeP5ExzeYAOEdeGVjOrzgDp2rPK5kWv4dNYL3EPmpH0krux201Z/OFNQbr/hO+2zT4UscAqoR+/ESfBfaO/4AxiDA+rs1e87uRqmtEg/deA4Lk3TJDBNxJlp6Oe3S8RJRzloHYdR3LkfmyxxYTtYXx9Uujb8GnuILmj0a+cPALycWZsYa/x1hKnvNO3jNb3ecR1N1+6FvWzPnC88wprvT19nqddHNqYS5oPW3f3gKf2nEllvsQktV0pKwaa6QyhxHWOI7V0wdVlEREVT5pbNXmHl5bjvDrg6dw9DXM/Aq2AiIsEgcUDgRqDqPQmoTULKIiIiIiIiIiIonmARBZaCtP8A1S7UUvUOWa0+Dio/nd+jwbQVPPT3ank6t7grLHBZREPBVpgb9ZzXzBqzv2ZqaAfusI9istERERERERE0XJuuGLHfGlt0tFFWa/Gmga5w6jpqFHfzZ0NFq7D93vNjcODKWsc+Ltjk2h6lg0+Y9nH6Gts2IIW/FqI3Ucx/ebqzwC8nMZ1sOzibDN5tGnwp2xeVQD/xI9fUunFX4Mx1TcmyW03dpGnJv2Hvb+6fOCjF2yLwlWyGotvlloqRva+kmOgP0Xa6dhC5owvmvhTfZMS09+pW8Ke4DR5HRq4/xBfaLOOuskjYMbYTuNpdroamBhkhPf7CVYVgxXYsT03L2a509W0DVzWO0e36TTvHaF2QdURFU+LR5V7oDBdPx5Gllm07H/8AKrYHBERQXNiR/wCRgomSPZ5fXUtI4sdoS18o2hr6QCF4OUGFGEmjZcaE8xpbhK3TvcV8jlnWUx/kvHeJ6YczJaoTtHY4BfM4bzKoSfIscUVc0cGV9va3vczUrHvtmrbm/rOG7JdQ3i6irDCXdj1n86FfQEC+YFxDRDnkgiFQwdo0W3RZw4Iq38lJePI5hxjrIXxEdZI08VKrbfrTeBrbbnR1g01/V52v0HUCuiiIiIiIiIiiOZ+oy4vMjfhRRNmH7j2u9i4OeQEmVdXK3eGzwSA/vj8VYlFJytDTya/Dia7vAWwiIq1ywPK4nx9U/LvTma/RB/FWUiIiIiIiIiIiLGyFHLzgHC1+eZK+zUzp+IqIm8lKD07bNCuK7BOI7NvwzjGsbE3hR3ZgqouoO3PaO9efyvxdYhpiTCD6mAfCrLJJy7esxO0eAuxZcb4XxSHUtHcaeSZ3mvo6gcnL6QY36E+K0rnlZhW4VQraaifaq9p1bVWyQ072np0G7wXwtF4u2G8WU+F7/Wm4QV0bn2u4vYGPe5vwoZNNxcBvDudTwbwiKpqw8v7pe3t4+T2ZzurXb/5lbKIigGZpM1Tg6iHCfENM53UwOcp8EdwX57xLi7OGxYhrn+QzOoBM7kRHQiaHY183RzRrw04nVaVJ7ojEdG4RXWxUUrm8dkvgd46+pW/l5j6DH9pqa2Ghlo308wiexzw8EloOocNFJ6210FxZs1tDTVLeiaJr/WFXl6w1ZMPZjYLqLPbKagmqauoZM6mZsbbRC46EDdxVnDgo3inHNkwm2KOvmkkrZx+r0VMwyTzcw2Wj0850C4FNPmZf2OrGMtOHaZ38zTVUTqicjpeQQG9Sy+HNmn86KtwpVgcz4poye5eDfc0qTfPhGz1oH+aXDY1+uhzExHRjW5Zc3yMD4RpHsqB4LLc58NQ6e+VLebYecVlA9undquzQZm4KuRAp8SUG0eDZZOSPc/RSSmrqStZt0tTDO3jtRSB48F99VlERRvMGLlcvMRM/1dOe5hPsUVzUd5TkbVTcdqnpZNetzPxU9sD+Uw9bX/KpIj3sC6KIhVaZPAvixbUn+txBU6dQ2VZaIiIiIiIiIiIiIi4t6wjYMRD+VrRSVTxwkfHo8dTxo4d66VNDDQUsNLFq2KNojjD3lx0A0A1cdSd3PvUCziaaTClFe49RPaLlT1THjiBtbJ7NCrDY4PY1w4EahekVT0Q5b3TFxPzNmaO/Y/FWwiIq9xy4S5h4ApOmtqJyPoRf+asIcEI1GixoAtartlBcGbFZRU1S3omia8eIShttDa6fye30dPSQ6l3JwRhjdTxOg51tKB4zP+EHAI/77U/3BU85lWOMC2w5uYRvrmtEFcyS1zPPxS7ezf1nwU2rcN0NdO+odJXQTvOpkpq2WLf1Ndp4LnnC1xg/oOLb3CeiYw1Dfts18V48gxrS68hfbTW/s1VudGe+OT2LBuONaUfpsPWqt056S5Ojcf3ZI9PtLw7F1dC0tuWDL7GOcwxxVTfsPJ8Fxa285ZXN2xebfR00ruIuVrfTuH7zmD1r4Q5Z5bXp4nskkcUhGoltVyOo6gHEeC17zhG44Qtr6+jzIvVHBGQGR1rBV7bj8FjWne4ngAASt/KPGN9xTRXenv7W+WW6pbCXcjyTzqDqHtG4EFvMrJRFxcYM5TBV+Z8q3VA/s3KEY3PK+54e/ptdI7xjU6ws7awjZncdaCA/2bV10RCq2yW87C12m55bzVO17QrJRERERNdFGcUY9w9g9jRdq9rJ3jVlNENuV/U0c3pOgUWZmpe7gDJZsvL7VQH4Ms+kIcOngfWsuzZrrXo/EWB75bab41QxgmY3rIAU2w9iizYpofLLNcIauIabQadHMPQ5p3g9YXYREREREUUxxMYWYfIPwr5SMPa4hambcAnyrv7CNdmAP+q9p9ikthn8qw7bKjXXlaSJ+vWwFdFFVNi/Se6OxQ/5u2RN8IlayIirzEDTPnZhBhGop6Ksm7wG/grDRERFAcaE/nGwAObyuq/uVPuZQHOG0SXPLutnp9fKrc5ldC4DeDGdSR+6XKU4avEd/wAM227RkaVdOyU6cziPOHYdQuqq4zVw9jK9UVJJhK7S0zoS7lqWKfkXTa6aEP3cN+4kDeqiN1zpwyQZRe3sb87AKlvfo71q0MqMfYlxXVVNDf7O6LkYeUbWsgdE1x1A2XA7td+u7oO5Wi6Nr2lrwHNPEEahcKvwPhe5uL6uw298h/rGwNY/6zdD4r3Y4LXGya20kDg21VPJtbO8yuY4tDw4OcSd4f0+hQTJx3KXrHUvyry71vVsIi5OKf8Aolef/wCjP/duUBxSdr3N4PTZ6X/8anWDzrguxH/V8H921dpEWCdASq2yN87AD5PnLhUO+0FZSIiIiKJZi4tOD8LSVlPHytxqHimoYdNduZ3Ddzgbz6eHOovZ8P2LLizvxTjKrZVX6oO3PVz/AKR/KHfycQ6Rw3dHMF9mZhYyu7BUWHL2rkonDVktdVNhc8cxDT+JX0izVdbqmKkxlhqvw+JTsNqX/pqcnoLwN3ivjivAhpZBjLARZR3iJnLOhp9ORro+JaWjcSRw049ehUywbiilxdhmlu9K3k+UBbLEeMUg+E09R8CF30RERERRDHvwcNDpv9J63L7ZkMD8tcRg/wCj5T3N1W1geTlcB2B/Tb4PuBd9YPBVRhU7fug8ZuPxaOFvhGrYREUDmAqs86YA6ijsD3O9BfMAPAFTOa40VPUNp5qynjmcNoRvla1xHToTqthr2uGrSCDzjes6hNURV9jU/wCEvL4f95q/7kKwRwXxqqeKrpJqaZu1FMx0b29LSNCO4qtsl6mWjtN4wrUuPL2O4SQgH5txJae8O71Z6JoiIojanmmzNxFSHhVUdHWM6xtxO+61RHI48p+V83y7w/2/ircRFyMVHZwhej0UE5/s3KA4nGnubWg/6Hpf/wAanWDv+hVi/wB3wf3YXbRF8at/J0kz/kxuPgq6yIH+C+kd8qonP21ZaIiIiKr8UtF9zuwraHHbgtlNJcpWc21rozXta3vXxstIzMDMy6XyuaJ7RYJfIrdC7ex043ySEcCQfW3oVqgblq3K3Ul1oJqGupo6ilmaWyRSDUOH/rnVeZZvqcPYhxBgSomfNBbHNqLe+Q6kU8m/Z7CR2krGBWe8maeNcPxANpZXRXGFg4NLx52na4dys9EREREUQx58PC46b/TeAeVtZhf5OcR/7tn+4VnL7/J5h3/d8P3ApIh4Kp8HjXPzHB6IIR4MVsIiwToFAMGu99Mxca3jXWOKeG2wno5Jmr/tOUzrbPbbl/TrfSVW7T9PC1+7o3hceTL/AAs921HaIqc9NK98H3CF4/IiGI/qd+xBSDmDLi6QDsk2gvBsGKKc/qmMZJGjg2ut8UuvWWbBWOVx7SfCgw/cWDjsSTUrj2EPHiuzZq251sEjrpafe6VrtGsFS2YPGnEEAeIUQxmdc0svW6a/pq0/2IVgjgsneFV5hOHM/wBkjQG0uI7eQeYGaL26NH1laCIiIobW/qmblqmO5tZZ6iHrMcsbx4OKiWQW0+y4imPwX3Z+h9OyPxCt9EXExi7ZwRf3dFuqP7tyg2MiIPc5aH/RVI3v5NTrB40wXYh/q+D+7au0iLRvL+Tsle/5NNIfslQXIpumVVu9Msx/tCrIREREQ8FT8FyEGZOY2Ij8G0W1lPG48xDNojvapLk9bzQZZWpz9TNVh9XI48XF7iQe7RTtFWkZMHuiJ2jcKjD7XH06S6exebO7X3QmIQGnQWeEE68N7FZqIiIiIohjo/rWFG9N+g8GSFffMV2zltiM/wCrph9kr7YBbsZf4eb0W+D7gUiQ8FU+DBpnvjr/AGUB8Gq2ERa1wrIrfbqmtmOkVPE6V5PQ0En1KF5QUsseX9PX1AHlN0qJq+X0mR508AFPUREWrcayO3W2qrpTpFTQvmefQ1pJ9SqiKGoixRlQyqe51S+nrJ5S86nafDtkd7tFcI4IoDmKGQXnBNcN00d9igaf2ZGuDh4BSu61F1pmMfbLfT1vHbZJU8i70aHZIPbouG/GF1oj/KOCr2wfLozFVN+y8O8F825p4VY8R11XU22Q/EuFFLBp2ubp4rv2/EtjuwBt14oKvXmhqGOPcDqunqFlRjENFM/FGG7hFE5zKZ9UyZ4G5jHwOOp6BtMaOshRH3P8YGX1RPpvnuMz/Bo9itVEUex6/Yy+xE7/AFbUf3ZUGzNd5PkDHFw1pqOPxZ+CsfDsfI4atcXyKOFvcwLpoi0L23asdwb000g+wVCMjP8AJTbP9pN/eFWMiIiIh4L891lTKcvcyrixpMlyvppI9Occo1unc4hXtZ6Ftrs1DQNADaanjhAH7LQPYt5FWUINR7omqcN4prA1p9GsgPtWMLEVOeWNpxv5CmpYdetoPsVnIiIiIiiGOP8AGOEG9N8j8IpSs5oP2MscQn/uTx36BdTB7OTwVYmdFvg/u2rtLBVUYRGzn9jZvTTQnwYrYRFA84Li+iy5r6eD+k3B8dDENeJkdoR9UOUvs9vZabLQ26MDYpYGQjT9loHsW6iIiieY8rjg6ehjcRNcpoaBmn/ayNafsly4uJWMbnDgKFo0ZHDXbIHMBEAFYwRQHMNonxFgan6b22XT6DHFT7mWNAsPjZIwskY17TxDhqFHrjgHCV1JdWYdt0jzxe2AMd9ZuhXMGWdupDrZ7vfrTpwbS3F7mD9yTaC+jbPji3EGkxPRXJg4R3Og2XfXiI+6uw+ouLcNVk11p6enqmQylzaaYyM0DToQS1p39Gm5RHIqDkcq7e7nklmf9sj2KyERRbMh+xltiM/6vmHe3RQzOkGDJ6mg+VLSx6dQ19itShj5Khp4/kxNb3ALYRFq3Ju3a6tvTC8fZKgORbtcqrd6JZx/aFWQiIiIsHgvz3hWojxJRWTCVG4PmlvM93ubhvEMUcp2Wn0uIb4dKuC93rEFordqlw0+624tBL6SpaJ2HnBjfoCOjRy0IM0cNcsKe5TVVmqT/VXWlfTn6xGz4qWUddSXCnFRRVUNTCeEkMge09oVeYaPleeOM6kcKWkpaYHraD/CvOXOlRmBmFW8dbjHAD9AOCs1EREREUOxsdb3g1nTege6CVfLNt/J5VX8/wDd2jve0KR4cbsYYtTPk0cI+wF00VVYeHJe6JxYz5y3QvHdErVRFWWNj7+ZpYNw6NHRUr33Spb0Bm5mvaD3qzRwRERFDMUO8vx1hG066sjmnuUregRR7LPtSDuXMxC7azwwYzX4FHWO72kexWMir/GrtvMjAEHTVVUn1Yf/ADVgDgiIiLjYtm8nwde5ddNignP9mVwsooeQyrsDdNNqBz/rPcfapsiKIZpE/mzvrRxfThg/ec0e1RbPYbOC7RSD+tusEenTo1ytcDQaLKIvjVjapJm9Mbh4KusiDrlfSN+TUzj7f/mrLREREXKxHfKXDmHq671jtIKWIvI53HgGj0kkDtUAyOwmbPhaS+VcWzX3h3LbxvZDrqwdupd2hWoRqvjUUsFXE6KohjmidxZI0OaewrTt9rtGH4jBb6SkoI6iXa5OFgjD5COYDidB4KDZYOFdiLHV2aNWz3gwNd0tjGntXjJlpnocUXI7/K77UOB6QNPxKs5EREREUNxlvxPgpn+tnnup5Vo50ycnlPed/wAIRN/tGqa2tnJ2mjZw2YGDuaFtoqpoTyHulbm3/OLK13cWfgrWRFUHv3b8MZ1X254plfQx1NLFTWyeWJxifGAC7zwCAdR61aFtvVsu8IlttwpathGusErX+ore1CzqiIoPaz755vX2pG9lqt1PQtPNtyEyu8A1c68NMmfuGwOENpqHn0alw/BWSirvE55XOjA8PNHBWyd7APYrERERFFcy5vJ8tcQya6fqMjR2jT2r65e05pcu8PRHiLfCT1loPtUlRFDszjrgWph+fqaSL61RGFF87v0rcI0vzt7i3eH8StkIiLzINpjh0ghVlkMf8HbmfIr52+IKs9ERERVNnA6S+3jCuCoXFrbnWctU6fNM/wDdx/dCtWCKOCBkMTAyONoaxoG4AbgO5fRYJVfVd19+Md1dY12townTSvlf8V9Y5h1Hp2I9eouWvlKx1syobc6jc+qdUV8h6yd/c0L7ZJU74ssaGeQaPq5pqg9ryPYrERERERFDcW+djPBDP9YTu7qaRcnPE65Y1UXztTTs/tAfYrEhbsQRtHM0DwX0RVTcG+S+6StL+Hldnezr02z/AAq1kRa9XQ0tfTup6ymiqIXfCjmYHtPYVC7jk/g2tl5ent0ltqBvE1vmdC4dQG7wXP8AyCxnZ9Pyfx/Vvjb8GC6wicdW1x8F59/c1LLuuGGLZeomnfLbqnk3kfRd+C9szntlG/k8Q2K92SQHQmppS5n1hv8ABSa1Zg4SvWgoMQUEjjwY+URv+q7QqRhwewOaQQRuI3gqBzXG1ZaU19vF9r4zNc7hJVRxR75Xt0DWMa07yQG7zwGvFamCaS94lxdNjm90HvbE6j8kt1E4kyCIu2i9/pPN18OmyUVb3sOdn1hjUeY211LgfT5wPsVkaoiIigectSKbKm+EnQvZHGP3pGhSrD0Pk2G7XBppyVJEzTqYF0kRQ7MXz7ZZ6f8Azi90LNOnSUO/hUZzZAmxdl9S8eUu21p1Oj/FWuiIiq7Ig6YLuMfzd1nHg1WiiIiIqrxQ9tFn5g+qqd0E9HNTxOPASefu+0B2q0mOa7XQg6HQ6cxR7wxpc4gADUk8AoPd8WVV+mlsmCnsqasnYqbqBtU1COc7XB8nQ0a7+K4uO6WkwTlHJYLZtOqK9zaKIvdrJUSynz3uPO4ja17F1MauiwbkxWUkTg3kLeyhi053OAj9pKkeC7X7y4Ls1uI0fBRxtf8AS2QXeJK7qIiIiIoZig65g4IZ/wBvVv7oCPauRnYdrCFtp+eou9NGB2k+xWSOCyiqvHANHnVgKu00bNy9MT2bh9tWoOCIiIi8SRslYWPa1zXDQtcNQexRq6Zc4QvOprcPUDnHi+OPknd7NCo1LkraoBpZb9frQ35umrCWdx3+K3cO5Q2Cx3Nt1qpau8XJp1ZUXGTlNg9IHDX0nXRWAiKP4nwbaMWxQNucUnK07i6CogkMcsRPHZcOno4KMjL/ABPat9gzAubWN+DDcom1TerU7x3J5fmpaNRUWeyX2JvxqOd1PIR1P3a9SfnXZb3bOIsK3+0EcZXU3LRfXb+C7lqzKwbedkUeIaHbdwjlk5J3c/RSeOaOaMSRPa9h4OadQe0L3rqqzzvJlwTS0DT51dc6eADp1JPsCsqNjY42saNGtGgHoC9IihmOTyt3wdS/LvbJNPoRSO/BRrMI8tm3l5TcdmeWXTq2T7FbA4IiIqtyOBjsWIYDuMV7naR2NVpIiIiKIZh4LbjOwNhgn8mudJIKihqddOTkHMSN+h3dWgPMoDRYwtjLn5Bj2Cuw1iRrRHJX0s0kMVWBuDyWHQ9ZBHpHASttpwJc4mz1t/bd4eIFbeXSx9rNsNPaFsXDMnAmFaEU8FzonCMbMVHbWiQ9QDNw7SFwsP2u949xdS4uxHRPt9ot+rrTbpvhucf6147iOocw34x7UDGWPbFgijdykFNOLhdXN3hjG/BY70nX7TVa44LKIiIiIoViF23mng2MfEhr5T9RjfauNm8DUVOC6Ef11+hOnV/7qzgiKrs4iaKTCF6HChvcW0ehrt5+6rQBWURERERERERY0BTQLh3XBmGr1r742OgqHHi90DQ76w3+Ki8mTlhp3ulsVfeLJJrqPIa1wb9V2q+T8N5l2YH3pxhSXWMbxDdaXZd9dupK0qqyY7xfesPx4jtVsoaG2VwrZZqaq2+VLR5oDd5G/wBPOrWCyiKE4lcJsy8E03HYNbUkfRhDR99R/FLfKPdBYNh48jRzTadYk/BWsiIirXKaLyasxrTaabGIJzp1gKykREREXLvuHrViS3voLtQxVVO4bg9u9p6Wni0+kKjrlkJcLPczW2NtBeqTXUUVyLo3AdG00gHr1HUutaJMTYck0o8m6COobwnp6hnH6R1Piu3JPm3iNnIR0NrwzTv3PqHS8tM0fsgEjXsHWpVgrA1BgyjmbBJLV19U7bq66ffJO72D0d+pUqREREREUIuJ5bOSyxfMWeql+tJG32LlZhnl8xsvKMcfLpZz+41p9isscFlFAs4rLUXvLe4spGl9TTFlVG1o1J2DqdPTs7SkOEL9T4lwrbrrTyB4ngaX6H4LwNHNPpB1XcREREREREREREREREUErHGozutkPEUtjnm6i+Vrf4VwZ3Gr90tSjiKSyk9Wu1/zq2UREVfYmy/r33qXEmEbzJabzJoZ43edT1RA3bbeY7uOh6udcygzXqbFWstWYNnls9UdzK2JpfTTekEa6dmvp0VlUNxo7lSMqqGphqad41bLC8Pae0LaRERERNAiIiIiIiIoPCeXztqnaaimsEbNegvnJ9TVy8SgVOeuDoDv8no6qfq1BHsVljgFlFgjUEKvpsE3fDNzqLpgaqp4Y6l3KVNnq9fJ5Xc7oyN8bvDs3L0zNKltc7KXF1or8PVDjoJJmcrTvP7MrNx7QplbbxbbxTiottfTVcR+PBIHjw4Ld1HSsoiIiIiIiIiIiIiKAWo+U524im4+R2mlp+rbc564mHCK33RGK6jiKSgjgHoJEf4FW0iIiLUuNsobtRSUdwpIaqmeNHRTMDmnsKrGuyfqrLWPuWAL/U2Wocdp1JK8vgf6Oc94cvizMzF2EXCDHeF5TTg6e+VtG0wjpI4eI6lPMOY6w1ipgNpu1PNKRryDjsSj9w6FSLULKIiIiIiIiIiIeCg2Hf1jNbGU/EQQ0NMOvYc8/eXLkJq/dFwt+LR2EnqLpD/zKzUREXynpYKqF8NRCyaJ40dHI0Oa7rB3Kv7vk1hyrqTW2Z9XYa/i2a3SljdfocO7Rcs0ebWE99LW0OKaJv8AV1A5OfTr3antK+1LnZQUc7aTFdjulgqddCZoS+M9RAB8FO7NimxYgjD7TdqSs137MUoLh1t4juXY1REREREREREREQ8FAMEDyjHePa/jtV8NKD/s4tNO8riZWAVuYWYN14h1wEDD6Guf7AFbSIiIiLy6Nr2lrhq07iDwKgmIsoMI3+R1Q2hNurddRUUB5Ig9Oz8E9yj3vBmlgvfZbxBiW3s4UtcNmUDoBJ/i7Ft0GddBS1LaHF1muGH6zgTNEXxH0g6a6dh61YdrvdsvdMKi119NWRH40Egfp16cO1dBEREREREREWDwKhGBBy9+xrXafDvToAekRRMb7SuZYD5Tn3iuYbxTW6ng16NrZd7FZaIiIiL4VdHTV0DoKuninhdxjlYHtPYVA7xkvg26SctT0MlrqeImoJTHoenZ3t7guT+Q+Y+GwThzGguFO0ebS3Vm1u6No7XsT84uOcPjTE+BJ5Ym/CqrW/lG9ennDxC69qzpwTcn8lLcX26fgYq6IxkH0u3t8VN6K6UFzi5Wgraeqj+VBK148CtrVZRERERERERYKgOVuj7ViC5O41t8rJtelocGj7q5mRlPtYVut0dvfcLrPLr0gaD16q0kREREREWpX22iulM6mr6SCqgdxjnjD29xVe3TJLD8tSa2wVdbYK4b2yUUp2Nfok69xC0NnN3CG5rqHFdCzmd+jqNPAk/WW5b87rKypFHiW23HD9ZroW1cJczvA18FYFqvtqvkAntdxpayPTXWCUP069OC3wQeCyiIiIiIiFQfK08rhmurhv8ALbtW1GvTrM5v8K5eXjfKcx8wq87/ANeipwfoNcPYFZiIiIiIiLGgXKuuGLFfGFt0tFFV6/GlhaXd/FQiuyOwrJMZ7VJcbPUcQ+iqSND1O18Ctb8isyrGdbHjplfEBugukOvZtecfUvQxdmfZdBeMEQXKMcZbZPvP7vnHwC+kGeOH4niK9228WabXQiqpSWjtG/wUqteYeEbwQKPENvc48GPmEbu52hUjjljmYHxPa9h4OadQe5e9QiIiIiIvEzxHE954NaT3BVxgeoZaMj2XGd/J/qlTWOc487nPcPWF2MqbabXljYYHN2Xvp+XcCN+shL/UQpkiIiIiIiImgWpX2ugutOae4UdPVQniyeMPHcVX90ySwvVTmqtLq2yVfFslBMQAfonh2ELR94s2MLnW136ixFSNO6G4M2JdPpH/AJl6ZnDX2Vwixjg66WsjjUQN5WI+nXd4EqWWTMjCN/2RQ36kMjuEUzuSf9V2mvYpUHNc0OBBB4HpWUREREXwrJxTUU854RRueewEqK5WQOp8srCHDzpKflj6dtxf/EuVlFCX0GJLk46muvlS8Hpa0ho9qsZEREREREREQjVfKemhqYzHPFHKw8WyNDgewqMXPLLBd2LjVYdoQ53F0LOSPezRRyTJGy0zuUsl5vdok4jyarJaOw7/ABXn8jMyLU7W04/bWMA3R3KlB+15xT32zetTT5Th6y3djfjUlQY3HscR6kObN1t2nv5gC/UY+M+BvLNHboFtUmeOCJ3iOorKqhkPxaqle3T6uoUgosxMHV5Ap8S2wk8A+oDD3O0Xcp7pQVY1pq2mmHTHM13qK2tfQVlNR0pqvhVwippJoC8sEsbmbQ4jUaaqocS05uZseU1jnfJFTxRG8VTBpyUEYG49DnHQ6elo51cNPDHT08cELAyKNoYxo5gBoB3L6IiIiIiIiIiIvLo2vaWuALTxBGoKid6yxwdftp1bYqVsrv62nHIv69Waa9qi7soK+zEyYSxpdrZpvbBO7lourTd6iseWZwYf1E9BacRQN+PA/kpSOrzfUV9I86qe3PEWJ8MXqyv53PhMkffuPgpRasy8G3ktFHiGi23DcyZ/JO7n6KURzRzMD4ntew8HNOoPaF7B1REWpdKL3ytNZQcq6LymB8PKNGpZtNI1HVqteJtFhnDscb5GxUNupQ0vduDWMbpqewKOZS05hy1tMjmOa+pEtS7a4nlJHOB7iFNkRERERERERERERFq1Vtoa4aVdHT1APESxNf6wuBWZb4MrnF0+GbbqeJZAGH7Oi4lRkjgWd+3HapaZ3M6Cqkbp4lazslbTFvt+IMR0J5uSrtw8F7bljfqcaUmY+IWAcBM4S+srJwNj6L+YzLqCOiW3Ru8dV7bhLMcccxo9P90xn2r6jB+PXDSTMd+/5FqiHtXdwfg2iwhQzRwySVVZUyGWrrZ98s7+kno3nQKSIiIiIiIiIiIiIiLzJGyVhY9rXNO4tcNQexRe65b4PvRc6tw9Ql7uMkTOSd3s0UXkyRttG/lcPYgvdmkB1AgqS5g7Nx8Vj8ms17MD73Yvt91jHCO4U+y49oBPisnF+Z9qcBc8BwV7Bxkt1Vx7NXHwWPzz+SO2btgvEdERxPk+20dp0X1Zntg4nSb3zpz0S0Z1HcSsy55YWe3ZtsF1uNQfgw09G7Uno36LXitGKsy6pkuJ6V9jwyxwe21B/wCnqyOHKnmb6N3Vzq0ooo4ImRRMayNjQ1rWjQNA3AAL2iIiIiIiIiIiIiIiIiIiIiIiIiIiIiIiIiIiIiLGgKada8vijk+GxrusAoyGOMaRsaz6I0XsDRERERERERERERERERERERERERERERERERERERERERERERERERERERERERERERERERERERERERERERERERERERERERERERERERERERERERERERERERERERERERERERERERf/2Q==;" parent="_2Ivy49HuG6Gi5U8kJDF-1" vertex="1">
          <mxGeometry x="90.24000000000001" y="504" width="116" height="116" as="geometry" />
        </mxCell>
        <mxCell id="_2Ivy49HuG6Gi5U8kJDF-71" value="&lt;font style=&quot;font-size: 18px&quot;&gt;电灯开关&lt;/font&gt;" style="text;html=1;strokeColor=none;fillColor=none;align=center;verticalAlign=middle;whiteSpace=wrap;rounded=0;shadow=0;comic=0;fontSize=12;" parent="_2Ivy49HuG6Gi5U8kJDF-1" vertex="1">
          <mxGeometry x="103.98" y="484" width="85" height="20" as="geometry" />
        </mxCell>
        <mxCell id="_2Ivy49HuG6Gi5U8kJDF-72" value="&lt;span style=&quot;background-color: rgb(248 , 249 , 250)&quot;&gt;&lt;font style=&quot;font-size: 11px&quot;&gt;舵机臂拨动&lt;/font&gt;&lt;/span&gt;" style="endArrow=classic;html=1;strokeWidth=2;fontSize=12;exitX=0.492;exitY=1.034;exitDx=0;exitDy=0;exitPerimeter=0;" parent="_2Ivy49HuG6Gi5U8kJDF-1" source="_2Ivy49HuG6Gi5U8kJDF-6" edge="1">
          <mxGeometry x="1" y="47" width="50" height="50" relative="1" as="geometry">
            <mxPoint x="143.98000000000002" y="560" as="sourcePoint" />
            <mxPoint x="137.98000000000002" y="480" as="targetPoint" />
            <mxPoint x="42" y="-20" as="offset" />
            <Array as="points">
              <mxPoint x="137.98000000000002" y="480" />
            </Array>
          </mxGeometry>
        </mxCell>
        <mxCell id="_2Ivy49HuG6Gi5U8kJDF-75" value="" style="endArrow=classic;html=1;strokeWidth=3;fontSize=13;" parent="_2Ivy49HuG6Gi5U8kJDF-1" edge="1">
          <mxGeometry width="50" height="50" relative="1" as="geometry">
            <mxPoint x="503" y="400" as="sourcePoint" />
            <mxPoint x="552.5" y="465" as="targetPoint" />
            <Array as="points">
              <mxPoint x="502.5" y="440" />
              <mxPoint x="503" y="465" />
            </Array>
          </mxGeometry>
        </mxCell>
        <mxCell id="_2Ivy49HuG6Gi5U8kJDF-76" value="&lt;font style=&quot;font-size: 12px;&quot;&gt;I/O&lt;/font&gt;" style="edgeStyle=orthogonalEdgeStyle;rounded=0;orthogonalLoop=1;jettySize=auto;html=1;strokeWidth=3;fontSize=12;" parent="_2Ivy49HuG6Gi5U8kJDF-1" edge="1">
          <mxGeometry x="-0.625" y="10" relative="1" as="geometry">
            <mxPoint x="552.5" y="400" as="targetPoint" />
            <mxPoint as="offset" />
            <mxPoint x="472.5" y="400" as="sourcePoint" />
            <Array as="points">
              <mxPoint x="552.5" y="400" />
              <mxPoint x="552.5" y="400" />
            </Array>
          </mxGeometry>
        </mxCell>
      </root>
    </mxGraphModel>
  </diagram>
</mxfile>
